<svg role="img" aria-label="crinkles" class="lettermark" viewBox="0 0 724 221" fill="none" xmlns="http://www.w3.org/2000/svg">
<path d="M51.5861 215.972C36.6787 215.972 24.6773 211.782 15.5817 203.402C6.62504 194.87 1.54347 183.671 0.33701 169.807C-0.736869 157.465 0.755682 146.648 4.81466 137.354C8.87364 128.06 14.5633 120.899 21.8837 115.871C29.2041 110.843 37.1236 108.329 45.642 108.329C54.0084 108.329 60.6921 110.843 65.6931 115.871C70.8329 120.746 73.7409 127.069 74.417 134.84C74.9739 141.239 73.9994 146.648 71.4937 151.066C69.1401 155.485 65.6815 157.694 61.1181 157.694C58.2279 157.694 55.8104 157.008 53.8657 155.637C52.0731 154.266 51.0708 152.361 50.8586 149.923C50.7658 148.857 50.8119 147.638 50.9968 146.267C51.1817 144.896 51.3237 143.905 51.4228 143.296C51.9845 141.01 52.1792 138.877 52.0068 136.897C51.8345 134.916 51.1695 133.392 50.0119 132.326C49.0064 131.259 47.5909 130.726 45.7656 130.726C42.2669 130.726 39.1356 132.326 36.3717 135.525C33.5945 138.573 31.5253 142.762 30.1639 148.095C28.8025 153.428 28.4003 159.294 28.9571 165.693C30.495 183.367 38.9458 192.204 54.3095 192.204C60.5462 192.204 67.0603 190.147 73.8518 186.033C80.7822 181.767 87.3814 175.444 93.6496 167.064C95.2893 164.931 97.2501 163.865 99.5318 163.865C101.509 163.865 103.11 164.779 104.334 166.607C105.71 168.435 106.537 170.949 106.816 174.149C107.319 179.939 106.285 184.662 103.713 188.318C97.3328 197.155 89.3348 204.012 79.7194 208.887C70.2429 213.61 60.8651 215.972 51.5861 215.972Z" fill="var(--color-text-0)"/>
<path d="M108.211 215.972C102.43 215.972 98.0579 212.925 95.0937 206.83C92.2817 200.736 90.2923 190.985 89.1256 177.577C87.4021 157.77 88.5789 138.953 92.656 121.127C93.6406 116.709 95.5679 113.509 98.4378 111.528C101.447 109.395 105.765 108.329 111.393 108.329C114.436 108.329 116.599 108.71 117.882 109.472C119.165 110.233 119.899 111.681 120.085 113.814C120.297 116.252 119.634 121.737 118.094 130.269C117.103 136.363 116.35 141.696 115.836 146.267C115.321 150.838 115.051 156.475 115.025 163.179C118.905 150.076 123.605 139.411 129.126 131.183C134.647 122.956 140.221 117.09 145.849 113.585C151.628 110.081 157.028 108.329 162.048 108.329C171.936 108.329 177.31 113.281 178.172 123.184C178.344 125.165 178.077 129.964 177.371 137.582C176.685 143.677 176.408 147.486 176.54 149.009C177.004 154.342 179.138 157.008 182.941 157.008C187.2 157.008 192.384 153.656 198.494 146.952C200.299 144.972 202.267 143.981 204.396 143.981C206.374 143.981 207.974 144.896 209.198 146.724C210.561 148.4 211.368 150.685 211.62 153.58C212.111 159.218 210.974 163.636 208.21 166.836C204.336 171.254 199.647 175.063 194.145 178.263C188.782 181.31 182.906 182.833 176.517 182.833C168.455 182.833 162.115 180.777 157.498 176.663C153.033 172.549 150.496 166.988 149.886 159.979C149.687 157.694 149.716 155.408 149.974 153.123C150.013 150.076 149.986 148.019 149.893 146.952C149.681 144.515 148.738 143.296 147.065 143.296C144.783 143.296 141.966 145.886 138.614 151.066C135.401 156.094 132.333 162.798 129.412 171.178C126.49 179.558 124.293 188.395 122.82 197.689C121.77 204.85 120.217 209.725 118.16 212.315C116.243 214.753 112.926 215.972 108.211 215.972Z" fill="var(--color-text-0)"/>
<path d="M215.059 93.2451C208.67 93.2451 203.752 91.7977 200.306 88.9028C196.846 85.8556 194.884 81.6656 194.42 76.333C193.956 71.0003 195.626 66.5819 199.428 63.0776C203.369 59.4209 208.458 57.5926 214.694 57.5926C220.323 57.5926 225.005 58.9638 228.743 61.7063C232.48 64.4488 234.568 68.334 235.005 73.3619C235.535 79.4564 233.982 84.3319 230.345 87.9886C226.695 91.4929 221.6 93.2451 215.059 93.2451ZM223.912 215.972C214.025 215.972 206.494 212.468 201.321 205.459C196.3 198.451 193.285 189.156 192.278 177.577C191.681 170.721 191.756 161.96 192.501 151.295C193.385 140.477 194.792 130.421 196.721 121.127C197.666 116.252 199.2 112.9 201.322 111.071C203.445 109.243 207.016 108.329 212.036 108.329C219.794 108.329 223.898 110.919 224.349 116.099C224.68 119.908 224.004 128.745 222.32 142.61C220.128 159.37 219.29 170.721 219.807 176.663C220.205 181.234 221.118 184.738 222.548 187.176C223.977 189.614 226.136 190.832 229.026 190.832C231.764 190.832 235.021 188.928 238.797 185.119C242.573 181.31 247.525 175.292 253.655 167.064C255.294 164.931 257.255 163.865 259.537 163.865C261.514 163.865 263.115 164.779 264.339 166.607C265.715 168.435 266.542 170.949 266.821 174.149C267.351 180.243 266.317 184.967 263.718 188.318C250.263 206.754 236.994 215.972 223.912 215.972Z" fill="var(--color-text-0)"/>
<path d="M268.199 215.972C262.419 215.972 258.047 212.925 255.083 206.83C252.271 200.736 250.281 190.985 249.115 177.577C247.391 157.77 248.568 138.953 252.645 121.127C253.63 116.709 255.557 113.509 258.427 111.528C261.436 109.395 265.754 108.329 271.382 108.329C274.425 108.329 276.587 108.71 277.871 109.472C279.154 110.233 279.888 111.681 280.074 113.814C280.286 116.252 279.622 121.737 278.083 130.269C277.092 136.363 276.339 141.696 275.824 146.267C275.309 150.838 275.039 156.475 275.014 163.179C278.894 150.076 283.594 139.411 289.115 131.183C294.636 122.956 300.21 117.09 305.838 113.585C311.617 110.081 317.017 108.329 322.037 108.329C331.924 108.329 337.299 113.281 338.161 123.184C338.678 129.126 337.939 139.868 335.945 155.408C334.208 168.664 333.526 177.425 333.897 181.691C334.427 187.785 336.898 190.832 341.309 190.832C344.352 190.832 347.767 189.004 351.556 185.347C355.484 181.538 360.582 175.444 366.85 167.064C368.49 164.931 370.451 163.865 372.732 163.865C374.71 163.865 376.31 164.779 377.534 166.607C378.91 168.435 379.738 170.949 380.016 174.149C380.546 180.243 379.512 184.967 376.914 188.318C371.075 196.394 364.579 203.021 357.424 208.202C350.421 213.382 342.128 215.972 332.544 215.972C324.787 215.972 318.738 213.763 314.398 209.344C310.046 204.774 307.498 198.222 306.756 189.69C306.384 185.424 306.786 177.806 307.961 166.836C309.104 157.237 309.516 150.609 309.197 146.952C308.985 144.515 308.043 143.296 306.369 143.296C304.392 143.296 301.803 145.886 298.603 151.066C295.542 156.094 292.474 162.798 289.401 171.178C286.479 179.558 284.282 188.395 282.809 197.689C281.759 204.85 280.205 209.725 278.149 212.315C276.232 214.753 272.915 215.972 268.199 215.972Z" fill="var(--color-text-0)"/>
<path d="M492.545 163.865C494.522 163.865 496.123 164.779 497.347 166.607C498.723 168.435 499.55 170.949 499.829 174.149C500.359 180.243 499.325 184.967 496.726 188.318C490.61 196.698 484.272 203.402 477.712 208.43C471.153 213.458 463.081 215.972 453.498 215.972C441.785 215.972 432.062 212.62 424.329 205.916C416.596 199.212 412.246 190.299 411.278 179.177C410.761 173.235 413.432 168.969 419.292 166.378C425.733 163.484 430.259 160.436 432.871 157.237C435.47 153.885 436.563 149.847 436.152 145.124C435.914 142.382 435.126 140.325 433.79 138.953C432.606 137.582 431.177 136.897 429.504 136.897C425.397 136.897 421.092 139.868 416.589 145.81C412.239 151.752 408.345 159.446 404.907 168.892C401.457 178.186 398.945 187.785 397.373 197.689C396.323 204.85 394.77 209.725 392.714 212.315C390.796 214.753 387.48 215.972 382.764 215.972C378.048 215.972 374.404 214.296 371.831 210.944C369.396 207.44 367.487 202.107 366.103 194.946C364.719 187.785 363.424 177.272 362.218 163.407C360.176 139.944 360.406 115.49 362.908 90.0455C365.561 64.6012 370.779 43.2706 378.56 26.0538C386.479 8.68459 396.98 0 410.062 0C417.06 0 422.953 3.04723 427.743 9.14168C432.671 15.0838 435.553 22.8542 436.388 32.4529C437.727 47.8414 434.632 63.8394 427.102 80.4467C419.559 96.9018 406.633 116.175 388.324 138.268C388.557 146.191 389.038 154.342 389.767 162.722C395.412 143.677 402.578 129.888 411.267 121.356C419.942 112.671 428.387 108.329 436.601 108.329C444.207 108.329 450.517 110.919 455.532 116.099C460.698 121.28 463.612 127.679 464.275 135.297C465.005 143.677 463.544 151.371 459.895 158.38C456.246 165.388 449.488 171.635 439.621 177.12C440.588 181.234 442.705 184.586 445.972 187.176C449.379 189.614 453.288 190.832 457.699 190.832C462.415 190.832 466.819 189.004 470.912 185.347C475.005 181.691 480.256 175.596 486.663 167.064C488.302 164.931 490.263 163.865 492.545 163.865ZM407.239 22.6257C404.501 22.6257 401.804 26.587 399.146 34.5098C396.476 42.2802 394.127 52.8694 392.099 66.2771C390.21 79.5326 388.96 94.0069 388.348 109.7C396.811 98.5777 403.515 86.465 408.46 73.3619C413.556 60.2589 415.641 48.3747 414.713 37.7094C414.288 32.8339 413.431 29.101 412.141 26.5109C410.851 23.9207 409.217 22.6257 407.239 22.6257Z" fill="var(--color-text-0)"/>
<path d="M567.019 163.865C568.996 163.865 570.597 164.779 571.821 166.607C573.197 168.435 574.024 170.949 574.302 174.149C574.833 180.243 573.799 184.967 571.2 188.318C565.362 196.394 558.789 203.021 551.482 208.202C544.327 213.382 535.882 215.972 526.146 215.972C512.76 215.972 502.266 209.878 494.664 197.689C487.215 185.5 482.648 169.73 480.965 150.381C479.347 131.792 479.862 110.614 482.51 86.8459C485.309 63.0776 490.606 42.6612 498.4 25.5967C506.346 8.53223 516.784 0 529.714 0C537.016 0 543.019 3.42813 547.722 10.2844C552.565 16.9883 555.536 26.6632 556.637 39.3092C558.214 57.4402 555.024 78.466 547.066 102.387C539.108 126.307 527.555 150 512.408 173.463C514.016 179.71 516.156 184.205 518.829 186.947C521.488 189.537 524.795 190.832 528.75 190.832C534.987 190.832 540.311 189.08 544.721 185.576C549.119 181.919 554.59 175.749 561.136 167.064C562.776 164.931 564.737 163.865 567.019 163.865ZM526.663 22.6257C523.165 22.6257 519.76 28.9486 516.449 41.5946C513.138 54.2406 510.624 69.9338 508.909 88.6742C507.193 107.415 506.932 125.393 508.126 142.61C517.375 124.784 524.418 106.958 529.256 89.1313C534.08 71.1527 535.85 54.7739 534.564 39.9948C533.556 28.4154 530.922 22.6257 526.663 22.6257Z" fill="var(--color-text-0)"/>
<path d="M656.73 163.865C658.708 163.865 660.308 164.779 661.532 166.607C662.908 168.435 663.735 170.949 664.014 174.149C664.544 180.243 663.51 184.967 660.911 188.318C655.88 195.175 648.444 201.498 638.604 207.287C628.916 213.077 618.215 215.972 606.502 215.972C590.53 215.972 577.755 211.63 568.177 202.945C558.598 194.261 553.153 182.376 551.84 167.293C550.925 156.78 552.283 147.029 555.912 138.039C559.528 128.898 564.983 121.66 572.276 116.328C579.722 110.995 588.389 108.329 598.277 108.329C607.099 108.329 614.405 110.995 620.193 116.328C625.968 121.508 629.246 128.593 630.028 137.582C630.943 148.095 627.929 157.161 620.986 164.779C614.182 172.244 601.998 178.186 584.432 182.605C588.845 189.614 596.376 193.118 607.024 193.118C613.869 193.118 621.421 190.756 629.681 186.033C638.079 181.158 645.135 174.835 650.848 167.064C652.488 164.931 654.448 163.865 656.73 163.865ZM596.347 130.726C590.718 130.726 586.212 134.002 582.827 140.553C579.594 147.105 578.382 155.028 579.191 164.322L579.231 164.779C588.02 162.646 594.815 159.446 599.615 155.18C604.416 150.914 606.571 145.962 606.081 140.325C605.829 137.43 604.793 135.144 602.974 133.468C601.294 131.64 599.085 130.726 596.347 130.726Z" fill="var(--color-text-0)"/>
<path d="M691.952 221C684.042 221 677.799 219.172 673.221 215.515C668.796 211.858 666.384 207.745 665.987 203.174C665.642 199.212 666.789 195.784 669.427 192.889C672.065 189.994 676.199 188.547 681.827 188.547C683.805 188.547 686.106 188.776 688.732 189.233C691.496 189.537 693.57 189.766 694.952 189.918C694.455 185.957 693.218 182.224 691.24 178.72C689.414 175.215 687.144 171.863 684.432 168.664C681.707 165.312 679.173 162.417 676.831 159.979C672.898 168.969 668.832 176.434 664.633 182.376C660.587 188.319 656.058 193.956 651.046 199.289C648.546 202.031 645.775 203.402 642.733 203.402C640.299 203.402 638.249 202.564 636.582 200.888C634.901 199.06 633.949 196.851 633.723 194.261C633.458 191.213 634.278 188.395 636.182 185.805L638.83 182.148C646.295 171.787 651.865 163.255 655.541 156.551C657.895 152.133 660.175 146.876 662.383 140.782C664.743 134.687 667.747 126.384 671.396 115.871C673.703 109.167 679.42 105.815 688.547 105.815C692.806 105.815 695.805 106.196 697.545 106.958C699.284 107.719 700.227 108.938 700.373 110.614C700.452 111.528 700.274 112.976 699.838 114.957C699.402 116.937 698.738 118.918 697.845 120.899C695.584 126.384 694.62 131.031 694.951 134.84C695.15 137.125 696.129 139.639 697.889 142.382C699.801 145.124 702.609 148.552 706.314 152.666C711.738 159.065 715.866 164.55 718.698 169.121C721.668 173.539 723.386 178.415 723.85 183.748C724.407 190.147 723.416 196.241 720.877 202.031C718.478 207.668 714.768 212.239 709.749 215.744C704.73 219.248 698.798 221 691.952 221Z" fill="var(--color-text-0)"/>
</svg>
