<svg aria-label="crinkles.dev" viewBox="0 0 524 148" fill="none" xmlns="http://www.w3.org/2000/svg">
<path d="M49.7923 11.5323C43.5113 14.9187 39.1936 19.9105 36.914 22.3372C28.5021 31.8053 23.3927 42.1017 17.3961 54.2638C9.51422 70.2514 5.31737 87.4769 10.4484 96.9399C13.6361 102.819 24.1191 105.087 31.5518 101.079C35.6156 98.8883 41.9076 95.3668 43.8871 93.0843C44.171 92.7569 44.6955 93.0853 44.5252 93.4852C37.1483 110.828 34.8853 125.815 38.9704 134.613C41.2033 139.422 43.7496 141.028 50.7462 137.256C63.9318 130.147 77.7137 113.569 87.7301 94.0463C93.6074 82.5932 92.2479 71.3739 89.1326 65.6284C83.2657 56.528 72.7251 55.8408 65.1953 59.9005C57.7804 63.8982 46.9759 69.1816 34.9314 84.622C34.6446 84.9897 34.0758 84.6219 34.2929 84.2072C42.2727 69.0262 57.1347 56.6793 71.0364 51.2396C72.3006 50.7447 73.3329 49.8025 74.0085 48.6263C81.5289 35.5124 83.1005 24.741 78.6626 16.5562C72.8192 5.77944 58.2686 6.96236 49.7923 11.5323Z" fill="url(#paint0_linear_785_60)"/>
<path d="M45.9024 4.31715C51.4037 1.35122 58.7526 -0.51124 65.9373 0.124309C73.3318 0.778483 81.3055 4.23462 85.8681 12.6492C92.0164 23.9885 89.4418 37.2628 82.3308 50.5185C87.3182 52.0776 92.0099 55.2776 95.6081 60.5635L96.022 61.1871L96.1901 61.448L96.3382 61.7218C100.746 69.8509 102.024 83.6273 95.3464 97.1448L95.023 97.7884C84.6639 117.979 69.9158 136.233 54.6363 144.471C50.8571 146.508 45.8813 148.536 40.7402 147.011C35.2867 145.393 32.7818 140.748 31.5356 138.065C28.5574 131.65 28.247 123.904 29.3311 116.122C29.5939 114.236 29.9455 112.301 30.3805 110.324C26.1369 111.505 21.726 111.551 17.7788 110.75C12.395 109.658 6.38374 106.641 3.24234 100.847C-0.661696 93.6467 -0.531136 84.6947 0.984225 76.5496C2.5513 68.1267 5.87391 59.0977 10.0439 50.6393H10.0447C15.9786 38.6045 21.5288 27.3134 30.7864 16.8933L30.8616 16.8084L30.9401 16.7252C32.9831 14.5504 38.2229 8.45747 45.9024 4.31715ZM78.6623 16.5563C72.8189 5.77965 58.2681 6.96263 49.7919 11.5326L49.2091 11.8543C43.2434 15.2281 39.1224 19.9864 36.914 22.3373L36.1351 23.2274C28.1821 32.4508 23.2054 42.4818 17.3962 54.2639L16.6678 55.7663C9.26076 71.3205 5.47764 87.7726 10.4481 96.9399C13.6358 102.819 24.119 105.086 31.5516 101.079C35.6154 98.8882 41.9073 95.3665 43.8868 93.0841C44.1707 92.7568 44.6949 93.0852 44.5248 93.4851C37.1478 110.828 34.8853 125.815 38.9704 134.613C41.2032 139.422 43.7495 141.028 50.746 137.255C63.9317 130.146 77.7135 113.569 87.73 94.0462C93.4236 82.9508 92.3255 72.0751 89.4189 66.1828L89.1324 65.6289C83.2655 56.5285 72.725 55.8411 65.1952 59.9007C57.7803 63.8984 46.9757 69.182 34.9312 84.6223C34.6445 84.9895 34.076 84.6221 34.2924 84.2077C42.2723 69.0268 57.1346 56.6794 71.0362 51.2397C72.3005 50.7448 73.3327 49.8023 74.0084 48.6262C81.5287 35.5123 83.1002 24.7411 78.6623 16.5563Z" fill="#101419"/>
<path d="M161.102 50.335C157.91 50.335 155.453 49.6158 153.731 48.1773C152.003 46.663 151.022 44.581 150.791 41.9311C150.559 39.2812 151.393 37.0856 153.292 35.3443C155.261 33.5272 157.804 32.6187 160.92 32.6187C163.732 32.6187 166.071 33.3001 167.939 34.6629C169.806 36.0257 170.849 37.9563 171.067 40.4548C171.332 43.4832 170.556 45.9059 168.739 47.723C166.916 49.4643 164.37 50.335 161.102 50.335ZM165.525 111.32C160.585 111.32 156.823 109.579 154.238 106.096C151.73 102.613 150.223 97.995 149.72 92.2409C149.422 88.834 149.459 84.4806 149.831 79.1808C150.273 73.8054 150.976 68.8084 151.94 64.1901C152.412 61.7673 153.178 60.1017 154.239 59.1932C155.299 58.2846 157.084 57.8304 159.592 57.8304C163.468 57.8304 165.518 59.1175 165.743 61.6916C165.909 63.5844 165.571 67.9756 164.73 74.8653C163.635 83.1935 163.216 88.834 163.474 91.7867C163.673 94.058 164.129 95.7993 164.843 97.0107C165.557 98.2221 166.636 98.8278 168.08 98.8278C169.448 98.8278 171.076 97.8814 172.962 95.9886C174.848 94.0959 177.323 91.1053 180.385 87.0169C181.204 85.9569 182.184 85.427 183.324 85.427C184.312 85.427 185.112 85.8812 185.723 86.7898C186.411 87.6983 186.824 88.9475 186.963 90.5374C187.228 93.5659 186.711 95.9129 185.413 97.5786C178.691 106.74 172.061 111.32 165.525 111.32Z" fill="var(--text-0)"/>
<path d="M187.652 111.32C184.764 111.32 182.579 109.806 181.099 106.777C179.694 103.749 178.7 98.9035 178.117 92.2409C177.256 82.3985 177.844 73.0483 179.881 64.1901C180.373 61.9945 181.335 60.4045 182.769 59.4203C184.273 58.3604 186.43 57.8304 189.242 57.8304C190.762 57.8304 191.843 58.0197 192.484 58.3982C193.125 58.7768 193.492 59.496 193.585 60.556C193.691 61.7673 193.359 64.4929 192.59 68.7327C192.095 71.7612 191.719 74.411 191.462 76.6824C191.204 78.9537 191.069 81.755 191.057 85.0863C192.995 78.5751 195.343 73.2754 198.102 69.187C200.86 65.0986 203.645 62.1838 206.457 60.4424C209.344 58.7011 212.042 57.8304 214.55 57.8304C219.49 57.8304 222.176 60.291 222.606 65.2122C222.864 68.1649 222.495 73.5025 221.499 81.225C220.631 87.8119 220.29 92.1652 220.476 94.2851C220.741 97.3136 221.975 98.8278 224.179 98.8278C225.699 98.8278 227.406 97.9192 229.299 96.1022C231.261 94.2094 233.808 91.181 236.94 87.0169C237.759 85.9569 238.739 85.427 239.879 85.427C240.867 85.427 241.666 85.8812 242.278 86.7898C242.965 87.6983 243.379 88.9475 243.518 90.5374C243.783 93.5659 243.266 95.9129 241.968 97.5786C239.051 101.591 235.805 104.885 232.23 107.459C228.731 110.033 224.588 111.32 219.8 111.32C215.924 111.32 212.902 110.222 210.734 108.027C208.559 105.755 207.286 102.5 206.915 98.2599C206.73 96.14 206.931 92.3545 207.518 86.9033C208.088 82.1336 208.294 78.8401 208.135 77.0231C208.029 75.8117 207.558 75.206 206.722 75.206C205.734 75.206 204.441 76.4931 202.842 79.0673C201.313 81.5657 199.78 84.897 198.245 89.0611C196.785 93.2252 195.687 97.6164 194.951 102.235C194.426 105.793 193.65 108.216 192.623 109.503C191.665 110.714 190.008 111.32 187.652 111.32Z" fill="var(--text-0)"/>
<path d="M284.691 85.427C285.679 85.427 286.479 85.8812 287.091 86.7898C287.778 87.6983 288.191 88.9475 288.33 90.5374C288.595 93.5659 288.079 95.9129 286.78 97.5786C283.864 101.591 280.58 104.885 276.929 107.459C273.278 110.033 268.945 111.32 263.929 111.32C248.425 111.32 239.722 100.456 237.821 78.7266C237.53 75.3953 237.349 72.0262 237.279 68.6192H232.833C230.553 68.6192 228.958 68.2028 228.05 67.3699C227.217 66.5371 226.721 65.2122 226.562 63.3951C226.191 59.1553 227.715 57.0354 231.135 57.0354H237.633C238.197 48.7072 239.507 41.0983 241.564 34.2086C243.622 27.3189 246.333 21.8299 249.7 17.7415C253.142 13.6531 257.029 11.6089 261.361 11.6089C264.553 11.6089 267.184 13.0096 269.253 15.8109C271.322 18.6122 272.542 22.1327 272.913 26.3725C273.939 38.1077 269.894 48.3287 260.775 57.0354H273.543C274.759 57.0354 275.657 57.3004 276.235 57.8304C276.813 58.3604 277.165 59.3446 277.291 60.7831C277.748 66.0071 273.683 68.6192 265.095 68.6192H251.187C251.366 72.4047 251.548 75.3574 251.734 77.4773C252.423 85.3513 253.818 90.8781 255.92 94.058C258.099 97.2379 261.202 98.8278 265.23 98.8278C268.498 98.8278 271.3 97.8435 273.635 95.8751C275.971 93.9066 278.677 90.9539 281.752 87.0169C282.572 85.9569 283.551 85.427 284.691 85.427ZM259.237 22.5113C258.097 22.5113 256.931 23.9498 255.738 26.8268C254.616 29.6281 253.63 33.5651 252.782 38.6377C252.003 43.6346 251.464 49.1994 251.164 55.3319C255.311 51.4707 258.277 47.1552 260.064 42.3854C261.92 37.5399 262.676 33.1487 262.331 29.2117C261.94 24.7448 260.909 22.5113 259.237 22.5113Z" fill="var(--text-0)"/>
<path d="M329.445 85.427C330.433 85.427 331.233 85.8812 331.844 86.7898C332.532 87.6983 332.945 88.9475 333.084 90.5374C333.349 93.5659 332.833 95.9129 331.534 97.5786C329.02 100.986 325.305 104.128 320.389 107.005C315.549 109.882 310.203 111.32 304.351 111.32C296.371 111.32 289.988 109.162 285.202 104.847C280.417 100.531 277.696 94.6258 277.04 87.1305C276.583 81.9064 277.261 77.0609 279.074 72.594C280.881 68.0513 283.606 64.4551 287.251 61.8052C290.971 59.1553 295.301 57.8304 300.241 57.8304C304.649 57.8304 308.299 59.1553 311.191 61.8052C314.076 64.3794 315.714 67.8999 316.105 72.3669C316.562 77.5909 315.056 82.0957 311.587 85.8812C308.188 89.5911 302.1 92.5438 293.324 94.7394C295.529 98.2221 299.291 99.9634 304.611 99.9634C308.031 99.9634 311.804 98.7899 315.931 96.4429C320.127 94.0201 323.652 90.8781 326.506 87.0169C327.326 85.9569 328.305 85.427 329.445 85.427ZM299.277 68.9599C296.465 68.9599 294.213 70.5877 292.522 73.8432C290.907 77.0988 290.301 81.0357 290.705 85.6541L290.725 85.8812C295.116 84.8213 298.511 83.2314 300.91 81.1115C303.308 78.9916 304.385 76.5309 304.14 73.7296C304.014 72.2911 303.497 71.1555 302.588 70.3227C301.748 69.4141 300.645 68.9599 299.277 68.9599Z" fill="var(--text-0)"/>
<path d="M368.358 73.389C370.03 73.389 371.489 73.9946 372.735 75.206C374.05 76.3417 374.784 77.7802 374.936 79.5215C375.023 80.5058 374.887 81.5657 374.531 82.7014C373.56 85.5027 372.055 87.8497 370.017 89.7425C367.978 91.6353 365.629 92.5816 362.969 92.5816C360.841 92.5816 358.951 91.8245 357.298 90.3103C355.722 88.7961 354.821 86.7519 354.596 84.1777C354.47 82.7392 354.41 81.1872 354.416 79.5215C354.462 78.3102 354.466 77.4773 354.426 77.0231C354.373 76.4174 354.181 75.9631 353.851 75.6603C353.596 75.3574 353.279 75.206 352.899 75.206C351.835 75.206 350.504 76.4931 348.905 79.0673C347.299 81.5657 345.767 84.897 344.307 89.0611C342.847 93.2252 341.75 97.6164 341.014 102.235C340.496 105.869 339.758 108.292 338.8 109.503C337.841 110.714 336.146 111.32 333.714 111.32C330.826 111.32 328.642 109.806 327.161 106.777C325.756 103.749 324.762 98.9035 324.179 92.2409C323.318 82.3985 323.906 73.0483 325.943 64.1901C326.435 61.9945 327.398 60.4045 328.832 59.4203C330.335 58.3604 332.493 57.8304 335.305 57.8304C336.825 57.8304 337.905 58.0197 338.546 58.3982C339.188 58.7768 339.554 59.496 339.647 60.556C339.753 61.7673 339.422 64.4929 338.653 68.7327C338.158 71.7612 337.781 74.411 337.524 76.6824C337.267 78.9537 337.132 81.755 337.119 85.0863C339.058 78.5751 341.406 73.2754 344.164 69.187C346.923 65.0986 349.708 62.1838 352.519 60.4424C355.331 58.7011 357.953 57.8304 360.385 57.8304C362.589 57.8304 364.317 58.4739 365.57 59.761C366.892 60.9724 367.659 62.7894 367.871 65.2122C367.996 66.6507 367.817 69.3763 367.332 73.389H368.358Z" fill="var(--text-0)"/>
<path d="M506.572 85.427C507.951 91.6353 509.704 97.7678 511.829 103.825C512.22 104.809 512.461 105.831 512.554 106.891C512.852 110.298 510.911 112.001 506.731 112.001C504.375 112.001 502.495 111.358 501.09 110.071C499.761 108.784 498.409 106.361 497.034 102.803L496.88 102.348C494.304 105.907 491.89 108.292 489.64 109.503C487.466 110.714 484.859 111.32 481.819 111.32C477.183 111.32 473.196 109.617 469.858 106.21C466.589 102.727 464.713 98.2221 464.23 92.6952C463.7 86.6383 464.502 81.0357 466.635 75.8874C468.769 70.7391 471.935 66.5371 476.134 63.2816C480.327 59.9503 485.167 57.9439 490.656 57.2626C490.848 42.9532 492.494 30.4988 495.595 19.8993C498.772 9.29976 503.742 4 510.506 4C513.774 4 516.601 5.47636 518.987 8.42909C521.45 11.3818 522.943 15.8487 523.466 21.8299C524.194 30.1581 522.994 39.8869 519.863 51.0164C516.733 62.1459 512.303 73.6161 506.572 85.427ZM510.226 15.1295C508.022 15.1295 506.422 20.7321 505.426 31.9373C504.506 43.1425 504.281 55.3319 504.749 68.5056C511.596 50.335 514.522 35.5714 513.528 24.2148C513.277 21.3378 512.815 19.1043 512.144 17.5144C511.549 15.9245 510.91 15.1295 510.226 15.1295ZM484.806 99.8499C486.326 99.8499 487.72 99.282 488.989 98.1464C490.333 97.0107 491.965 94.8151 493.884 91.5595C492.641 86.0327 491.761 80.3165 491.244 74.411C491.039 72.064 490.918 70.247 490.881 68.9599C486.807 70.1712 483.591 72.9347 481.232 77.2502C478.874 81.5657 477.923 86.3355 478.38 91.5595C478.864 97.0864 481.006 99.8499 484.806 99.8499Z" fill="var(--text-0)"/>
<path d="M417.343 111.32C413.999 111.32 411.374 110.412 409.467 108.594C407.636 106.777 406.591 104.393 406.333 101.44C406.035 98.0328 406.746 95.3073 408.467 93.2631C410.265 91.2189 412.911 90.1968 416.407 90.1968C419.751 90.1968 422.332 91.0296 424.15 92.6952C426.037 94.2852 427.12 96.67 427.398 99.8499C427.702 103.333 426.96 106.134 425.169 108.254C423.372 110.298 420.763 111.32 417.343 111.32ZM446.983 111.32C443.639 111.32 441.014 110.412 439.107 108.594C437.276 106.777 436.231 104.393 435.973 101.44C435.675 98.0328 436.386 95.3073 438.107 93.2631C439.905 91.2189 442.551 90.1968 446.047 90.1968C449.391 90.1968 451.972 91.0296 453.79 92.6952C455.677 94.2852 456.76 96.67 457.038 99.8499C457.342 103.333 456.6 106.134 454.809 108.254C453.012 110.298 450.403 111.32 446.983 111.32ZM387.703 111.32C384.359 111.32 381.734 110.412 379.827 108.594C377.996 106.777 376.951 104.393 376.693 101.44C376.395 98.0328 377.106 95.3073 378.827 93.2631C380.625 91.2189 383.271 90.1968 386.767 90.1968C390.111 90.1968 392.692 91.0296 394.51 92.6952C396.397 94.2852 397.48 96.67 397.758 99.8499C398.062 103.333 397.32 106.134 395.529 108.254C393.732 110.298 391.123 111.32 387.703 111.32Z" fill="var(--logo-color-start)"/>
<defs>
<linearGradient id="paint0_linear_785_60" x1="50" y1="8.1969" x2="50" y2="139.345" gradientUnits="userSpaceOnUse">
<stop stop-color="var(--logo-color-start)"/>
<stop offset="1" stop-color="var(--logo-color-end, var(--logo-color-start))"/>
</linearGradient>
</defs>
</svg>
