<svg viewBox="0 0 336 230" fill="none" xmlns="http://www.w3.org/2000/svg">
<path d="M26.2625 113.391C33.9742 99.0876 45.3421 89.255 50.8682 84.0636C72.43 64.9074 95.8778 53.2719 123.574 39.6159C159.983 21.6665 199.21 12.1091 220.76 23.7939C234.148 31.0532 239.312 54.9261 230.186 71.8524C225.197 81.1068 217.178 95.4354 211.98 99.9434C211.234 100.59 211.982 101.784 212.893 101.397C252.387 84.5971 286.517 79.4437 306.552 88.7466C317.503 93.8315 321.161 99.6303 312.57 115.563C296.381 145.591 258.63 176.976 214.17 199.787C188.088 213.171 162.539 210.075 149.455 202.98C128.731 189.62 127.166 165.616 136.411 148.468C145.515 131.582 157.546 106.977 192.709 79.5487C193.546 78.8957 192.708 77.6002 191.764 78.0945C157.193 96.267 129.075 130.112 116.687 161.77C115.56 164.649 113.415 167 110.736 168.538C80.872 185.664 56.3426 189.244 37.7034 179.137C13.1616 165.83 15.8554 132.694 26.2625 113.391Z" fill="url(#paint0_linear_5951_15)"/>
<path d="M9.83139 104.533C3.07711 117.061 -1.16424 133.797 0.283089 150.158C1.77283 166.997 9.64344 185.156 28.8059 195.546C54.6287 209.548 84.8581 203.684 115.045 187.491C118.596 198.848 125.883 209.533 137.92 217.727L139.34 218.67L139.935 219.052L140.558 219.39C159.071 229.427 190.443 232.338 221.227 217.131L222.692 216.395C268.672 192.804 310.241 159.218 329.001 124.422C333.641 115.816 338.259 104.485 334.785 92.777C331.101 80.3578 320.525 74.6535 314.413 71.8156C299.806 65.0333 282.166 64.3264 264.444 66.7954C260.149 67.3937 255.742 68.1945 251.239 69.1852C253.93 59.5211 254.033 49.4763 252.21 40.4874C249.723 28.2271 242.851 14.5376 229.657 7.38374C213.26 -1.50687 192.874 -1.20955 174.325 2.24136C155.144 5.81003 134.582 13.3766 115.32 22.8728L115.32 22.8747C87.9134 36.3878 62.2005 49.0272 38.4708 70.1094L38.2776 70.2807L38.088 70.4594C33.1354 75.112 19.2601 87.0446 9.83139 104.533ZM37.7034 179.136C13.1619 165.829 15.8559 132.693 26.2629 113.39L26.9957 112.063C34.6788 98.4775 45.5148 89.0929 50.8683 84.0636L52.8954 82.29C73.8997 64.1787 96.7433 52.8453 123.574 39.6161L126.996 37.9573C162.417 21.0894 199.883 12.4742 220.76 23.7934C234.148 31.0527 239.312 54.9257 230.186 71.8521C225.197 81.1064 217.177 95.4348 211.979 99.9428C211.234 100.589 211.982 101.783 212.892 101.396C252.386 84.5962 286.518 79.4437 306.552 88.7466C317.503 93.8314 321.16 99.6302 312.57 115.563C296.381 145.591 258.63 176.976 214.17 199.786C188.903 212.752 164.136 210.252 150.717 203.632L149.456 202.98C128.732 189.619 127.166 165.616 136.411 148.468C145.515 131.582 157.547 106.977 192.709 79.5483C193.545 78.8954 192.709 77.6009 191.765 78.0937C157.194 96.2661 129.075 130.112 116.687 161.77C115.56 164.649 113.414 167 110.736 168.538C80.8717 185.664 56.3425 189.243 37.7034 179.136Z" fill="var(--p-neutral-5)"/>
<defs>
<linearGradient id="paint0_linear_5951_15" x1="18.6668" y1="113.864" x2="317.329" y2="113.864" gradientUnits="userSpaceOnUse">
<stop stop-color="var(--logo-color-start)"/>
<stop offset="1" stop-color="var(--logo-color-end)"/>
</linearGradient>
</defs>
</svg>
