<svg viewBox="0 0 341 231" fill="none" xmlns="http://www.w3.org/2000/svg" aria-label="logo of Crinkles, representing a tilde">
<path d="M27.5959 114.725C35.3075 100.422 46.6754 90.5889 52.2016 85.3975C73.7634 66.2414 97.2112 54.6058 124.908 40.9499C161.316 23.0005 200.543 13.443 222.093 25.1279C241.222 35.4996 240.646 56.26 231.52 73.1864C226.53 82.4407 217.5 96.1279 213.313 101.277C212.568 101.924 213.315 103.118 214.226 102.731C253.72 85.9311 287.851 80.7777 307.885 90.0806C318.836 95.1654 322.494 100.964 313.904 116.897C297.715 146.925 259.963 178.31 215.504 201.12C189.422 214.505 163.872 211.409 150.788 204.314C130.064 190.954 126.659 166.035 135.904 148.887C145.149 131.74 157.404 115.193 180.096 96.1279C180.933 95.4749 180.096 94.1794 179.151 94.6737C153.404 111.387 132.404 132.814 118.021 163.104C116.894 165.983 114.748 168.334 112.07 169.872C82.2054 186.998 57.6759 190.577 39.0368 180.471C14.4949 167.164 17.1888 134.028 27.5959 114.725Z" fill="url(#paint0_linear_5953_16)"/>
<path d="M9.99141 105.234C3.12626 117.967 -1.18434 134.962 0.288287 151.609C1.80624 168.769 9.84889 187.396 29.5041 198.053C55.3757 212.081 85.4164 206.519 115.175 190.97C119.609 202.568 127.724 213.241 139.951 221.124L140.589 221.535L141.255 221.896C160.47 232.315 193.016 235.14 224.635 218.915L224.634 218.914C270.723 195.267 312.564 161.525 331.508 126.388C336.173 117.736 341.031 105.986 337.397 93.733C333.535 80.7176 322.466 74.8001 316.309 71.941C301.373 65.006 283.44 64.3217 265.593 66.8082C262.12 67.2921 258.575 67.9071 254.968 68.6461C257.279 60.9303 258.323 52.5833 257.238 44.148C255.328 29.2929 246.948 15.854 231.627 7.54645C214.828 -1.56229 194.07 -1.20766 175.414 2.26325C156.081 5.86023 135.401 13.4778 116.064 23.0113L110.946 25.5367C85.4508 38.137 61.31 50.5523 38.9182 70.4459L38.7102 70.6304L38.508 70.8209C33.5965 75.4349 19.5429 87.518 9.99141 105.234ZM39.0373 180.471C14.4955 167.164 17.1889 134.028 27.5959 114.725L27.9602 114.058C35.6615 100.116 46.7615 90.5074 52.2014 85.397C73.763 66.241 97.211 54.6057 124.907 40.9498C161.316 23.0004 200.544 13.4427 222.094 25.1275C241.222 35.4992 240.645 56.2598 231.52 73.1861C226.606 82.3004 217.771 95.7136 213.505 101.037L213.314 101.277C212.568 101.923 213.315 103.117 214.226 102.73C253.72 85.9306 287.851 80.7777 307.886 90.0806C318.836 95.1654 322.494 100.964 313.904 116.897C297.714 146.925 259.964 178.31 215.504 201.121C189.83 214.296 164.671 211.502 151.41 204.644L150.788 204.314C130.064 190.953 126.659 166.035 135.904 148.887C145.148 131.74 157.404 115.193 180.096 96.1275C180.933 95.4745 180.096 94.1795 179.152 94.6734C153.404 111.387 132.404 132.814 118.021 163.104C116.894 165.983 114.748 168.334 112.07 169.873C82.6723 186.731 58.4441 190.462 39.9152 180.935L39.0373 180.471Z" fill="var(--logo-color-border)"/>
<defs>
<linearGradient id="paint0_linear_5953_16" x1="5.47406" y1="103.566" x2="304.137" y2="103.566" gradientUnits="userSpaceOnUse">
<stop stop-color="var(--logo-color-start)"/>
<stop offset="1" stop-color="var(--logo-color-end)"/>
</linearGradient>
</defs>
</svg>
