<svg viewBox="0 0 430 462" fill="none" xmlns="http://www.w3.org/2000/svg" aria-label="a illustration of myself behind a laptop">
<path opacity="0.8" d="M420 247.5C420 360.442 328.218 452 215 452C101.782 452 10 360.442 10 247.5C10 134.558 101.782 43 215 43C328.218 43 420 134.558 420 247.5Z" fill="var(--glyph-color)"/>
<path opacity="0.5" d="M420 247.5C420 134.558 328.218 43 215 43C101.782 43 10 134.558 10 247.5C10 360.442 101.782 452 215 452C328.218 452 420 360.442 420 247.5ZM430 247.5C430 365.988 333.718 462 215 462C96.2818 462 0 365.988 0 247.5C0 129.012 96.2818 33 215 33C333.718 33 430 129.012 430 247.5Z" fill="var(--glyph-color)"/>
<g filter="url(#filter0_d_4117_1012)">
<path d="M61.0371 213.028C58.9637 205.114 62.8198 196.881 70.434 192.965L77.9624 189.092C79.7836 188.156 82.0682 188.751 83.1138 190.435L87.0624 196.795L103.058 270.597C103.635 273.26 100.977 275.539 98.2032 274.758L86.0253 271.331C79.5275 269.502 74.5445 264.584 72.9246 258.401L61.0371 213.028Z" fill="#EDD5BE"/>
<path d="M61.0371 213.028C58.9637 205.114 62.8198 196.881 70.434 192.965L77.9624 189.092C79.7836 188.156 82.0682 188.751 83.1138 190.435L87.0624 196.795L103.058 270.597C103.635 273.26 100.977 275.539 98.2032 274.758L86.0253 271.331C79.5275 269.502 74.5445 264.584 72.9246 258.401L61.0371 213.028Z" fill="#EDD5BE"/>
<path d="M99.5326 254.332C96.6554 257.21 93.2842 258.987 89.5626 259.341C82.3945 260.023 75.3712 255.289 69.9898 247.2L72.9244 258.401C74.5443 264.584 79.5273 269.502 86.0251 271.331L98.203 274.758C100.977 275.539 103.635 273.26 103.058 270.597L99.5326 254.332Z" fill="#E2CBB4"/>
<path fill-rule="evenodd" clip-rule="evenodd" d="M75.6609 185.15C79.7585 183.042 84.8989 184.383 87.2515 188.172C90.1297 192.808 92.1792 197.854 93.3188 203.112L107.751 269.7C109.05 275.693 103.069 280.821 96.8276 279.064L84.6497 275.637C76.5275 273.351 70.2988 267.204 68.2739 259.474L56.3864 214.102C53.7947 204.209 58.6148 193.918 68.1325 189.022L75.6609 185.15ZM82.7034 199.233C82.5864 198.693 82.376 198.175 82.0805 197.699C80.6142 195.338 77.4104 194.502 74.8565 195.816L72.7353 196.907C67.0247 199.844 64.1327 206.019 65.6877 211.954L77.5751 257.327C78.7901 261.965 82.5273 265.653 87.4007 267.025C92.217 268.38 96.8327 264.424 95.8303 259.799L82.7034 199.233Z" fill="#101419"/>
<path d="M361.474 213.334C363.684 205.452 359.97 197.162 352.425 193.13L344.964 189.144C343.159 188.18 340.865 188.74 339.79 190.408L335.732 196.707L318.465 270.256C317.842 272.91 320.46 275.229 323.247 274.491L335.483 271.249C342.011 269.519 347.078 264.678 348.805 258.52L361.474 213.334Z" fill="#EDD5BE"/>
<path d="M361.474 213.334C363.684 205.452 359.97 197.162 352.425 193.13L344.964 189.144C343.159 188.18 340.865 188.74 339.79 190.408L335.732 196.707L318.465 270.256C317.842 272.91 320.46 275.229 323.247 274.491L335.483 271.249C342.011 269.519 347.078 264.678 348.805 258.52L361.474 213.334Z" fill="#EDD5BE"/>
<path d="M322.274 254.054C325.101 256.975 328.441 258.803 332.156 259.214C339.312 260.005 346.416 255.378 351.936 247.372L348.809 258.527C347.082 264.685 342.015 269.526 335.486 271.256L323.251 274.498C320.464 275.236 317.845 272.917 318.469 270.263L322.274 254.054Z" fill="#E2CBB4"/>
<path fill-rule="evenodd" clip-rule="evenodd" d="M347.333 185.237C343.273 183.067 338.11 184.329 335.692 188.082C332.734 192.673 330.598 197.689 329.368 202.928L313.788 269.288C312.386 275.261 318.278 280.478 324.548 278.817L336.784 275.575C344.944 273.413 351.278 267.361 353.437 259.664L366.106 214.478C368.868 204.626 364.226 194.263 354.794 189.223L347.333 185.237ZM340.049 199.211C340.175 198.673 340.394 198.158 340.698 197.687C342.205 195.348 345.423 194.561 347.954 195.914L350.056 197.037C355.715 200.06 358.5 206.279 356.843 212.19L344.174 257.376C342.879 261.994 339.078 265.625 334.182 266.923C329.343 268.205 324.796 264.178 325.878 259.569L340.049 199.211Z" fill="#101419"/>
<path d="M118.898 64.071L210.146 30.5204L303.902 59.3645L336.346 153.205C337.447 166.555 336.861 179.976 334.601 193.204L322.677 251.26C319.525 269.705 312.457 295.124 300.743 310.433C291.682 322.275 280.4 332.564 267.415 340.826L255.446 348.443C244.856 355.182 231.707 357.682 219.047 355.366C213.166 354.29 207.116 354.243 201.216 355.227L200.853 355.287C186.753 357.64 172.228 354.274 161.069 346.069L150.533 338.321C141.51 331.686 133.353 324.126 126.224 315.79C110.179 297.028 99.733 274.796 95.903 251.26L86.3772 192.722C84.2764 179.812 83.7682 166.729 84.862 153.716L118.898 64.071Z" fill="#EDD5BE"/>
<path d="M212.334 354.587C266.949 326.832 309.433 277.848 329.469 218.19L322.677 251.26C319.525 269.705 312.457 295.124 300.743 310.433C291.682 322.275 280.4 332.564 267.415 340.826L255.446 348.443C244.856 355.182 231.707 357.682 219.046 355.366C216.827 354.96 214.584 354.7 212.334 354.587Z" fill="#E2CBB4"/>
<path fill-rule="evenodd" clip-rule="evenodd" d="M210.085 26.1364L311.12 65.2476L341.122 152.877C342.25 166.561 341.649 180.318 339.333 193.877L328.068 259.805C324.804 278.908 316.801 297.079 304.67 312.933C295.287 325.197 283.602 335.852 270.156 344.409L258.187 352.025C246.525 359.446 232.046 362.2 218.104 359.648C212.819 358.681 207.38 358.639 202.078 359.524L201.715 359.584C186.244 362.165 170.307 358.473 158.063 349.469L147.527 341.722C138.217 334.876 129.802 327.076 122.448 318.477C105.894 299.12 95.1169 276.184 91.1655 251.901L81.6397 193.363C79.4864 180.131 78.9655 166.72 80.0867 153.382L119.623 69.0193L210.085 26.1364ZM210.207 34.9045L119.623 69.0193L89.6371 154.05C88.5706 166.737 89.0661 179.494 91.1143 192.08L100.64 250.618C104.349 273.409 114.464 294.936 130.001 313.104C136.903 321.175 144.801 328.496 153.539 334.921L164.075 342.668C174.149 350.076 187.262 353.115 199.991 350.991L200.354 350.93C206.85 349.846 213.513 349.898 219.989 351.083C231.368 353.166 243.187 350.918 252.706 344.861L264.675 337.244C277.197 329.276 288.077 319.354 296.815 307.934C308.112 293.17 315.564 276.249 318.604 258.46L329.868 192.532C332.072 179.634 332.643 166.549 331.57 153.532L304.67 65.2476L210.207 34.9045Z" fill="#101419"/>
<path fill-rule="evenodd" clip-rule="evenodd" d="M211.567 343.268C210.509 343.268 209.651 342.486 209.651 341.521V332.786C209.651 331.821 210.509 331.039 211.567 331.039C212.625 331.039 213.483 331.821 213.483 332.786V341.521C213.483 342.486 212.625 343.268 211.567 343.268Z" fill="#C7B6A5"/>
<path fill-rule="evenodd" clip-rule="evenodd" d="M247.583 272.852C249.72 272.852 251.453 274.585 251.453 276.722C251.453 287.41 242.789 296.074 232.102 296.074H180.821C178.684 296.074 176.951 294.341 176.951 292.203C176.951 290.066 178.684 288.333 180.821 288.333H232.102C238.514 288.333 243.713 283.135 243.713 276.722C243.713 274.585 245.445 272.852 247.583 272.852Z" fill="#101419"/>
<path fill-rule="evenodd" clip-rule="evenodd" d="M205.498 258.441C209.753 261.277 215.297 261.277 219.552 258.441L228.172 252.694C229.493 251.813 231.277 252.17 232.157 253.491C233.037 254.811 232.681 256.595 231.36 257.476L222.74 263.223C216.554 267.346 208.496 267.346 202.31 263.223L193.69 257.476C192.369 256.595 192.013 254.811 192.893 253.491C193.773 252.17 195.557 251.813 196.878 252.694L205.498 258.441Z" fill="#C7B6A5"/>
<circle cx="265.211" cy="204.401" r="34.694" fill="#F8F9FA"/>
<circle cx="265.753" cy="216.383" r="22.2258" fill="#4361FF"/>
<circle cx="265.753" cy="216.383" r="22.2258" fill="url(#paint0_linear_4117_1012)" fill-opacity="0.7"/>
<circle cx="265.753" cy="216.383" r="14.6365" fill="#101419"/>
<path d="M229.991 208.805C232.123 209.096 234.088 207.602 234.379 205.47L235.049 200.556C236.473 190.116 243.191 181.153 252.812 176.858C260.139 173.587 268.478 173.344 275.989 176.177C286.768 180.241 294.363 190.028 295.607 201.473L296.03 205.364C296.263 207.504 298.186 209.05 300.326 208.818C302.466 208.585 304.012 206.662 303.78 204.522L303.357 200.631C301.795 186.258 292.261 173.981 278.739 168.883C269.309 165.327 258.84 165.63 249.634 169.74C237.551 175.135 229.113 186.391 227.325 199.503L226.655 204.416C226.364 206.549 227.858 208.514 229.991 208.805Z" fill="#101419"/>
<path fill-rule="evenodd" clip-rule="evenodd" d="M271.968 211.252C270.91 210.194 270.91 208.478 271.968 207.419L281.726 197.662C282.784 196.603 284.501 196.603 285.559 197.662C286.618 198.72 286.618 200.436 285.559 201.495L275.801 211.252C274.743 212.311 273.027 212.311 271.968 211.252Z" fill="#F8F9FA"/>
<path fill-rule="evenodd" clip-rule="evenodd" d="M270.144 213.077C268.078 211.011 268.078 207.661 270.144 205.595L279.901 195.837C281.968 193.771 285.317 193.771 287.383 195.837C289.45 197.903 289.45 201.253 287.383 203.319L277.626 213.077C275.56 215.143 272.21 215.143 270.144 213.077ZM271.968 207.419C270.91 208.478 270.91 210.194 271.968 211.252C273.027 212.311 274.743 212.311 275.801 211.252L285.559 201.495C286.618 200.436 286.618 198.72 285.559 197.662C284.501 196.603 282.784 196.603 281.726 197.662L271.968 207.419Z" fill="#F8F9FA"/>
<path fill-rule="evenodd" clip-rule="evenodd" d="M228.526 174.844C229.88 177.116 232.82 177.859 235.092 176.505L247.355 169.195C263.481 159.582 283.894 161.065 298.462 172.907C300.514 174.576 303.53 174.265 305.199 172.212C306.867 170.16 306.556 167.144 304.504 165.475C286.816 151.096 262.031 149.295 242.451 160.967L230.187 168.278C227.915 169.632 227.171 172.572 228.526 174.844Z" fill="#101419"/>
<circle cx="161.36" cy="204.401" r="34.694" fill="#F8F9FA"/>
<circle cx="161.902" cy="216.383" r="22.2258" fill="#4361FF"/>
<circle cx="161.902" cy="216.383" r="22.2258" fill="url(#paint1_linear_4117_1012)" fill-opacity="0.7"/>
<circle cx="161.902" cy="216.383" r="14.6365" fill="#101419"/>
<path d="M126.139 208.805C128.272 209.096 130.237 207.602 130.528 205.47L131.198 200.556C132.621 190.116 139.339 181.153 148.961 176.858C156.288 173.587 164.626 173.344 172.138 176.177C182.916 180.241 190.512 190.028 191.756 201.473L192.179 205.364C192.412 207.504 194.335 209.05 196.475 208.818C198.615 208.585 200.161 206.662 199.929 204.522L199.506 200.631C197.943 186.258 188.41 173.981 174.888 168.883C165.458 165.327 154.989 165.63 145.783 169.74C133.699 175.135 125.262 186.391 123.474 199.503L122.804 204.416C122.513 206.549 124.006 208.514 126.139 208.805Z" fill="#101419"/>
<path fill-rule="evenodd" clip-rule="evenodd" d="M168.117 211.252C167.058 210.194 167.058 208.478 168.117 207.419L177.874 197.662C178.933 196.603 180.649 196.603 181.708 197.662C182.766 198.72 182.766 200.436 181.708 201.495L171.95 211.252C170.891 212.311 169.175 212.311 168.117 211.252Z" fill="#F8F9FA"/>
<path fill-rule="evenodd" clip-rule="evenodd" d="M166.292 213.077C164.226 211.011 164.226 207.661 166.292 205.595L176.05 195.837C178.116 193.771 181.466 193.771 183.532 195.837C185.598 197.903 185.598 201.253 183.532 203.319L173.774 213.077C171.708 215.143 168.358 215.143 166.292 213.077ZM168.117 207.419C167.058 208.478 167.058 210.194 168.117 211.252C169.175 212.311 170.891 212.311 171.95 211.252L181.708 201.495C182.766 200.436 182.766 198.72 181.708 197.662C180.649 196.603 178.933 196.603 177.874 197.662L168.117 207.419Z" fill="#F8F9FA"/>
<path fill-rule="evenodd" clip-rule="evenodd" d="M196.351 174.844C194.996 177.116 192.057 177.859 189.785 176.505L177.521 169.195C161.395 159.582 140.982 161.065 126.415 172.907C124.362 174.576 121.346 174.265 119.678 172.212C118.009 170.16 118.32 167.144 120.373 165.475C138.06 151.096 162.846 149.295 182.426 160.967L194.689 168.278C196.961 169.632 197.705 172.572 196.351 174.844Z" fill="#101419"/>
<path d="M77.3544 129.364L87.2918 202.724L102.128 151.367L110.878 122.185C111.92 118.711 113.451 115.404 115.427 112.362C123.785 99.4968 139.038 92.8918 154.139 95.5986L191.948 102.376C195.705 103.049 199.513 103.388 203.329 103.388H234.415C239.095 103.388 243.762 102.878 248.332 101.868L272.677 96.4894C287.57 93.1987 303.055 98.4923 312.816 110.212C316.515 114.652 319.227 119.827 320.775 125.394L325.957 144.039L335.632 202.724C338.213 188.533 342.728 175.632 344.663 163.376L351.106 129.76C351.874 125.758 352.28 121.692 352.261 117.617C352.236 112.118 352.066 106.582 351.163 101.315L347.781 86.4571C346.153 79.3054 343.317 72.4837 339.395 66.2855L328.537 51.1394L335.632 47.2691L312.411 35.0134L288.544 22.1126L296.285 16.3072L269.193 9.21176C269.193 9.21176 250.487 5.34152 235.006 4.69648C219.525 4.05144 204.044 5.34152 204.044 5.34152C204.044 5.34152 186.812 6.73598 181.869 8.21134C175.402 10.1417 164.185 14.7008 158.891 18.8874L140.185 33.0783L136.213 20.1402L115.319 49.6102C110.514 56.3875 107.933 64.4901 107.933 72.7978C107.933 74.5057 106.849 76.0269 105.235 76.5865C91.2543 81.4345 81.0224 93.5433 78.594 108.14L77.5833 114.216C76.7499 119.225 76.6727 124.332 77.3544 129.364Z" fill="#5D473B"/>
<path d="M213.531 0.26515C219.407 0.0203398 227.283 -0.145101 235.194 0.18452C243.189 0.517663 251.933 1.67807 258.612 2.73696C261.966 3.26871 264.83 3.7791 266.858 4.15807C267.872 4.34764 268.68 4.50427 269.235 4.61413C269.513 4.66903 269.728 4.71283 269.875 4.74264C269.949 4.75748 270.005 4.76868 270.044 4.77665C270.064 4.78062 270.079 4.78455 270.09 4.78673C270.095 4.78781 270.099 4.78863 270.102 4.78925C270.104 4.78955 270.105 4.78906 270.106 4.78925L270.107 4.79051C270.106 4.79882 270.078 4.93425 269.618 7.1565L270.108 4.79051C270.185 4.80638 270.262 4.82359 270.338 4.84343L297.429 11.9389C299.105 12.378 300.382 13.7385 300.715 15.4387C301.048 17.139 300.38 18.8804 298.994 19.92L296.895 21.4923L314.558 31.0406H314.557L337.739 43.2762C339.211 44.0527 340.136 45.575 340.147 47.2385C340.158 48.9017 339.255 50.4369 337.795 51.2334L335.181 52.6583L343.065 63.6542L343.211 63.8709C347.407 70.5029 350.442 77.8024 352.184 85.4546L355.565 100.313L355.613 100.551L355.785 101.615C356.603 106.938 356.752 112.403 356.776 117.597L356.774 118.42C356.74 122.53 356.308 126.61 355.541 130.61L349.113 164.136C348.105 170.498 346.44 176.979 344.761 183.458C343.059 190.021 341.33 196.629 340.075 203.531C339.682 205.692 337.791 207.257 335.595 207.239C333.399 207.221 331.534 205.625 331.177 203.458L321.54 145.014L316.424 126.604C315.134 121.962 312.934 117.626 309.954 113.849L309.346 113.102C300.801 102.843 287.324 98.1205 274.272 100.767L273.651 100.898L249.306 106.277C244.416 107.358 239.422 107.903 234.415 107.903H203.329C199.757 107.903 196.19 107.625 192.662 107.074L191.151 106.82L153.342 100.044C140.237 97.6946 127.002 103.299 119.563 114.294L119.214 114.822C117.581 117.335 116.292 120.056 115.381 122.91L115.203 123.482L106.465 152.618L106.466 152.619L91.63 203.977C91.0376 206.028 89.0898 207.384 86.961 207.227C84.9656 207.081 83.3219 205.643 82.8879 203.721L82.8174 203.329L72.8797 129.97C72.1374 124.49 72.2217 118.93 73.1292 113.475L74.1396 107.4L74.2731 106.64C77.1756 90.8662 88.294 77.8184 103.421 72.4391C103.494 63.3215 106.358 54.442 111.635 46.9991L132.53 17.5288L132.724 17.2731C133.737 16.0391 135.337 15.426 136.929 15.6819C138.628 15.955 140.025 17.1703 140.53 18.8151L142.605 25.5742L156.162 15.2901C159.263 12.8562 163.775 10.507 168.103 8.57887C172.536 6.60365 177.139 4.91097 180.578 3.88468L181.166 3.7209C184.278 2.90995 189.841 2.21933 194.325 1.73413C196.821 1.46405 199.156 1.24063 200.866 1.08531C201.722 1.00759 202.423 0.94677 202.911 0.905151C203.155 0.88436 203.346 0.86811 203.476 0.857277C203.542 0.851881 203.592 0.848738 203.626 0.845938C203.643 0.844557 203.657 0.842887 203.665 0.842159C203.668 0.841918 203.671 0.842325 203.673 0.842159L203.674 0.840899C203.677 0.840691 203.68 0.841242 203.684 0.840899C203.693 0.840159 203.707 0.838452 203.723 0.837119C203.756 0.834459 203.803 0.830634 203.865 0.825781C203.988 0.816005 204.168 0.801692 204.401 0.784206C204.868 0.749204 205.548 0.70078 206.409 0.644363C208.132 0.531543 210.588 0.387801 213.531 0.26515ZM112.449 72.7982C112.449 76.319 110.284 79.4615 107.033 80.7352L106.714 80.8524C94.4872 85.0923 85.489 95.5834 83.1538 108.275L83.0479 108.881L82.0375 114.956C81.2782 119.52 81.2073 124.173 81.8284 128.758L88.8923 180.909L97.7894 150.114L97.8032 150.07L106.553 120.889L106.777 120.162C107.933 116.542 109.57 113.091 111.641 109.902L112.085 109.233C121.521 95.2857 138.311 88.1742 154.936 91.1541L192.745 97.9308L194.057 98.1513C197.123 98.6311 200.224 98.8719 203.329 98.8719H234.415C238.767 98.8719 243.108 98.3988 247.358 97.4596L271.702 92.0801L272.478 91.9163C288.78 88.6111 305.612 94.5084 316.286 107.322L317.043 108.255C320.765 112.973 323.513 118.387 325.125 124.185L330.308 142.83L330.366 143.066C330.383 143.145 330.399 143.224 330.412 143.304L336.408 179.672C337.954 173.685 339.347 168.092 340.202 162.672L340.229 162.527L346.672 128.91C347.298 125.641 347.664 122.343 347.734 119.05L347.745 117.639C347.72 112.218 347.55 107.03 346.728 102.18L343.378 87.459C341.874 80.848 339.257 74.541 335.644 68.8045L324.868 53.7708C324.114 52.7194 323.847 51.3947 324.136 50.1336C324.4 48.9781 325.106 47.9766 326.096 47.3405L310.304 39.0066C310.291 38.9997 310.277 38.9923 310.263 38.9852L286.397 26.0844C285.043 25.3524 284.155 23.9809 284.041 22.446C283.927 20.911 284.604 19.4237 285.835 18.5001L286.093 18.3049L268.172 13.6107C268.147 13.6056 268.118 13.5999 268.084 13.593C267.95 13.5659 267.747 13.5255 267.483 13.4734C266.955 13.3691 266.18 13.2182 265.199 13.0349C263.236 12.6681 260.455 12.1718 257.198 11.6554C250.654 10.618 242.304 9.51944 234.818 9.20753C227.248 8.89214 219.643 9.0492 213.908 9.28816C211.047 9.40738 208.664 9.54713 207 9.65603C206.169 9.71045 205.518 9.75655 205.078 9.78958C204.858 9.80608 204.69 9.81983 204.579 9.82863C204.524 9.83301 204.482 9.83653 204.455 9.83871C204.442 9.83977 204.432 9.84073 204.426 9.84123H204.419L204.409 9.84249H204.397C204.39 9.8431 204.379 9.84503 204.363 9.84627C204.332 9.84883 204.284 9.85246 204.222 9.85761C204.098 9.86791 203.914 9.88281 203.678 9.90296C203.204 9.94336 202.52 10.0033 201.682 10.0793C200.007 10.2316 197.726 10.4489 195.296 10.7118C190.544 11.2261 185.784 11.8588 183.568 12.4252L183.16 12.5386C180.131 13.4427 175.892 14.9949 171.778 16.8283C167.852 18.5774 164.349 20.4463 162.121 22.1008L161.692 22.4296L161.621 22.485L142.914 36.6759C141.74 37.5672 140.203 37.8276 138.8 37.3751C137.396 36.9225 136.301 35.813 135.868 34.4032L134.588 30.2369L119.003 52.2211C114.739 58.2351 112.449 65.4261 112.449 72.7982Z" fill="#101419"/>
<path d="M153.919 60.6497C167.224 36.9122 192.833 22.7658 220.01 24.1394C222.49 24.265 224.398 26.3766 224.272 28.8563C224.147 31.3361 222.035 33.2449 219.556 33.1196C195.79 31.9186 173.397 44.2892 161.763 65.0466L156.989 73.5631C155.813 75.661 153.205 76.4501 151.074 75.3937L150.869 75.2866C148.703 74.0725 147.932 71.3321 149.145 69.1662L153.919 60.6497Z" fill="#423027"/>
<path d="M200.107 71.891C214.438 49.5695 239.945 36.255 265.5 37.8966C268.057 38.0611 269.835 40.3399 269.429 42.8415C269.065 45.0824 267.061 46.7654 264.792 46.7306L264.737 44.1467L264.571 46.7218C242.425 45.2993 220.113 56.8689 207.558 76.4251L206.267 78.4371C205.087 80.2746 202.595 81.2148 200.444 80.1492L200.237 80.0396C197.909 78.731 197.553 75.8699 198.816 73.9017L200.107 71.891Z" fill="#423027"/>
<path d="M240.217 75.2047C258.77 56.6515 287.115 52.0513 310.583 63.7855L314.453 65.7219C316.79 66.8899 317.737 69.7302 316.569 72.0664C315.401 74.4026 312.56 75.3497 310.224 74.1817L306.353 72.2466C286.526 62.3332 262.58 66.219 246.906 81.8932C245.059 83.7401 242.064 83.74 240.217 81.8932C238.37 80.0462 238.37 77.0517 240.217 75.2047Z" fill="#423027"/>
<g filter="url(#filter1_d_4117_1012)">
<path fill-rule="evenodd" clip-rule="evenodd" d="M161.451 154C165.767 154 170.05 154.771 174.095 156.276C182.956 159.575 190.178 166.205 194.219 174.753L196.822 180.261C197.614 181.935 198.295 183.654 198.865 185.406L203.073 183.539C206.086 182.202 209.476 181.5 212.923 181.5L213.665 181.511C214.022 181.521 214.378 181.541 214.732 181.566C214.854 181.575 214.975 181.582 215.096 181.593C215.192 181.601 215.287 181.612 215.383 181.621C215.5 181.633 215.618 181.643 215.735 181.656L215.872 181.672C215.946 181.681 216.019 181.692 216.093 181.701C216.238 181.72 216.383 181.738 216.527 181.759C216.612 181.771 216.695 181.785 216.779 181.798C216.927 181.821 217.075 181.844 217.222 181.869C217.323 181.887 217.425 181.906 217.526 181.925C217.65 181.948 217.774 181.971 217.897 181.996C218.011 182.019 218.124 182.044 218.237 182.068C218.352 182.093 218.467 182.119 218.582 182.146C218.693 182.171 218.804 182.197 218.915 182.225C219.035 182.254 219.155 182.285 219.274 182.316C219.384 182.345 219.493 182.375 219.603 182.405C219.712 182.436 219.821 182.468 219.93 182.5C220.043 182.533 220.156 182.567 220.269 182.602C220.393 182.64 220.518 182.681 220.642 182.722C220.73 182.751 220.818 182.78 220.905 182.81C221.027 182.851 221.147 182.894 221.268 182.938C221.376 182.977 221.485 183.016 221.593 183.057C221.694 183.095 221.795 183.134 221.896 183.174C222.004 183.216 222.112 183.259 222.219 183.303C222.321 183.345 222.423 183.39 222.524 183.434C222.639 183.483 222.754 183.532 222.868 183.583C222.959 183.624 223.048 183.666 223.138 183.708C223.248 183.759 223.359 183.809 223.468 183.862C223.672 183.962 223.874 184.065 224.074 184.17L227.032 185.726C227.622 183.863 228.338 182.037 229.178 180.261L231.781 174.753C235.822 166.205 243.043 159.575 251.904 156.276C255.95 154.771 260.231 154 264.548 154H303.347C308.877 154 314.327 155.328 319.237 157.871C323.807 160.238 327.791 163.596 330.896 167.7L332.711 170.097C336.298 174.837 338.934 180.159 340.545 185.772H350C351.105 185.772 352 186.668 352 187.772V192.541C352 193.646 351.105 194.541 350 194.541H345.819C345.294 194.541 344.79 194.748 344.416 195.116L342.368 197.131C342.456 199.426 342.38 201.737 342.134 204.046L341.853 206.671L341.836 206.833L341.805 206.993L340.455 214.089C338.586 223.916 333.936 233.001 327.058 240.265C322.438 245.143 316.92 249.085 310.808 251.875L310.215 252.146C300.219 256.708 289.094 258.206 278.247 256.453L272.466 255.52C260.91 253.652 250.271 248.084 242.15 239.652C237.159 234.471 233.253 228.345 230.659 221.634L227.928 214.567C225.993 209.561 225 204.239 225 198.871C225 196.646 225.171 194.43 225.508 192.243L224.244 191.603C221.033 189.973 217.339 189.06 213.546 188.952L212.786 188.941C209.421 188.941 206.103 189.576 203.104 190.793L200.434 191.876C200.809 194.182 201 196.521 201 198.871C201 204.239 200.007 209.561 198.072 214.567L195.341 221.634C192.747 228.345 188.841 234.471 183.85 239.652C175.728 248.084 165.09 253.652 153.533 255.52L147.752 256.453C136.905 258.206 125.781 256.708 115.785 252.146L115.191 251.875C109.079 249.085 103.561 245.143 98.9414 240.265C92.063 233.001 87.4131 223.916 85.5439 214.089L84.1943 206.993L84.1641 206.833L84.1465 206.671L83.8662 204.046C83.6196 201.737 83.5438 199.426 83.6318 197.132L81.584 195.116C81.2099 194.748 80.7056 194.541 80.1807 194.541H76C75.9311 194.541 75.863 194.538 75.7959 194.531C75.7287 194.524 75.6627 194.513 75.5977 194.5C75.5927 194.499 75.5879 194.497 75.583 194.496C75.5241 194.484 75.466 194.47 75.4092 194.452C75.3996 194.449 75.3903 194.446 75.3809 194.442C75.3305 194.426 75.281 194.408 75.2324 194.388C75.2125 194.379 75.1934 194.369 75.1738 194.36C75.1386 194.344 75.1034 194.329 75.0693 194.311C75.0427 194.297 75.0171 194.281 74.9912 194.266C74.9619 194.248 74.9326 194.232 74.9043 194.213C74.8851 194.2 74.8664 194.187 74.8477 194.174C74.8132 194.15 74.7798 194.124 74.7471 194.098C74.7307 194.084 74.7142 194.071 74.6982 194.058C74.6681 194.032 74.6389 194.005 74.6104 193.978C74.5928 193.961 74.5755 193.943 74.5586 193.926C74.5321 193.898 74.5064 193.87 74.4814 193.841C74.4673 193.824 74.453 193.808 74.4395 193.791C74.4131 193.758 74.3885 193.724 74.3643 193.689C74.3502 193.67 74.3365 193.649 74.3232 193.629C74.3035 193.599 74.2847 193.568 74.2666 193.536C74.2547 193.515 74.2426 193.495 74.2314 193.474C74.2115 193.436 74.1933 193.397 74.1758 193.358C74.1672 193.339 74.1584 193.32 74.1504 193.301C74.1353 193.264 74.1223 193.226 74.1094 193.189C74.1016 193.166 74.0929 193.143 74.0859 193.12C74.0737 193.08 74.0634 193.039 74.0537 192.997C74.0487 192.976 74.0434 192.954 74.0391 192.933C74.0139 192.806 74 192.675 74 192.541V187.772C74 186.668 74.8954 185.772 76 185.772H85.4551C87.066 180.159 89.7017 174.837 93.2891 170.097L95.1025 167.7C98.2083 163.597 102.192 160.238 106.762 157.871C111.672 155.328 117.122 154 122.652 154H161.451ZM122.652 162C118.403 162 114.215 163.02 110.441 164.975C106.93 166.794 103.868 169.374 101.481 172.527L99.668 174.925C93.551 183.007 90.7448 193.117 91.8213 203.196L92.084 205.659L93.4033 212.595C94.9864 220.918 98.9244 228.612 104.75 234.764C108.663 238.896 113.337 242.234 118.514 244.597L119.106 244.867C127.665 248.773 137.189 250.056 146.476 248.556L152.257 247.621C162.103 246.03 171.168 241.286 178.088 234.103C182.34 229.688 185.669 224.468 187.879 218.75L190.61 211.684C192.19 207.597 193 203.253 193 198.871C193 193.618 191.835 188.429 189.59 183.68L186.986 178.172C183.837 171.511 178.209 166.345 171.305 163.774C168.152 162.601 164.815 162 161.451 162H122.652ZM264.548 162C261.184 162 257.848 162.601 254.695 163.774C247.79 166.345 242.163 171.511 239.014 178.172L236.41 183.68C234.165 188.429 233 193.618 233 198.871C233 203.253 233.81 207.597 235.39 211.684L238.121 218.75C240.331 224.468 243.66 229.688 247.912 234.103C254.832 241.286 263.896 246.03 273.742 247.621L279.523 248.556C288.81 250.057 298.334 248.773 306.893 244.867L307.486 244.597C312.663 242.234 317.336 238.895 321.249 234.764C327.075 228.612 331.014 220.918 332.597 212.595L333.915 205.659L334.179 203.196C335.255 193.117 332.449 183.007 326.332 174.925L324.518 172.527C322.131 169.374 319.07 166.794 315.559 164.975C311.785 163.02 307.596 162 303.347 162H264.548Z" fill="url(#paint2_linear_4117_1012)"/>
</g>
<path d="M101.82 220.706L101.673 220.579C100.913 219.986 99.7917 220.028 99.0832 220.706C98.3747 221.384 98.3305 222.456 98.9505 223.183L99.0832 223.324L115.854 239.365C116.61 240.088 117.835 240.088 118.591 239.365C119.347 238.642 119.347 237.47 118.591 236.747L101.82 220.706Z" fill="white" fill-opacity="0.7"/>
<path d="M112.141 220.706L111.994 220.579C111.234 219.986 110.112 220.028 109.404 220.706C108.695 221.384 108.651 222.456 109.271 223.183L109.404 223.324L117.144 230.727C117.9 231.45 119.125 231.45 119.881 230.727C120.637 230.005 120.637 228.833 119.881 228.11L112.141 220.706Z" fill="white" fill-opacity="0.7"/>
</g>
<mask id="mask0_4117_1012" style="mask-type:alpha" maskUnits="userSpaceOnUse" x="10" y="43" width="410" height="409">
<path d="M420 247.5C420 360.442 328.218 452 215 452C101.782 452 10 360.442 10 247.5C10 134.558 101.782 43 215 43C328.218 43 420 134.558 420 247.5Z" fill="#101419"/>
</mask>
<g mask="url(#mask0_4117_1012)">
<g filter="url(#filter2_d_4117_1012)">
<path d="M68.6149 319.239C68.2682 315.46 71.2432 312.2 75.0383 312.2H347.298C351.093 312.2 354.068 315.46 353.721 319.239L342.004 446.957C341.699 450.278 338.915 452.818 335.581 452.818H86.7556C83.4215 452.818 80.6368 450.278 80.3321 446.957L68.6149 319.239Z" fill="#B9C5D4"/>
<path fill-rule="evenodd" clip-rule="evenodd" d="M75.038 303.169H347.298C356.406 303.169 363.546 310.994 362.714 320.064L350.996 447.782C350.265 455.751 343.582 461.849 335.58 461.849H86.7553C78.7534 461.849 72.0701 455.751 71.3391 447.782L59.6218 320.064C58.7897 310.994 65.9296 303.169 75.038 303.169ZM75.038 312.2C71.2429 312.2 68.2679 315.46 68.6146 319.239L80.3319 446.957C80.6365 450.278 83.4212 452.818 86.7553 452.818H335.58C338.914 452.818 341.699 450.278 342.004 446.957L353.721 319.239C354.068 315.46 351.093 312.2 347.298 312.2H75.038Z" fill="#101419"/>
<path d="M74.8828 312.2C71.1444 312.2 68.1889 315.367 68.4479 319.097L68.6573 322.113C69.3992 319.39 71.8901 317.36 74.8828 317.36H347.453C350.446 317.36 352.937 319.39 353.678 322.113L353.888 319.097C354.147 315.367 351.191 312.2 347.453 312.2H74.8828Z" fill="#E6EAEF"/>
<path fill-rule="evenodd" clip-rule="evenodd" d="M101.903 356.449C103.093 355.789 103.898 354.52 103.898 353.063V347.161C103.898 345.023 102.165 343.291 100.028 343.291H93.8997C91.7622 343.291 90.0294 345.023 90.0294 347.161V353.063C90.0294 354.52 90.8347 355.789 92.0245 356.449C90.8347 357.11 90.0294 358.379 90.0294 359.836V365.738C90.0294 367.875 91.7622 369.608 93.8997 369.608H100.028C102.165 369.608 103.898 367.875 103.898 365.738V359.836C103.898 358.379 103.093 357.11 101.903 356.449ZM104.982 349.547C104.982 347.41 106.715 345.677 108.852 345.677H112.787C113.208 345.677 113.613 345.744 113.992 345.869C115.204 345.396 116.489 345.258 117.657 345.258C119.506 345.258 121.404 345.473 123.022 346.213C124.332 346.796 125.373 347.696 126.123 348.818C126.916 347.818 127.931 347 129.166 346.427C131.055 345.541 133.336 345.258 135.673 345.258C137.992 345.258 140.27 345.536 142.148 346.427C143.084 346.857 143.896 347.427 144.58 348.112C145.118 346.761 146.38 345.816 147.844 345.691C148.001 344.314 148.887 343.112 150.184 342.564L153.925 340.983C155.12 340.478 156.489 340.606 157.57 341.323C158.651 342.04 159.301 343.251 159.301 344.548V345.677H161.72C163.858 345.677 165.59 347.41 165.59 349.547V352.869C165.59 355.007 163.858 356.74 161.72 356.74H159.301V359.391C159.913 359.338 160.698 359.246 161.676 359.103C162.788 358.94 163.916 359.269 164.767 360.004C165.618 360.739 166.106 361.808 166.106 362.932V366.319C166.106 368.27 164.653 369.917 162.716 370.159C160.436 370.444 158.536 370.608 157.108 370.608C155.334 370.608 153.431 370.393 151.825 369.568C150.207 368.737 148.958 367.392 148.329 365.602L148.318 365.572C147.842 364.18 147.691 362.591 147.691 360.997V356.74H147.521C147.535 357.133 147.542 357.531 147.542 357.933C147.542 360.416 147.288 362.753 146.534 364.665C145.718 366.767 144.237 368.421 142.162 369.4C142.144 369.408 142.126 369.417 142.107 369.425C140.239 370.271 137.989 370.544 135.673 370.544C133.357 370.544 131.107 370.271 129.239 369.425C129.221 369.417 129.202 369.408 129.184 369.4C128.489 369.072 127.861 368.669 127.3 368.199C126.649 369.421 125.363 370.253 123.881 370.253H119.947C118.331 370.253 116.946 369.263 116.367 367.856C115.787 369.263 114.403 370.253 112.787 370.253H108.852C106.715 370.253 104.982 368.521 104.982 366.383V349.547ZM119.052 353.079C119.133 353.133 119.205 353.193 119.269 353.256C119.721 353.687 119.947 354.493 119.947 355.675V366.383H123.881V355.74C123.881 355.714 123.881 355.689 123.881 355.664C123.876 353.959 123.682 352.652 123.301 351.741C122.935 350.795 122.312 350.128 121.43 349.741C121.109 349.592 120.738 349.47 120.317 349.376C119.582 349.211 118.696 349.128 117.657 349.128C117.36 349.128 117.081 349.14 116.818 349.165C116.758 349.17 116.699 349.176 116.64 349.183C116.089 349.248 115.617 349.369 115.224 349.547C115.115 349.597 115.012 349.651 114.915 349.709C114.406 350.014 113.91 350.528 113.427 351.25C113.42 351.26 113.414 351.27 113.407 351.28C113.285 351.463 113.165 351.66 113.045 351.87H112.787V349.547H108.852V366.383H112.787V357.643C112.787 356.916 112.823 356.282 112.896 355.74C112.935 355.448 112.985 355.182 113.045 354.944C113.074 354.826 113.107 354.716 113.142 354.611C113.4 353.88 113.808 353.364 114.367 353.063C114.502 352.993 114.649 352.931 114.809 352.878C115.304 352.712 115.92 352.624 116.658 352.613C116.711 352.612 116.764 352.611 116.818 352.611C117.122 352.611 117.402 352.625 117.657 352.653C118.261 352.718 118.726 352.86 119.052 353.079ZM127.752 355.812C127.7 356.46 127.675 357.168 127.675 357.933C127.675 358.691 127.7 359.393 127.752 360.036C127.856 361.346 128.067 362.419 128.384 363.255C128.863 364.441 129.644 365.305 130.728 365.847C130.763 365.865 130.799 365.882 130.835 365.899C130.986 365.967 131.145 366.031 131.312 366.09C131.331 366.097 131.351 366.104 131.37 366.111C132.461 366.486 133.895 366.673 135.673 366.673C137.437 366.673 138.862 366.489 139.949 366.12C139.969 366.113 139.988 366.107 140.008 366.1C140.185 366.038 140.352 365.971 140.511 365.899C140.519 365.895 140.528 365.891 140.536 365.887C141.663 365.349 142.46 364.471 142.93 363.255C143.424 362.008 143.672 360.234 143.672 357.933C143.672 355.611 143.424 353.826 142.93 352.579C142.479 351.39 141.725 350.534 140.669 350.009C140.617 349.984 140.564 349.959 140.511 349.935C140.38 349.872 140.243 349.813 140.099 349.757C140.047 349.737 139.994 349.718 139.94 349.698C138.867 349.318 137.445 349.128 135.673 349.128C133.865 349.128 132.414 349.326 131.318 349.722C131.304 349.727 131.29 349.732 131.276 349.737C131.11 349.798 130.952 349.864 130.803 349.935C130.756 349.956 130.71 349.978 130.664 350.001C129.618 350.525 128.858 351.384 128.384 352.579C128.067 353.415 127.856 354.493 127.752 355.812ZM132.709 353.335C132.39 353.654 132.141 354.079 131.964 354.611C131.728 355.385 131.609 356.492 131.609 357.933C131.609 359.352 131.728 360.449 131.964 361.223C132.144 361.746 132.396 362.166 132.721 362.481C132.864 362.619 133.02 362.737 133.19 362.835C133.77 363.158 134.598 363.319 135.673 363.319C136.748 363.319 137.565 363.158 138.124 362.835C138.297 362.739 138.455 362.624 138.597 362.49C138.933 362.174 139.184 361.751 139.35 361.223C139.608 360.449 139.737 359.352 139.737 357.933C139.737 356.492 139.608 355.385 139.35 354.611C139.188 354.08 138.944 353.655 138.62 353.337C138.472 353.191 138.306 353.067 138.124 352.966C137.565 352.622 136.748 352.45 135.673 352.45C134.598 352.45 133.77 352.622 133.19 352.966C133.015 353.067 132.855 353.19 132.709 353.335ZM135.787 359.448C135.83 359.109 135.867 358.617 135.867 357.933C135.867 357.187 135.825 356.665 135.777 356.321C135.744 356.321 135.709 356.32 135.673 356.32C135.633 356.32 135.595 356.321 135.559 356.322C135.515 356.684 135.48 357.209 135.48 357.933C135.48 358.598 135.511 359.093 135.551 359.448C135.59 359.448 135.63 359.449 135.673 359.449C135.713 359.449 135.75 359.449 135.787 359.448ZM151.561 360.997C151.561 362.395 151.701 363.502 151.98 364.319C152.26 365.114 152.797 365.717 153.593 366.125C153.817 366.24 154.072 366.34 154.357 366.422C154.56 366.481 154.779 366.532 155.012 366.575C155.035 366.579 155.057 366.583 155.079 366.587C155.663 366.687 156.339 366.738 157.108 366.738C157.434 366.738 157.799 366.727 158.205 366.706C159.272 366.65 160.616 366.521 162.236 366.319V362.932C162.095 362.953 161.956 362.973 161.82 362.992C160.356 363.196 159.205 363.305 158.366 363.318C158.311 363.319 158.257 363.319 158.205 363.319C157.785 363.319 157.42 363.299 157.108 363.26C156.812 363.222 156.565 363.167 156.366 363.093C156.168 363.016 156.003 362.916 155.873 362.794C155.749 362.678 155.655 362.541 155.592 362.384C155.485 362.061 155.431 361.556 155.431 360.868V352.869H161.72V349.547H155.431V344.548L151.69 346.129V349.547H148.174L147.4 352.869H151.561V360.997ZM182.663 373.284C181.906 374.021 180.881 374.416 179.826 374.379C177.746 374.306 175.752 373.996 174.043 373.259L174.017 373.248C172.193 372.445 170.744 371.146 169.693 369.484C168.699 367.913 168.016 365.949 167.517 363.812L167.516 363.807C167.21 362.487 166.986 361.235 166.858 360.061C166.73 358.879 166.674 357.457 166.674 355.837C166.674 354.216 166.73 352.795 166.858 351.613C166.986 350.438 167.21 349.186 167.516 347.866L167.517 347.862C168.016 345.725 168.699 343.76 169.693 342.189C170.757 340.508 172.231 339.21 174.075 338.415C175.779 337.679 177.759 337.368 179.824 337.294C180.88 337.256 181.905 337.652 182.662 338.389C183.419 339.126 183.842 340.14 183.832 341.197L183.8 344.809C183.782 346.874 182.145 348.561 180.082 348.641C179.689 348.657 179.403 348.693 179.204 348.732C179.178 348.737 179.155 348.743 179.133 348.747C179.02 349.025 178.862 349.526 178.706 350.341C178.504 351.492 178.372 352.434 178.299 353.181L178.298 353.19C178.228 353.887 178.188 354.764 178.188 355.837C178.188 356.905 178.228 357.795 178.298 358.519C178.371 359.246 178.504 360.179 178.706 361.333C178.861 362.147 179.02 362.649 179.133 362.926C179.155 362.931 179.178 362.936 179.204 362.941C179.403 362.98 179.689 363.016 180.082 363.032C182.145 363.113 183.782 364.8 183.8 366.865L183.832 370.477C183.842 371.533 183.419 372.547 182.663 373.284ZM177.064 366.255C176.706 366.051 176.392 365.772 176.121 365.418C176.007 365.269 175.9 365.107 175.802 364.932C175.442 364.255 175.145 363.308 174.91 362.091C174.91 362.089 174.91 362.088 174.91 362.087C174.906 362.068 174.902 362.048 174.899 362.029C174.711 360.957 174.572 360.024 174.482 359.232C174.47 359.119 174.458 359.008 174.447 358.901C174.361 358.019 174.318 356.998 174.318 355.837C174.318 354.676 174.361 353.665 174.447 352.805C174.459 352.687 174.471 352.566 174.485 352.442C174.575 351.638 174.712 350.706 174.899 349.644C174.902 349.625 174.906 349.606 174.91 349.587C174.91 349.585 174.91 349.584 174.91 349.582C175.145 348.365 175.442 347.418 175.802 346.742C175.9 346.566 176.007 346.404 176.121 346.255C176.398 345.893 176.721 345.609 177.09 345.404C177.164 345.363 177.24 345.325 177.318 345.29C177.963 344.989 178.833 344.817 179.93 344.774L179.962 341.162C179.904 341.164 179.846 341.166 179.789 341.169C178.311 341.233 177.077 341.438 176.086 341.783C175.986 341.818 175.889 341.854 175.794 341.891C175.776 341.898 175.759 341.905 175.741 341.913C175.696 341.931 175.652 341.949 175.608 341.968C174.512 342.441 173.63 343.205 172.964 344.258C172.832 344.465 172.705 344.69 172.583 344.931C172.569 344.957 172.556 344.984 172.543 345.01C172.058 345.984 171.639 347.228 171.286 348.741C171.27 348.811 171.254 348.881 171.239 348.95C171.235 348.967 171.231 348.983 171.227 349C170.979 350.103 170.806 351.113 170.706 352.031C170.692 352.158 170.679 352.29 170.667 352.427C170.667 352.43 170.666 352.433 170.666 352.436C170.585 353.359 170.545 354.492 170.545 355.837C170.545 357.196 170.586 358.341 170.669 359.269C170.669 359.272 170.67 359.275 170.67 359.278C170.681 359.404 170.693 359.525 170.706 359.642C170.806 360.56 170.979 361.57 171.227 362.673C171.231 362.69 171.235 362.706 171.239 362.723C171.254 362.792 171.27 362.862 171.286 362.932C171.639 364.445 172.058 365.689 172.543 366.663C172.556 366.69 172.569 366.716 172.583 366.742C172.705 366.984 172.832 367.208 172.964 367.415C173.63 368.469 174.501 369.232 175.576 369.705C175.629 369.728 175.682 369.75 175.736 369.772C175.754 369.779 175.771 369.786 175.789 369.793C175.886 369.83 175.985 369.867 176.086 369.901C177.075 370.24 178.309 370.441 179.789 370.505C179.846 370.507 179.904 370.509 179.962 370.511L179.93 366.899C178.833 366.856 177.963 366.684 177.318 366.383C177.239 366.348 177.163 366.31 177.088 366.268C177.08 366.264 177.072 366.259 177.064 366.255ZM190.851 362.223L187.593 359.868L189.206 357.61L191.367 355.675L188.658 355.288L185.884 354.385L187.013 350.87L189.98 351.741L192.141 352.998L191.593 350.322V347.451H195.689V350.322L195.173 352.966L197.366 351.741L200.365 350.805L201.526 354.45L198.688 355.353L195.979 355.675L198.011 357.546L199.752 359.9L196.592 362.255L194.721 359.739L193.657 357.514L192.592 359.771L190.851 362.223ZM193.707 364.835C194.308 365.508 195.13 365.952 196.03 366.084C197.046 366.233 198.08 365.972 198.904 365.359L202.064 363.004C202.479 362.695 202.814 362.319 203.066 361.902C203.539 362.108 204.061 362.223 204.61 362.223H207.254V365.319C207.254 367.456 208.987 369.189 211.125 369.189H214.93C217.068 369.189 218.801 367.456 218.801 365.319V362.223H221.445C221.99 362.223 222.509 362.11 222.979 361.907C223.238 362.324 223.581 362.699 224.003 363.005L227.261 365.359C228.097 365.964 229.14 366.209 230.158 366.041C231.019 365.899 231.801 365.472 232.384 364.835C232.986 365.508 233.807 365.952 234.707 366.084C235.724 366.233 236.757 365.972 237.581 365.359L240.742 363.004C242.328 361.822 242.751 359.656 241.79 357.98C242.583 357.623 243.238 357.008 243.641 356.227C244.113 355.315 244.203 354.253 243.891 353.275L242.73 349.631C242.118 347.71 240.146 346.598 238.213 347.025C238.001 345.088 236.359 343.581 234.366 343.581H230.27C228.261 343.581 226.61 345.111 226.418 347.068C224.518 346.702 222.609 347.807 222.005 349.687L221.562 351.065C221.524 351.064 221.485 351.063 221.445 351.063H218.801V348.161C218.801 346.023 217.068 344.29 214.93 344.29H211.125C208.987 344.29 207.254 346.023 207.254 348.161V351.063H204.61C204.576 351.063 204.543 351.064 204.51 351.065L204.053 349.631C203.441 347.71 201.469 346.598 199.536 347.025C199.323 345.088 197.682 343.581 195.689 343.581H191.593C189.584 343.581 187.933 345.111 187.741 347.068C185.84 346.702 183.931 347.807 183.328 349.687L182.199 353.202C181.595 355.085 182.508 357.092 184.261 357.899C183.252 359.603 183.692 361.824 185.326 363.005L188.584 365.359C189.42 365.964 190.463 366.209 191.481 366.041C192.342 365.899 193.124 365.472 193.707 364.835ZM204.61 354.934V358.352H211.125V365.319H214.93V358.352H221.445V354.934H214.93V348.161H211.125V354.934H204.61ZM226.271 359.868L229.528 362.223L231.27 359.771L232.334 357.514L233.398 359.739L235.269 362.255L238.43 359.9L236.688 357.546L234.656 355.675L237.365 355.353L240.203 354.45L239.042 350.805L236.043 351.741L233.85 352.966L234.366 350.322V347.451H230.27V350.322L230.818 352.998L228.657 351.741L225.69 350.87L224.561 354.385L227.335 355.288L230.044 355.675L227.883 357.61L226.271 359.868ZM242.255 366.865C242.274 364.8 243.91 363.113 245.974 363.032C246.366 363.016 246.646 362.98 246.834 362.943C246.859 362.938 246.881 362.933 246.901 362.928C247.008 362.695 247.183 362.204 247.349 361.333C247.551 360.179 247.684 359.247 247.757 358.519C247.827 357.795 247.867 356.905 247.867 355.837C247.867 354.764 247.827 353.887 247.757 353.19L247.756 353.181C247.683 352.433 247.551 351.49 247.349 350.337C247.182 349.468 247.008 348.978 246.901 348.745C246.881 348.74 246.859 348.736 246.834 348.731C246.646 348.693 246.366 348.657 245.974 348.641C243.91 348.561 242.274 346.874 242.255 344.809L242.223 341.197C242.213 340.14 242.636 339.126 243.393 338.389C244.15 337.652 245.175 337.256 246.231 337.294C248.296 337.368 250.276 337.679 251.98 338.415C253.825 339.21 255.299 340.508 256.362 342.189C257.356 343.76 258.039 345.725 258.538 347.862L258.539 347.866C258.845 349.186 259.069 350.438 259.197 351.613C259.325 352.795 259.381 354.216 259.381 355.837C259.381 357.457 259.325 358.879 259.197 360.061C259.069 361.235 258.845 362.487 258.539 363.807L258.538 363.812C258.039 365.949 257.356 367.913 256.362 369.484C255.301 371.162 253.832 372.457 251.993 373.253C250.293 373.998 248.299 374.306 246.229 374.379C245.174 374.416 244.149 374.021 243.393 373.284C242.636 372.547 242.213 371.533 242.223 370.477L242.255 366.865ZM255.46 352.424C255.46 352.426 255.46 352.428 255.46 352.429L255.389 352.436C255.389 352.433 255.388 352.43 255.388 352.427L255.459 352.42C255.459 352.421 255.459 352.423 255.46 352.424ZM253.506 344.997L253.639 344.926C253.632 344.912 253.624 344.898 253.617 344.884C254.249 346.023 254.647 347.355 254.917 348.707C254.917 348.707 254.917 348.707 254.917 348.707C254.931 348.779 254.945 348.851 254.959 348.923L254.969 348.975C255.165 350.094 255.317 351.113 255.418 352.023C255.433 352.16 255.447 352.293 255.46 352.424M253.465 344.917C253.479 344.943 253.492 344.97 253.506 344.997L253.465 344.917ZM253.465 344.917C253.345 344.681 253.22 344.461 253.092 344.258C252.425 343.205 251.544 342.441 250.447 341.968C250.409 341.952 250.371 341.936 250.332 341.92C250.286 341.901 250.238 341.882 250.19 341.864C250.118 341.836 250.044 341.809 249.969 341.783C248.978 341.438 247.744 341.233 246.267 341.169C246.209 341.166 246.151 341.164 246.093 341.162L246.125 344.774C247.222 344.817 248.082 344.989 248.705 345.29C248.793 345.328 248.878 345.37 248.96 345.415C249.333 345.621 249.654 345.904 249.921 346.264C250.03 346.41 250.13 346.57 250.221 346.742C250.602 347.418 250.91 348.365 251.145 349.582C251.145 349.584 251.145 349.585 251.146 349.587L251 349.621C250.999 349.619 250.999 349.618 250.999 349.616C251.003 349.634 251.007 349.652 251.011 349.67M251.012 349.672L251.157 349.644L251.012 349.672ZM250.333 369.754C250.371 369.738 250.409 369.722 250.447 369.705C251.544 369.232 252.425 368.469 253.092 367.415C253.22 367.212 253.345 366.992 253.465 366.756C253.479 366.73 253.492 366.703 253.506 366.677C253.993 365.7 254.414 364.452 254.769 362.932M250.221 364.932C250.602 364.255 250.91 363.308 251.145 362.091C251.145 362.089 251.145 362.088 251.146 362.087C251.149 362.068 251.153 362.048 251.157 362.029C251.345 360.957 251.483 360.024 251.573 359.232C251.586 359.119 251.597 359.008 251.608 358.901C251.694 358.019 251.737 356.998 251.737 355.837C251.737 354.676 251.694 353.665 251.608 352.805M250.221 364.932C250.13 365.104 250.03 365.263 249.921 365.409C249.654 365.769 249.333 366.052 248.96 366.258C248.952 366.262 248.944 366.267 248.936 366.271C248.861 366.312 248.784 366.349 248.705 366.383C248.082 366.684 247.222 366.856 246.125 366.899L246.093 370.511C246.151 370.509 246.209 370.507 246.267 370.505C247.758 370.44 248.992 370.237 249.969 369.893C250.044 369.867 250.118 369.839 250.191 369.811C250.239 369.792 250.286 369.773 250.333 369.754M100.028 359.836V365.738H93.8997V359.836H100.028ZM100.028 347.161V353.063H93.8997V347.161H100.028Z" fill="#101419"/>
<path d="M93.8996 359.836H100.028V365.738H93.8996V359.836ZM93.8996 347.161H100.028V353.063H93.8996V347.161Z" fill="#FFD27F"/>
<path d="M108.852 349.547H112.787V351.87H113.045C113.647 350.816 114.27 350.096 114.915 349.709C115.56 349.322 116.474 349.128 117.657 349.128C119.291 349.128 120.549 349.332 121.43 349.741C122.312 350.128 122.935 350.795 123.301 351.741C123.688 352.665 123.881 353.998 123.881 355.74V366.383H119.947V355.675C119.947 354.493 119.721 353.686 119.269 353.256C118.839 352.826 118.022 352.611 116.818 352.611C115.765 352.611 114.948 352.762 114.367 353.063C113.808 353.364 113.4 353.88 113.142 354.611C112.905 355.321 112.787 356.331 112.787 357.643V366.383H108.852V349.547Z" fill="#FFD27F"/>
<path d="M135.673 366.673C133.587 366.673 131.975 366.415 130.835 365.899C129.696 365.362 128.879 364.48 128.384 363.255C127.911 362.008 127.675 360.234 127.675 357.933C127.675 355.611 127.911 353.826 128.384 352.579C128.879 351.332 129.685 350.451 130.803 349.935C131.943 349.397 133.566 349.128 135.673 349.128C137.78 349.128 139.393 349.397 140.511 349.935C141.65 350.451 142.457 351.332 142.93 352.579C143.424 353.826 143.672 355.611 143.672 357.933C143.672 360.234 143.424 362.008 142.93 363.255C142.457 364.48 141.65 365.362 140.511 365.899C139.371 366.415 137.759 366.673 135.673 366.673ZM131.609 357.933C131.609 359.352 131.728 360.449 131.964 361.223C132.222 361.975 132.631 362.513 133.19 362.835C133.77 363.158 134.598 363.319 135.673 363.319C136.748 363.319 137.565 363.158 138.124 362.835C138.705 362.513 139.113 361.975 139.35 361.223C139.608 360.449 139.737 359.352 139.737 357.933C139.737 356.492 139.608 355.385 139.35 354.611C139.113 353.837 138.705 353.289 138.124 352.966C137.565 352.622 136.748 352.45 135.673 352.45C134.598 352.45 133.77 352.622 133.19 352.966C132.631 353.289 132.222 353.837 131.964 354.611C131.728 355.385 131.609 356.492 131.609 357.933Z" fill="#FFD27F"/>
<path d="M157.108 366.738C155.56 366.738 154.388 366.534 153.593 366.125C152.797 365.717 152.26 365.114 151.98 364.319C151.7 363.502 151.561 362.395 151.561 360.997V352.869H147.4L148.174 349.547H151.69V346.129L155.431 344.548V349.547H161.72V352.869H155.431V360.868C155.431 361.556 155.485 362.061 155.592 362.384C155.721 362.706 155.979 362.943 156.366 363.093C156.775 363.244 157.388 363.319 158.205 363.319C159.129 363.319 160.473 363.19 162.236 362.932V366.319C160 366.598 158.291 366.738 157.108 366.738Z" fill="#FFD27F"/>
<path d="M179.962 370.511C178.135 370.447 176.672 370.178 175.576 369.705C174.501 369.232 173.63 368.469 172.963 367.415C172.297 366.362 171.738 364.867 171.286 362.932C171.007 361.728 170.813 360.631 170.706 359.642C170.598 358.653 170.545 357.385 170.545 355.837C170.545 354.289 170.598 353.02 170.706 352.031C170.813 351.042 171.007 349.945 171.286 348.741C171.738 346.806 172.297 345.312 172.963 344.258C173.63 343.205 174.512 342.441 175.608 341.968C176.705 341.495 178.156 341.226 179.962 341.162L179.93 344.774C178.833 344.817 177.963 344.989 177.317 345.29C176.694 345.57 176.189 346.054 175.802 346.742C175.436 347.43 175.135 348.397 174.899 349.644C174.684 350.87 174.533 351.923 174.447 352.805C174.361 353.665 174.318 354.676 174.318 355.837C174.318 356.998 174.361 358.019 174.447 358.901C174.533 359.761 174.684 360.803 174.899 362.029C175.135 363.276 175.436 364.244 175.802 364.932C176.189 365.62 176.694 366.104 177.317 366.383C177.963 366.684 178.833 366.856 179.93 366.899L179.962 370.511Z" fill="#FFD27F"/>
<path d="M194.721 359.739L193.657 357.514L192.592 359.771L190.851 362.223L187.593 359.868L189.206 357.61L191.367 355.675L188.658 355.288L185.884 354.385L187.013 350.87L189.98 351.741L192.141 352.998L191.593 350.322V347.451H195.689V350.322L195.173 352.966L197.366 351.741L200.365 350.805L201.526 354.45L198.688 355.353L195.979 355.675L198.011 357.546L199.752 359.9L196.592 362.255L194.721 359.739Z" fill="#FFD27F"/>
<path d="M211.125 358.352H204.61V354.934H211.125V348.161H214.93V354.934H221.445V358.352H214.93V365.319H211.125V358.352Z" fill="#FFD27F"/>
<path d="M233.398 359.739L232.334 357.514L231.27 359.771L229.528 362.223L226.271 359.868L227.883 357.61L230.044 355.675L227.335 355.288L224.561 354.385L225.69 350.87L228.657 351.741L230.818 352.998L230.27 350.322V347.451H234.366V350.322L233.85 352.966L236.043 351.741L239.042 350.805L240.203 354.45L237.365 355.353L234.656 355.675L236.688 357.546L238.43 359.9L235.269 362.255L233.398 359.739Z" fill="#FFD27F"/>
<path d="M246.125 366.899C247.222 366.856 248.082 366.684 248.705 366.383C249.35 366.104 249.856 365.62 250.221 364.932C250.608 364.244 250.92 363.276 251.156 362.029C251.371 360.803 251.522 359.761 251.608 358.901C251.694 358.019 251.737 356.998 251.737 355.837C251.737 354.676 251.694 353.665 251.608 352.805C251.522 351.923 251.371 350.87 251.156 349.644C250.92 348.397 250.608 347.43 250.221 346.742C249.856 346.054 249.35 345.57 248.705 345.29C248.082 344.989 247.222 344.817 246.125 344.774L246.093 341.162C247.899 341.226 249.35 341.495 250.447 341.968C251.544 342.441 252.425 343.205 253.092 344.258C253.758 345.312 254.317 346.806 254.769 348.741C255.048 349.945 255.242 351.042 255.349 352.031C255.457 353.02 255.511 354.289 255.511 355.837C255.511 357.385 255.457 358.653 255.349 359.642C255.242 360.631 255.048 361.728 254.769 362.932C254.317 364.867 253.758 366.362 253.092 367.415C252.425 368.469 251.544 369.232 250.447 369.705C249.372 370.178 247.921 370.447 246.093 370.511L246.125 366.899Z" fill="#FFD27F"/>
</g>
</g>
<defs>
<filter id="filter0_d_4117_1012" x="47.6915" y="0" width="327.205" height="376.578" filterUnits="userSpaceOnUse" color-interpolation-filters="sRGB">
<feFlood flood-opacity="0" result="BackgroundImageFix"/>
<feColorMatrix in="SourceAlpha" type="matrix" values="0 0 0 0 0 0 0 0 0 0 0 0 0 0 0 0 0 0 127 0" result="hardAlpha"/>
<feOffset dy="8"/>
<feGaussianBlur stdDeviation="4"/>
<feComposite in2="hardAlpha" operator="out"/>
<feColorMatrix type="matrix" values="0 0 0 0 0 0 0 0 0 0 0 0 0 0 0 0 0 0 0.25 0"/>
<feBlend mode="normal" in2="BackgroundImageFix" result="effect1_dropShadow_4117_1012"/>
<feBlend mode="normal" in="SourceGraphic" in2="effect1_dropShadow_4117_1012" result="shape"/>
</filter>
<filter id="filter1_d_4117_1012" x="70" y="154" width="286" height="111.166" filterUnits="userSpaceOnUse" color-interpolation-filters="sRGB">
<feFlood flood-opacity="0" result="BackgroundImageFix"/>
<feColorMatrix in="SourceAlpha" type="matrix" values="0 0 0 0 0 0 0 0 0 0 0 0 0 0 0 0 0 0 127 0" result="hardAlpha"/>
<feOffset dy="4"/>
<feGaussianBlur stdDeviation="2"/>
<feComposite in2="hardAlpha" operator="out"/>
<feColorMatrix type="matrix" values="0 0 0 0 0 0 0 0 0 0 0 0 0 0 0 0 0 0 0.25 0"/>
<feBlend mode="normal" in2="BackgroundImageFix" result="effect1_dropShadow_4117_1012"/>
<feBlend mode="normal" in="SourceGraphic" in2="effect1_dropShadow_4117_1012" result="shape"/>
</filter>
<filter id="filter2_d_4117_1012" x="55.5558" y="303.169" width="311.224" height="166.68" filterUnits="userSpaceOnUse" color-interpolation-filters="sRGB">
<feFlood flood-opacity="0" result="BackgroundImageFix"/>
<feColorMatrix in="SourceAlpha" type="matrix" values="0 0 0 0 0 0 0 0 0 0 0 0 0 0 0 0 0 0 127 0" result="hardAlpha"/>
<feOffset dy="4"/>
<feGaussianBlur stdDeviation="2"/>
<feComposite in2="hardAlpha" operator="out"/>
<feColorMatrix type="matrix" values="0 0 0 0 0 0 0 0 0 0 0 0 0 0 0 0 0 0 0.25 0"/>
<feBlend mode="normal" in2="BackgroundImageFix" result="effect1_dropShadow_4117_1012"/>
<feBlend mode="normal" in="SourceGraphic" in2="effect1_dropShadow_4117_1012" result="shape"/>
</filter>
<linearGradient id="paint0_linear_4117_1012" x1="265.753" y1="194.157" x2="265.753" y2="238.609" gradientUnits="userSpaceOnUse">
<stop stop-color="#283A99"/>
<stop offset="1" stop-color="#4361FF"/>
</linearGradient>
<linearGradient id="paint1_linear_4117_1012" x1="161.902" y1="194.157" x2="161.902" y2="238.609" gradientUnits="userSpaceOnUse">
<stop stop-color="#283A99"/>
<stop offset="1" stop-color="#4361FF"/>
</linearGradient>
<linearGradient id="paint2_linear_4117_1012" x1="213" y1="154" x2="213" y2="257.166" gradientUnits="userSpaceOnUse">
<stop stop-color="#565B52"/>
<stop offset="1" stop-color="#33372F"/>
</linearGradient>
</defs>
</svg>
