<svg viewBox="0 0 430 462" fill="none" xmlns="http://www.w3.org/2000/svg" aria-label="a illustration of myself with an iphone, earpods and a code editor">
<path opacity="0.8" d="M420 247.5C420 360.442 328.218 452 215 452C101.782 452 10 360.442 10 247.5C10 134.558 101.782 42.9999 215 42.9999C328.218 42.9999 420 134.558 420 247.5Z" fill="var(--glyph-color)"/>
<path opacity="0.5" d="M420 247.5C420 134.558 328.218 42.9999 215 42.9999C101.782 42.9999 10 134.558 10 247.5C10 360.442 101.782 452 215 452C328.218 452 420 360.442 420 247.5ZM430 247.5C430 365.988 333.718 462 215 462C96.2818 462 0 365.988 0 247.5C0 129.012 96.2818 32.9999 215 32.9999C333.718 32.9999 430 129.012 430 247.5Z" fill="var(--glyph-color)"/>
<g filter="url(#filter0_d_4130_2)">
<path d="M61.0371 213.028C58.9637 205.114 62.8198 196.881 70.434 192.965L77.9624 189.092C79.7836 188.156 82.0682 188.751 83.1138 190.435L87.0624 196.795L103.058 270.597C103.635 273.26 100.977 275.539 98.2032 274.758L86.0253 271.331C79.5275 269.502 74.5446 264.584 72.9246 258.401L61.0371 213.028Z" fill="#EDD5BE"/>
<path d="M61.0371 213.028C58.9637 205.114 62.8198 196.881 70.434 192.965L77.9624 189.092C79.7836 188.156 82.0682 188.751 83.1138 190.435L87.0624 196.795L103.058 270.597C103.635 273.26 100.977 275.539 98.2032 274.758L86.0253 271.331C79.5275 269.502 74.5446 264.584 72.9246 258.401L61.0371 213.028Z" fill="#EDD5BE"/>
<path d="M99.5326 254.332C96.6554 257.21 93.2842 258.987 89.5625 259.341C82.3945 260.023 75.3712 255.289 69.9897 247.2L72.9244 258.401C74.5443 264.584 79.5272 269.502 86.025 271.331L98.203 274.758C100.977 275.539 103.635 273.26 103.058 270.597L99.5326 254.332Z" fill="#E2CBB4"/>
<path fill-rule="evenodd" clip-rule="evenodd" d="M75.6609 185.15C79.7585 183.042 84.8989 184.383 87.2515 188.172C90.1297 192.808 92.1792 197.854 93.3188 203.112L107.751 269.7C109.05 275.693 103.069 280.821 96.8276 279.064L84.6497 275.637C76.5275 273.351 70.2988 267.204 68.2739 259.474L56.3864 214.102C53.7947 204.209 58.6148 193.918 68.1325 189.022L75.6609 185.15ZM82.7034 199.233C82.5864 198.693 82.376 198.175 82.0805 197.699C80.6142 195.338 77.4104 194.502 74.8565 195.816L72.7353 196.907C67.0247 199.844 64.1327 206.019 65.6877 211.954L77.5751 257.327C78.7901 261.965 82.5273 265.653 87.4007 267.025C92.217 268.38 96.8327 264.424 95.8303 259.799L82.7034 199.233Z" fill="black"/>
<path d="M361.474 213.334C363.684 205.452 359.97 197.162 352.425 193.13L344.964 189.144C343.159 188.18 340.865 188.74 339.79 190.408L335.732 196.707L318.465 270.256C317.842 272.91 320.46 275.229 323.247 274.491L335.483 271.249C342.011 269.519 347.079 264.678 348.805 258.52L361.474 213.334Z" fill="#EDD5BE"/>
<path d="M361.474 213.334C363.684 205.452 359.97 197.162 352.425 193.13L344.964 189.144C343.159 188.18 340.865 188.74 339.79 190.408L335.732 196.707L318.465 270.256C317.842 272.91 320.46 275.229 323.247 274.491L335.483 271.249C342.011 269.519 347.079 264.678 348.805 258.52L361.474 213.334Z" fill="#EDD5BE"/>
<path d="M322.274 254.054C325.101 256.975 328.441 258.803 332.156 259.214C339.312 260.005 346.416 255.378 351.936 247.372L348.809 258.527C347.082 264.685 342.015 269.526 335.487 271.256L323.251 274.498C320.464 275.236 317.846 272.917 318.469 270.263L322.274 254.054Z" fill="#E2CBB4"/>
<path fill-rule="evenodd" clip-rule="evenodd" d="M347.333 185.237C343.273 183.067 338.11 184.329 335.692 188.082C332.734 192.673 330.598 197.689 329.368 202.928L313.788 269.288C312.386 275.261 318.278 280.478 324.548 278.817L336.784 275.575C344.944 273.413 351.278 267.361 353.437 259.664L366.106 214.478C368.868 204.626 364.226 194.263 354.794 189.223L347.333 185.237ZM340.049 199.211C340.175 198.673 340.394 198.158 340.698 197.687C342.205 195.348 345.423 194.561 347.954 195.914L350.056 197.037C355.715 200.06 358.5 206.279 356.843 212.19L344.174 257.376C342.879 261.994 339.078 265.625 334.182 266.923C329.343 268.205 324.796 264.178 325.878 259.569L340.049 199.211Z" fill="black"/>
<path d="M80.2478 225.451C90.1221 222.441 100.568 228.005 103.578 237.879C106.589 247.753 101.025 258.199 91.1509 261.21L95.9534 276.96C97.4588 281.897 94.6768 287.12 89.7396 288.626C84.8024 290.131 79.5797 287.349 78.0743 282.412L67.8202 248.782C64.8094 238.908 70.3734 228.462 80.2478 225.451Z" fill="white"/>
<path d="M100.231 238.899C97.7835 230.874 89.2935 226.352 81.2682 228.799C73.2431 231.247 68.7211 239.736 71.1679 247.761L81.422 281.391L81.5174 281.677C82.5682 284.585 85.7272 286.19 88.7187 285.278C91.807 284.337 93.5467 281.069 92.6051 277.981L86.7819 258.883L90.1298 257.862C98.1552 255.415 102.678 246.925 100.231 238.899ZM106.926 236.858C110.154 247.442 105.082 258.578 95.4386 263.273L99.3007 275.939C101.37 282.725 97.5465 289.905 90.7603 291.974C84.0803 294.011 77.0196 290.337 74.8269 283.749L74.7263 283.432L64.4722 249.803C60.8979 238.079 67.5036 225.678 79.2266 222.104C90.9498 218.529 103.352 225.135 106.926 236.858Z" fill="black"/>
<path d="M341.679 225.451C331.805 222.441 321.36 228.005 318.349 237.879C315.338 247.753 320.902 258.199 330.776 261.21L325.974 276.96C324.468 281.897 327.25 287.12 332.188 288.626C337.125 290.131 342.348 287.349 343.853 282.412L354.107 248.782C357.118 238.908 351.554 228.462 341.679 225.451Z" fill="white"/>
<path d="M321.697 238.899C324.144 230.874 332.634 226.352 340.659 228.799C348.684 231.247 353.206 239.736 350.759 247.761L340.505 281.391L340.41 281.677C339.359 284.585 336.2 286.19 333.209 285.278C330.12 284.337 328.381 281.069 329.322 277.981L335.145 258.883L331.797 257.862C323.772 255.415 319.249 246.925 321.697 238.899ZM315.001 236.858C311.774 247.442 316.845 258.578 326.489 263.273L322.627 275.939C320.557 282.725 324.381 289.905 331.167 291.974C337.847 294.011 344.908 290.337 347.1 283.749L347.201 283.432L357.455 249.803C361.029 238.079 354.424 225.678 342.701 222.104C330.977 218.529 318.576 225.135 315.001 236.858Z" fill="black"/>
<path d="M118.898 64.071L210.146 30.5204L303.902 59.3645L336.346 153.205C337.446 166.555 336.861 179.976 334.601 193.204L322.677 251.26C319.525 269.705 312.457 295.124 300.743 310.433C291.682 322.275 280.4 332.564 267.415 340.826L255.446 348.443C244.856 355.182 231.707 357.682 219.047 355.366C213.166 354.29 207.116 354.243 201.216 355.227L200.853 355.287C186.753 357.64 172.228 354.274 161.069 346.069L150.533 338.321C141.509 331.686 133.353 324.126 126.224 315.79C110.179 297.028 99.733 274.796 95.9029 251.26L86.3771 192.722C84.2764 179.812 83.7682 166.729 84.862 153.716L118.898 64.071Z" fill="#EDD5BE"/>
<path d="M212.334 354.587C266.949 326.832 309.433 277.848 329.469 218.19L322.677 251.26C319.525 269.705 312.457 295.124 300.743 310.433C291.682 322.275 280.4 332.564 267.415 340.826L255.446 348.443C244.856 355.182 231.707 357.682 219.046 355.366C216.827 354.96 214.584 354.7 212.334 354.587Z" fill="#E2CBB4"/>
<path fill-rule="evenodd" clip-rule="evenodd" d="M210.085 26.1364L311.12 65.2476L341.122 152.877C342.25 166.561 341.649 180.318 339.333 193.877L328.068 259.805C324.804 278.908 316.801 297.079 304.67 312.933C295.287 325.197 283.602 335.852 270.156 344.409L258.187 352.025C246.525 359.446 232.046 362.2 218.104 359.648C212.819 358.681 207.38 358.639 202.078 359.524L201.715 359.584C186.244 362.165 170.307 358.473 158.063 349.469L147.527 341.722C138.217 334.876 129.802 327.076 122.448 318.477C105.894 299.12 95.117 276.184 91.1655 251.901L81.6397 193.363C79.4865 180.131 78.9656 166.72 80.0867 153.382L119.623 69.0193L210.085 26.1364ZM210.207 34.9045L119.623 69.0193L89.6371 154.05C88.5706 166.737 89.0661 179.494 91.1144 192.08L100.64 250.618C104.349 273.409 114.464 294.936 130.001 313.104C136.903 321.175 144.801 328.496 153.539 334.921L164.075 342.668C174.149 350.076 187.262 353.115 199.991 350.991L200.354 350.93C206.85 349.846 213.513 349.898 219.989 351.083C231.368 353.166 243.187 350.918 252.706 344.861L264.675 337.244C277.197 329.276 288.077 319.354 296.815 307.934C308.112 293.17 315.564 276.249 318.604 258.46L329.868 192.532C332.072 179.634 332.643 166.549 331.57 153.532L304.67 65.2476L210.207 34.9045Z" fill="black"/>
<path fill-rule="evenodd" clip-rule="evenodd" d="M211.567 343.268C210.509 343.268 209.651 342.486 209.651 341.521V332.786C209.651 331.821 210.509 331.039 211.567 331.039C212.625 331.039 213.483 331.821 213.483 332.786V341.521C213.483 342.486 212.625 343.268 211.567 343.268Z" fill="#C7B6A5"/>
<path fill-rule="evenodd" clip-rule="evenodd" d="M247.583 272.852C249.72 272.852 251.453 274.585 251.453 276.722C251.453 287.41 242.789 296.074 232.102 296.074H180.821C178.684 296.074 176.951 294.341 176.951 292.203C176.951 290.066 178.684 288.333 180.821 288.333H232.102C238.514 288.333 243.713 283.135 243.713 276.722C243.713 274.585 245.445 272.852 247.583 272.852Z" fill="black"/>
<path fill-rule="evenodd" clip-rule="evenodd" d="M205.498 258.441C209.753 261.277 215.297 261.277 219.552 258.441L228.172 252.694C229.493 251.813 231.277 252.17 232.157 253.491C233.037 254.811 232.681 256.595 231.36 257.476L222.74 263.223C216.554 267.346 208.496 267.346 202.311 263.223L193.69 257.476C192.369 256.595 192.013 254.811 192.893 253.491C193.773 252.17 195.557 251.813 196.878 252.694L205.498 258.441Z" fill="#C7B6A5"/>
<circle cx="265.211" cy="204.401" r="34.694" fill="white"/>
<circle cx="270.753" cy="215.383" r="22.2258" fill="#4361FF"/>
<circle cx="270.753" cy="215.383" r="22.2258" fill="url(#paint0_linear_4130_2)" fill-opacity="0.7"/>
<circle cx="270.753" cy="215.383" r="14.6365" fill="black"/>
<path d="M229.991 208.805C232.123 209.096 234.088 207.602 234.379 205.47L235.049 200.556C236.473 190.116 243.191 181.153 252.812 176.858C260.139 173.587 268.478 173.344 275.989 176.177C286.768 180.241 294.363 190.028 295.607 201.473L296.03 205.364C296.263 207.504 298.186 209.05 300.326 208.818C302.466 208.585 304.013 206.662 303.78 204.522L303.357 200.631C301.795 186.258 292.261 173.981 278.739 168.883C269.309 165.327 258.84 165.63 249.634 169.74C237.551 175.135 229.113 186.391 227.325 199.503L226.655 204.416C226.365 206.549 227.858 208.514 229.991 208.805Z" fill="black"/>
<path fill-rule="evenodd" clip-rule="evenodd" d="M276.968 210.252C275.91 209.194 275.91 207.478 276.968 206.419L286.726 196.662C287.784 195.603 289.501 195.603 290.559 196.662C291.618 197.72 291.618 199.436 290.559 200.495L280.801 210.252C279.743 211.311 278.027 211.311 276.968 210.252Z" fill="white"/>
<path fill-rule="evenodd" clip-rule="evenodd" d="M275.144 212.077C273.078 210.011 273.078 206.661 275.144 204.595L284.901 194.837C286.968 192.771 290.317 192.771 292.383 194.837C294.45 196.903 294.45 200.253 292.383 202.319L282.626 212.077C280.56 214.143 277.21 214.143 275.144 212.077ZM276.968 206.419C275.91 207.478 275.91 209.194 276.968 210.252C278.027 211.311 279.743 211.311 280.801 210.252L290.559 200.495C291.618 199.436 291.618 197.72 290.559 196.662C289.501 195.603 287.784 195.603 286.726 196.662L276.968 206.419Z" fill="white"/>
<path fill-rule="evenodd" clip-rule="evenodd" d="M228.526 174.844C229.88 177.116 232.82 177.859 235.092 176.505L247.355 169.195C263.481 159.582 283.894 161.065 298.462 172.907C300.514 174.576 303.53 174.265 305.199 172.212C306.867 170.16 306.556 167.144 304.504 165.475C286.816 151.096 262.031 149.295 242.451 160.967L230.187 168.278C227.915 169.632 227.171 172.572 228.526 174.844Z" fill="black"/>
<circle cx="161.36" cy="204.401" r="34.694" fill="white"/>
<circle cx="166.902" cy="215.383" r="22.2258" fill="#4361FF"/>
<circle cx="166.902" cy="215.383" r="22.2258" fill="url(#paint1_linear_4130_2)" fill-opacity="0.7"/>
<circle cx="166.902" cy="215.383" r="14.6365" fill="black"/>
<path d="M126.139 208.805C128.272 209.096 130.237 207.602 130.528 205.47L131.198 200.556C132.621 190.116 139.339 181.153 148.961 176.858C156.288 173.587 164.626 173.344 172.138 176.177C182.916 180.241 190.512 190.028 191.756 201.473L192.179 205.364C192.412 207.504 194.335 209.05 196.475 208.818C198.615 208.585 200.161 206.662 199.928 204.522L199.506 200.631C197.943 186.258 188.41 173.981 174.888 168.883C165.458 165.327 154.989 165.63 145.783 169.74C133.699 175.135 125.262 186.391 123.474 199.503L122.804 204.416C122.513 206.549 124.006 208.514 126.139 208.805Z" fill="black"/>
<path fill-rule="evenodd" clip-rule="evenodd" d="M173.117 210.252C172.058 209.194 172.058 207.478 173.117 206.419L182.874 196.662C183.933 195.603 185.649 195.603 186.708 196.662C187.766 197.72 187.766 199.436 186.708 200.495L176.95 210.252C175.891 211.311 174.175 211.311 173.117 210.252Z" fill="white"/>
<path fill-rule="evenodd" clip-rule="evenodd" d="M171.292 212.077C169.226 210.011 169.226 206.661 171.292 204.595L181.05 194.837C183.116 192.771 186.466 192.771 188.532 194.837C190.598 196.903 190.598 200.253 188.532 202.319L178.774 212.077C176.708 214.143 173.358 214.143 171.292 212.077ZM173.117 206.419C172.058 207.478 172.058 209.194 173.117 210.252C174.175 211.311 175.891 211.311 176.95 210.252L186.708 200.495C187.766 199.436 187.766 197.72 186.708 196.662C185.649 195.603 183.933 195.603 182.874 196.662L173.117 206.419Z" fill="white"/>
<path fill-rule="evenodd" clip-rule="evenodd" d="M196.351 174.844C194.996 177.116 192.057 177.859 189.785 176.505L177.521 169.195C161.395 159.582 140.982 161.065 126.415 172.907C124.362 174.576 121.346 174.265 119.678 172.212C118.009 170.16 118.32 167.144 120.373 165.475C138.06 151.096 162.846 149.295 182.426 160.967L194.689 168.278C196.961 169.632 197.705 172.572 196.351 174.844Z" fill="black"/>
<path d="M77.3544 129.364L87.2918 202.724L102.128 151.367L110.878 122.185C111.92 118.711 113.451 115.404 115.427 112.362C123.785 99.4968 139.038 92.8918 154.139 95.5986L191.948 102.376C195.705 103.049 199.513 103.388 203.329 103.388H234.415C239.095 103.388 243.762 102.878 248.332 101.868L272.677 96.4894C287.57 93.1987 303.055 98.4923 312.816 110.212C316.515 114.652 319.227 119.827 320.775 125.394L325.957 144.039L335.632 202.724C338.213 188.533 342.728 175.632 344.663 163.376L351.106 129.76C351.874 125.758 352.28 121.692 352.261 117.617C352.236 112.118 352.066 106.582 351.163 101.315L347.781 86.4571C346.153 79.3054 343.317 72.4837 339.395 66.2855L328.537 51.1394L335.632 47.2691L312.411 35.0134L288.544 22.1126L296.285 16.3072L269.193 9.21176C269.193 9.21176 250.487 5.34152 235.006 4.69648C219.525 4.05144 204.044 5.34152 204.044 5.34152C204.044 5.34152 186.812 6.73598 181.869 8.21134C175.402 10.1417 164.185 14.7008 158.891 18.8874L140.185 33.0783L136.213 20.1402L115.319 49.6102C110.514 56.3875 107.933 64.4901 107.933 72.7978C107.933 74.5057 106.849 76.0269 105.235 76.5865C91.2543 81.4345 81.0224 93.5433 78.594 108.14L77.5833 114.216C76.7499 119.225 76.6727 124.332 77.3544 129.364Z" fill="#5D473B"/>
<path d="M213.531 0.26515C219.407 0.0203398 227.283 -0.145101 235.194 0.18452C243.189 0.517663 251.933 1.67807 258.612 2.73696C261.966 3.26871 264.83 3.7791 266.858 4.15807C267.872 4.34764 268.68 4.50427 269.235 4.61413C269.513 4.66903 269.728 4.71283 269.875 4.74264C269.949 4.75748 270.005 4.76868 270.044 4.77665C270.064 4.78062 270.079 4.78455 270.089 4.78673C270.095 4.78781 270.099 4.78863 270.102 4.78925C270.104 4.78955 270.105 4.78906 270.106 4.78925L270.107 4.79051C270.106 4.79882 270.078 4.93425 269.618 7.1565L270.108 4.79051C270.185 4.80638 270.262 4.82359 270.338 4.84343L297.429 11.9389C299.105 12.378 300.382 13.7385 300.715 15.4387C301.048 17.139 300.38 18.8804 298.994 19.92L296.895 21.4923L314.558 31.0406H314.557L337.739 43.2762C339.21 44.0527 340.135 45.575 340.147 47.2385C340.158 48.9017 339.255 50.4369 337.795 51.2334L335.181 52.6583L343.065 63.6542L343.211 63.8709C347.407 70.5029 350.442 77.8024 352.183 85.4546L355.565 100.313L355.613 100.551L355.785 101.615C356.603 106.938 356.752 112.403 356.776 117.597L356.774 118.42C356.74 122.53 356.308 126.61 355.541 130.61L349.113 164.136C348.105 170.498 346.44 176.979 344.76 183.458C343.059 190.021 341.33 196.629 340.075 203.531C339.682 205.692 337.791 207.257 335.595 207.239C333.399 207.221 331.534 205.625 331.177 203.458L321.54 145.014L316.424 126.604C315.134 121.962 312.934 117.626 309.953 113.849L309.346 113.102C300.801 102.843 287.324 98.1205 274.272 100.767L273.651 100.898L249.306 106.277C244.416 107.358 239.422 107.903 234.414 107.903H203.329C199.756 107.903 196.19 107.625 192.662 107.074L191.151 106.82L153.342 100.044C140.237 97.6946 127.002 103.299 119.563 114.294L119.214 114.822C117.581 117.335 116.292 120.056 115.381 122.91L115.203 123.482L106.465 152.618L106.466 152.619L91.6299 203.977C91.0376 206.028 89.0897 207.384 86.9609 207.227C84.9655 207.081 83.3219 205.643 82.8879 203.721L82.8173 203.329L72.8797 129.97C72.1374 124.49 72.2216 118.93 73.1291 113.475L74.1395 107.4L74.273 106.64C77.1755 90.8662 88.2939 77.8184 103.421 72.4391C103.494 63.3215 106.358 54.442 111.635 46.9991L132.53 17.5288L132.724 17.2731C133.737 16.0391 135.337 15.426 136.929 15.6819C138.628 15.955 140.025 17.1703 140.53 18.8151L142.605 25.5742L156.162 15.2901C159.263 12.8562 163.775 10.507 168.103 8.57887C172.536 6.60365 177.139 4.91097 180.577 3.88468L181.166 3.7209C184.277 2.90995 189.841 2.21933 194.325 1.73413C196.821 1.46405 199.156 1.24063 200.866 1.08531C201.722 1.00759 202.423 0.94677 202.911 0.905151C203.155 0.88436 203.346 0.86811 203.476 0.857277C203.541 0.851881 203.592 0.848738 203.626 0.845938C203.643 0.844557 203.656 0.842887 203.665 0.842159C203.668 0.841918 203.671 0.842325 203.673 0.842159L203.674 0.840899C203.677 0.840691 203.68 0.841242 203.684 0.840899C203.693 0.840159 203.707 0.838452 203.723 0.837119C203.756 0.834459 203.803 0.830634 203.864 0.825781C203.988 0.816005 204.168 0.801692 204.401 0.784206C204.868 0.749204 205.548 0.70078 206.409 0.644363C208.132 0.531543 210.588 0.387801 213.531 0.26515ZM112.449 72.7982C112.449 76.319 110.284 79.4615 107.033 80.7352L106.714 80.8524C94.4871 85.0923 85.4889 95.5834 83.1537 108.275L83.0479 108.881L82.0375 114.956C81.2782 119.52 81.2073 124.173 81.8283 128.758L88.8923 180.909L97.7893 150.114L97.8032 150.07L106.553 120.889L106.777 120.162C107.933 116.542 109.57 113.091 111.641 109.902L112.085 109.233C121.521 95.2857 138.311 88.1742 154.936 91.1541L192.745 97.9308L194.057 98.1513C197.123 98.6311 200.224 98.8719 203.329 98.8719H234.414C238.767 98.8719 243.108 98.3988 247.358 97.4596L271.702 92.0801L272.478 91.9163C288.78 88.6111 305.612 94.5084 316.285 107.322L317.043 108.255C320.765 112.973 323.513 118.387 325.125 124.185L330.308 142.83L330.365 143.066C330.383 143.145 330.399 143.224 330.412 143.304L336.408 179.672C337.954 173.685 339.346 168.092 340.202 162.672L340.229 162.527L346.672 128.91C347.298 125.641 347.664 122.343 347.734 119.05L347.745 117.639C347.72 112.218 347.55 107.03 346.728 102.18L343.378 87.459C341.874 80.848 339.257 74.541 335.644 68.8045L324.868 53.7708C324.114 52.7194 323.847 51.3947 324.136 50.1336C324.4 48.9781 325.106 47.9766 326.096 47.3405L310.304 39.0066C310.29 38.9997 310.277 38.9923 310.263 38.9852L286.397 26.0844C285.043 25.3524 284.155 23.9809 284.041 22.446C283.927 20.911 284.604 19.4237 285.835 18.5001L286.093 18.3049L268.172 13.6107C268.147 13.6056 268.117 13.5999 268.084 13.593C267.95 13.5659 267.747 13.5255 267.483 13.4734C266.955 13.3691 266.179 13.2182 265.199 13.0349C263.236 12.6681 260.455 12.1718 257.197 11.6554C250.654 10.618 242.303 9.51944 234.818 9.20753C227.248 8.89214 219.643 9.0492 213.908 9.28816C211.047 9.40738 208.664 9.54713 207 9.65603C206.169 9.71045 205.518 9.75655 205.078 9.78958C204.858 9.80608 204.69 9.81983 204.579 9.82863C204.524 9.83301 204.482 9.83653 204.455 9.83871C204.442 9.83977 204.432 9.84073 204.426 9.84123H204.419L204.409 9.84249H204.397C204.39 9.8431 204.379 9.84503 204.363 9.84627C204.332 9.84883 204.284 9.85246 204.222 9.85761C204.098 9.86791 203.914 9.88281 203.678 9.90296C203.204 9.94336 202.52 10.0033 201.682 10.0793C200.007 10.2316 197.726 10.4489 195.296 10.7118C190.544 11.2261 185.784 11.8588 183.568 12.4252L183.16 12.5386C180.131 13.4427 175.892 14.9949 171.777 16.8283C167.852 18.5774 164.349 20.4463 162.121 22.1008L161.692 22.4296L161.621 22.485L142.914 36.6759C141.74 37.5672 140.203 37.8276 138.8 37.3751C137.396 36.9225 136.301 35.813 135.868 34.4032L134.588 30.2369L119.003 52.2211C114.739 58.2351 112.449 65.4261 112.449 72.7982Z" fill="black"/>
<path d="M153.919 60.6497C167.224 36.9122 192.833 22.7658 220.01 24.1394C222.49 24.265 224.398 26.3766 224.272 28.8563C224.147 31.3361 222.035 33.2449 219.556 33.1196C195.79 31.9186 173.397 44.2892 161.763 65.0466L156.989 73.5631C155.813 75.661 153.205 76.4501 151.074 75.3937L150.869 75.2866C148.703 74.0725 147.932 71.3321 149.145 69.1662L153.919 60.6497Z" fill="#423027"/>
<path d="M200.107 71.891C214.438 49.5695 239.945 36.255 265.5 37.8966C268.057 38.0611 269.835 40.3399 269.429 42.8415C269.065 45.0824 267.061 46.7654 264.792 46.7306L264.737 44.1467L264.571 46.7218C242.425 45.2993 220.113 56.8689 207.558 76.4251L206.267 78.4371C205.087 80.2746 202.595 81.2148 200.444 80.1492L200.237 80.0396C197.909 78.731 197.553 75.8699 198.816 73.9017L200.107 71.891Z" fill="#423027"/>
<path d="M240.217 75.2047C258.77 56.6515 287.115 52.0513 310.583 63.7855L314.453 65.7219C316.79 66.8899 317.737 69.7302 316.569 72.0664C315.401 74.4026 312.56 75.3497 310.224 74.1817L306.353 72.2466C286.526 62.3332 262.58 66.219 246.906 81.8932C245.059 83.7401 242.064 83.74 240.217 81.8932C238.37 80.0462 238.37 77.0517 240.217 75.2047Z" fill="#423027"/>
<g filter="url(#filter1_d_4130_2)">
<path fill-rule="evenodd" clip-rule="evenodd" d="M161.451 154C165.767 154 170.05 154.771 174.095 156.276C182.956 159.575 190.178 166.205 194.219 174.753L196.822 180.261C197.614 181.935 198.295 183.654 198.865 185.406L203.073 183.539C206.086 182.202 209.476 181.5 212.923 181.5L213.665 181.511C214.022 181.521 214.378 181.541 214.732 181.566C214.854 181.575 214.975 181.582 215.096 181.593C215.192 181.601 215.287 181.612 215.383 181.621C215.5 181.632 215.618 181.643 215.735 181.656L215.872 181.672C215.946 181.68 216.019 181.692 216.093 181.701C216.238 181.719 216.383 181.738 216.527 181.759C216.612 181.771 216.695 181.785 216.779 181.798C216.927 181.821 217.075 181.844 217.222 181.869C217.323 181.887 217.425 181.906 217.526 181.925C217.65 181.948 217.774 181.971 217.897 181.996C218.011 182.019 218.124 182.044 218.237 182.068C218.352 182.093 218.467 182.119 218.582 182.145C218.693 182.171 218.804 182.197 218.915 182.225C219.035 182.254 219.155 182.285 219.274 182.316C219.384 182.345 219.493 182.375 219.603 182.405C219.712 182.436 219.821 182.468 219.93 182.5C220.043 182.533 220.156 182.567 220.269 182.601C220.393 182.64 220.518 182.681 220.642 182.722C220.73 182.751 220.818 182.78 220.905 182.809C221.027 182.851 221.147 182.894 221.268 182.937C221.376 182.977 221.485 183.016 221.593 183.057C221.694 183.095 221.795 183.134 221.896 183.174C222.004 183.216 222.112 183.258 222.219 183.303C222.321 183.345 222.423 183.39 222.524 183.434C222.639 183.483 222.754 183.532 222.868 183.583C222.959 183.624 223.048 183.666 223.138 183.708C223.248 183.759 223.359 183.809 223.468 183.862C223.672 183.962 223.874 184.065 224.074 184.17L227.032 185.725C227.622 183.863 228.338 182.036 229.178 180.261L231.781 174.753C235.822 166.205 243.043 159.575 251.904 156.276C255.95 154.771 260.231 154 264.548 154H303.347C308.877 154 314.327 155.328 319.237 157.871C323.807 160.238 327.791 163.596 330.896 167.7L332.711 170.097C336.298 174.837 338.934 180.159 340.545 185.772H350C351.105 185.772 352 186.668 352 187.772V192.541C352 193.645 351.105 194.541 350 194.541H345.819C345.294 194.541 344.79 194.748 344.416 195.116L342.368 197.131C342.456 199.426 342.38 201.736 342.134 204.046L341.853 206.671L341.836 206.833L341.805 206.993L340.455 214.089C338.586 223.916 333.936 233.001 327.058 240.265C322.438 245.143 316.92 249.085 310.808 251.875L310.215 252.145C300.219 256.708 289.094 258.206 278.247 256.453L272.466 255.519C260.91 253.652 250.271 248.083 242.15 239.652C237.159 234.471 233.253 228.344 230.659 221.634L227.928 214.567C225.993 209.56 225 204.239 225 198.871C225 196.646 225.171 194.43 225.508 192.243L224.244 191.602C221.033 189.973 217.339 189.06 213.546 188.952L212.786 188.941C209.421 188.941 206.103 189.575 203.104 190.793L200.434 191.876C200.809 194.182 201 196.521 201 198.871C201 204.239 200.007 209.56 198.072 214.567L195.341 221.634C192.747 228.344 188.841 234.471 183.85 239.652C175.728 248.083 165.09 253.652 153.533 255.519L147.752 256.453C136.905 258.206 125.781 256.707 115.785 252.145L115.191 251.875C109.079 249.085 103.561 245.143 98.9414 240.265C92.063 233.001 87.4131 223.916 85.5439 214.089L84.1943 206.993L84.1641 206.833L84.1465 206.671L83.8662 204.046C83.6196 201.737 83.5438 199.426 83.6318 197.132L81.584 195.116C81.2099 194.748 80.7056 194.541 80.1807 194.541H76C75.9311 194.541 75.863 194.538 75.7959 194.531C75.7287 194.524 75.6627 194.513 75.5977 194.5C75.5927 194.499 75.5879 194.497 75.583 194.496C75.5241 194.484 75.466 194.47 75.4092 194.452C75.3996 194.449 75.3903 194.445 75.3809 194.442C75.3305 194.426 75.281 194.408 75.2324 194.388C75.2125 194.379 75.1934 194.369 75.1738 194.36C75.1386 194.344 75.1034 194.328 75.0693 194.31C75.0427 194.296 75.0171 194.281 74.9912 194.266C74.9619 194.248 74.9326 194.231 74.9043 194.213C74.8851 194.2 74.8664 194.187 74.8477 194.174C74.8132 194.149 74.7798 194.124 74.7471 194.098C74.7307 194.084 74.7142 194.071 74.6982 194.058C74.6681 194.032 74.6389 194.005 74.6104 193.977C74.5928 193.96 74.5755 193.943 74.5586 193.926C74.5321 193.898 74.5064 193.87 74.4814 193.841C74.4673 193.824 74.453 193.808 74.4395 193.791C74.4131 193.758 74.3885 193.724 74.3643 193.689C74.3502 193.669 74.3365 193.649 74.3232 193.629C74.3035 193.598 74.2847 193.568 74.2666 193.536C74.2547 193.515 74.2426 193.495 74.2314 193.474C74.2115 193.436 74.1933 193.397 74.1758 193.358C74.1672 193.339 74.1584 193.32 74.1504 193.301C74.1353 193.264 74.1223 193.226 74.1094 193.188C74.1016 193.166 74.0929 193.143 74.0859 193.12C74.0737 193.08 74.0634 193.038 74.0537 192.997C74.0487 192.976 74.0434 192.954 74.0391 192.933C74.0139 192.806 74 192.675 74 192.541V187.772C74 186.668 74.8954 185.772 76 185.772H85.4551C87.066 180.159 89.7017 174.837 93.2891 170.097L95.1025 167.7C98.2083 163.596 102.192 160.238 106.762 157.871C111.672 155.328 117.122 154 122.652 154H161.451ZM122.652 162C118.403 162 114.215 163.02 110.441 164.975C106.93 166.793 103.868 169.374 101.481 172.527L99.668 174.925C93.551 183.007 90.7448 193.117 91.8213 203.196L92.084 205.659L93.4033 212.595C94.9864 220.918 98.9244 228.612 104.75 234.764C108.663 238.895 113.337 242.234 118.514 244.597L119.106 244.867C127.665 248.773 137.189 250.056 146.476 248.556L152.257 247.621C162.103 246.03 171.168 241.286 178.088 234.102C182.34 229.687 185.669 224.468 187.879 218.75L190.61 211.684C192.19 207.597 193 203.253 193 198.871C193 193.618 191.835 188.429 189.59 183.68L186.986 178.172C183.837 171.511 178.209 166.345 171.305 163.774C168.152 162.601 164.815 162 161.451 162H122.652ZM264.548 162C261.184 162 257.848 162.601 254.695 163.774C247.79 166.345 242.163 171.511 239.014 178.172L236.41 183.68C234.165 188.429 233 193.618 233 198.871C233 203.253 233.81 207.597 235.39 211.684L238.121 218.75C240.331 224.468 243.66 229.687 247.912 234.102C254.832 241.286 263.896 246.03 273.742 247.621L279.523 248.556C288.81 250.056 298.334 248.773 306.893 244.867L307.486 244.597C312.663 242.234 317.336 238.895 321.249 234.764C327.075 228.612 331.014 220.918 332.597 212.595L333.915 205.659L334.179 203.196C335.255 193.117 332.449 183.007 326.332 174.925L324.518 172.527C322.131 169.374 319.07 166.793 315.559 164.975C311.785 163.02 307.596 162 303.347 162H264.548Z" fill="url(#paint2_linear_4130_2)"/>
</g>
<path d="M101.82 220.706L101.673 220.579C100.913 219.986 99.7918 220.028 99.0833 220.706C98.3748 221.384 98.3306 222.456 98.9506 223.183L99.0833 223.324L115.854 239.365C116.61 240.088 117.835 240.088 118.591 239.365C119.347 238.642 119.347 237.47 118.591 236.747L101.82 220.706Z" fill="white" fill-opacity="0.7"/>
<path d="M112.141 220.706L111.994 220.579C111.234 219.986 110.112 220.028 109.404 220.706C108.695 221.383 108.651 222.456 109.271 223.183L109.404 223.323L117.144 230.727C117.9 231.45 119.125 231.45 119.881 230.727C120.637 230.004 120.637 228.833 119.881 228.11L112.141 220.706Z" fill="white" fill-opacity="0.7"/>
</g>
<mask id="mask0_4130_2" style="mask-type:alpha" maskUnits="userSpaceOnUse" x="10" y="43" width="410" height="409">
<path d="M420 247.5C420 360.442 328.218 452 215 452C101.782 452 10 360.442 10 247.5C10 134.558 101.782 43 215 43C328.218 43 420 134.558 420 247.5Z" fill="url(#paint3_linear_4130_2)"/>
</mask>
<g mask="url(#mask0_4130_2)">
<path d="M69 311.725C69 303.04 76.0406 296 84.7255 296H152.87C161.555 296 168.595 303.04 168.595 311.725V451.159C168.595 459.844 161.555 466.884 152.87 466.884H84.7255C76.0406 466.884 69 459.844 69 451.159V311.725Z" fill="#101419"/>
<path d="M152.87 460.594V466.884H84.7255V460.594H152.87ZM162.305 451.159V311.725C162.305 306.514 158.081 302.29 152.87 302.29H84.7255C79.5146 302.29 75.2902 306.514 75.2902 311.725V451.159C75.2902 456.37 79.5146 460.594 84.7255 460.594V466.884L84.3201 466.879C75.9572 466.667 69.2168 459.927 69.0051 451.564L69 451.159V311.725C69 303.176 75.8225 296.22 84.3201 296.005L84.7255 296H152.87L153.275 296.005C161.773 296.22 168.595 303.176 168.595 311.725V451.159L168.59 451.564C168.378 459.927 161.638 466.667 153.275 466.879L152.87 466.884V460.594C158.081 460.594 162.305 456.37 162.305 451.159Z" fill="black"/>
<path d="M80.5321 318.016C80.5321 312.226 85.2258 307.532 91.0158 307.532H100.451C106.241 307.532 110.935 312.226 110.935 318.016V327.451C110.935 333.241 106.241 337.935 100.451 337.935H91.0158C85.2258 337.935 80.5321 333.241 80.5321 327.451V318.016Z" fill="#2E3743"/>
<path d="M109.886 318.016C109.886 312.805 105.662 308.58 100.451 308.58H91.0158C85.8048 308.58 81.5805 312.805 81.5805 318.016V327.451C81.5805 332.662 85.8048 336.886 91.0158 336.886H100.451C105.662 336.886 109.886 332.662 109.886 327.451V318.016ZM111.983 327.451C111.983 333.82 106.82 338.983 100.451 338.983H91.0158C84.6468 338.983 79.4838 333.82 79.4838 327.451V318.016C79.4838 311.647 84.6468 306.484 91.0158 306.484H100.451C106.82 306.484 111.983 311.647 111.983 318.016V327.451Z" fill="black"/>
<path d="M94.1609 316.443C94.1609 319.049 92.0487 321.161 89.4432 321.161C86.8378 321.161 84.7256 319.049 84.7256 316.443C84.7256 313.838 86.8378 311.725 89.4432 311.725C92.0487 311.725 94.1609 313.838 94.1609 316.443Z" fill="#4B596C"/>
<path d="M93.6366 316.443C93.6366 314.127 91.7591 312.25 89.4431 312.25C87.1271 312.25 85.2497 314.127 85.2497 316.443C85.2497 318.759 87.1271 320.637 89.4431 320.637C91.7591 320.637 93.6366 318.759 93.6366 316.443ZM94.685 316.443C94.685 319.338 92.3381 321.685 89.4431 321.685C86.5481 321.685 84.2013 319.338 84.2013 316.443C84.2013 313.548 86.5481 311.201 89.4431 311.201C92.3381 311.201 94.685 313.548 94.685 316.443Z" fill="#101419"/>
<path d="M106.741 327.975C106.741 330.581 104.629 332.693 102.024 332.693C99.4181 332.693 97.3059 330.581 97.3059 327.975C97.3059 325.37 99.4181 323.258 102.024 323.258C104.629 323.258 106.741 325.37 106.741 327.975Z" fill="#4B596C"/>
<path d="M106.217 327.975C106.217 325.659 104.34 323.782 102.024 323.782C99.7076 323.782 97.8301 325.659 97.8301 327.975C97.8301 330.291 99.7076 332.169 102.024 332.169C104.34 332.169 106.217 330.291 106.217 327.975ZM107.265 327.975C107.265 330.87 104.919 333.217 102.024 333.217C99.1286 333.217 96.7817 330.87 96.7817 327.975C96.7817 325.08 99.1286 322.733 102.024 322.733C104.919 322.733 107.265 325.08 107.265 327.975Z" fill="#101419"/>
<path d="M137.144 381.442C137.144 391.574 128.93 399.788 118.798 399.788C108.665 399.788 100.451 391.574 100.451 381.442C100.451 371.31 108.665 363.096 118.798 363.096C128.93 363.096 137.144 371.31 137.144 381.442Z" fill="#4B596C"/>
<path d="M136.096 381.442C136.096 371.889 128.351 364.144 118.798 364.144C109.244 364.144 101.499 371.889 101.499 381.442C101.499 390.995 109.244 398.74 118.798 398.74C128.351 398.74 136.096 390.995 136.096 381.442ZM138.192 381.442C138.192 392.153 129.509 400.837 118.798 400.837C108.086 400.837 99.4027 392.153 99.4027 381.442C99.4027 370.731 108.086 362.047 118.798 362.047C129.509 362.047 138.192 370.731 138.192 381.442Z" fill="black"/>
<path d="M120.85 381.789C121.014 381.789 121.147 381.864 121.251 382.014C121.367 382.164 121.438 382.371 121.464 382.633C121.514 383.134 121.433 383.521 121.221 383.797C120.721 384.484 120.202 385.035 119.662 385.448C119.123 385.86 118.456 386.067 117.66 386.067C116.689 386.067 115.878 385.791 115.23 385.241C114.582 384.691 114.212 383.959 114.121 383.046C114.072 382.558 114.29 382.208 114.773 381.996C115.305 381.758 115.678 381.508 115.891 381.245C116.104 380.97 116.191 380.638 116.152 380.251C116.129 380.026 116.062 379.857 115.95 379.744C115.85 379.632 115.731 379.575 115.592 379.575C115.251 379.575 114.897 379.819 114.529 380.307C114.174 380.795 113.858 381.426 113.582 382.202C113.305 382.965 113.106 383.753 112.985 384.566C112.905 385.154 112.781 385.554 112.613 385.766C112.456 385.967 112.182 386.067 111.791 386.067C111.4 386.067 111.096 385.929 110.879 385.654C110.673 385.366 110.51 384.928 110.388 384.341C110.266 383.753 110.148 382.89 110.035 381.752C109.842 379.825 109.837 377.818 110.02 375.729C110.215 373.641 110.627 371.89 111.256 370.476C111.896 369.05 112.759 368.337 113.845 368.337C114.425 368.337 114.917 368.588 115.321 369.088C115.736 369.576 115.982 370.214 116.061 371.002C116.187 372.265 115.946 373.578 115.337 374.941C114.728 376.292 113.674 377.874 112.176 379.688C112.203 380.338 112.251 381.007 112.32 381.695C112.77 380.132 113.351 379 114.063 378.3C114.775 377.587 115.471 377.23 116.153 377.23C116.784 377.23 117.31 377.443 117.731 377.868C118.165 378.293 118.413 378.819 118.476 379.444C118.545 380.132 118.431 380.764 118.135 381.339C117.839 381.914 117.284 382.427 116.471 382.877C116.555 383.215 116.734 383.49 117.008 383.703C117.293 383.903 117.618 384.003 117.985 384.003C118.376 384.003 118.74 383.853 119.076 383.553C119.412 383.252 119.841 382.752 120.365 382.052C120.499 381.877 120.66 381.789 120.85 381.789ZM113.633 370.195C113.405 370.195 113.185 370.52 112.973 371.17C112.759 371.808 112.574 372.677 112.419 373.778C112.275 374.866 112.186 376.054 112.15 377.343C112.842 376.43 113.386 375.435 113.784 374.36C114.194 373.284 114.355 372.309 114.268 371.433C114.228 371.033 114.153 370.726 114.043 370.514C113.934 370.301 113.797 370.195 113.633 370.195Z" fill="#B9C5D4"/>
<path d="M127.198 380.251C127.296 381.239 127.157 382.177 126.778 383.065C126.411 383.94 125.87 384.653 125.155 385.204C124.453 385.754 123.668 386.042 122.799 386.067C122.876 388.481 122.705 390.494 122.285 392.108C121.867 393.734 121.096 394.547 119.973 394.547C119.291 394.547 118.762 394.303 118.385 393.815C118.008 393.327 117.777 392.652 117.69 391.789C117.568 390.563 117.709 389.131 118.113 387.493C118.519 385.867 119.217 384.072 120.207 382.108C120.025 380.282 119.885 379.012 119.789 378.3C119.74 377.937 119.857 377.649 120.138 377.437C120.42 377.224 120.788 377.118 121.242 377.118C121.508 377.118 121.703 377.174 121.827 377.286C121.964 377.387 122.054 377.593 122.097 377.906C122.129 378.218 122.158 378.45 122.186 378.6C122.54 378.099 122.902 377.743 123.272 377.53C123.641 377.305 124.046 377.193 124.488 377.193C125.195 377.193 125.797 377.474 126.295 378.037C126.806 378.6 127.107 379.338 127.198 380.251ZM122.714 384.266C123.158 384.166 123.55 383.922 123.89 383.534C124.242 383.134 124.502 382.646 124.672 382.071C124.84 381.483 124.893 380.87 124.829 380.232C124.792 379.857 124.688 379.575 124.518 379.388C124.346 379.188 124.134 379.088 123.882 379.088C123.427 379.088 122.926 379.563 122.377 380.513C122.419 381.064 122.494 381.87 122.6 382.934C122.657 383.509 122.695 383.953 122.714 384.266ZM119.941 392.708C120.281 392.708 120.492 391.97 120.572 390.494C120.653 389.031 120.615 387.205 120.46 385.016C120.042 386.267 119.732 387.461 119.53 388.599C119.328 389.738 119.266 390.694 119.344 391.47C119.384 391.87 119.465 392.177 119.587 392.389C119.697 392.602 119.814 392.708 119.941 392.708Z" fill="#B9C5D4"/>
<path d="M130.241 386.067C129.685 386.067 129.248 385.917 128.927 385.616C128.62 385.316 128.441 384.922 128.393 384.434C128.336 383.872 128.449 383.421 128.731 383.084C129.025 382.746 129.463 382.577 130.044 382.577C130.599 382.577 131.029 382.715 131.335 382.99C131.651 383.252 131.836 383.646 131.888 384.172C131.946 384.747 131.828 385.21 131.534 385.56C131.24 385.898 130.809 386.067 130.241 386.067Z" fill="#B9C5D4"/>
<g filter="url(#filter2_d_4130_2)">
<path d="M243 314.637C243 303.792 251.792 295 262.637 295H441.415C452.261 295 461.052 303.792 461.052 314.637V409.549C461.052 420.394 452.261 429.186 441.415 429.186H262.637C251.792 429.186 243 420.394 243 409.549V314.637Z" fill="#2E3743"/>
<path d="M441.415 425.913V429.186H262.637V425.913H441.415ZM457.779 409.549V314.637C457.779 305.599 450.453 298.273 441.415 298.273H262.637C253.74 298.273 246.502 305.372 246.278 314.215L246.273 314.637V409.549C246.273 418.587 253.599 425.913 262.637 425.913V429.186L262.383 429.184C251.739 429.05 243.136 420.447 243.002 409.803L243 409.549V314.637C243 303.876 251.655 295.137 262.383 295.002L262.637 295H441.415L441.669 295.002C452.397 295.137 461.052 303.876 461.052 314.637V409.549L461.051 409.803C460.916 420.447 452.313 429.05 441.669 429.184L441.415 429.186V425.913C450.453 425.913 457.779 418.587 457.779 409.549Z" fill="#101419"/>
<path d="M256.5 322.205C256.5 318.251 259.706 315.046 263.66 315.046H305.797C309.751 315.046 312.957 318.251 312.957 322.205C312.957 326.159 309.751 329.365 305.797 329.365H263.66C259.706 329.365 256.5 326.159 256.5 322.205Z" fill="#25AC89"/>
<path d="M305.797 327.319V329.365H263.66V327.319H305.797ZM310.911 322.205C310.911 319.381 308.622 317.092 305.797 317.092H263.66C260.835 317.092 258.546 319.381 258.546 322.205C258.546 325.03 260.835 327.319 263.66 327.319V329.365L263.475 329.362C259.606 329.264 256.5 326.097 256.5 322.205C256.5 318.313 259.606 315.146 263.475 315.048L263.66 315.046H305.797L305.982 315.048C309.851 315.146 312.957 318.313 312.957 322.205C312.957 326.097 309.851 329.264 305.982 329.362L305.797 329.365V327.319C308.622 327.319 310.911 325.03 310.911 322.205Z" fill="#F8F9FA"/>
<path d="M319.911 322.205C319.911 318.251 323.117 315.046 327.071 315.046H389.255C393.209 315.046 396.414 318.251 396.414 322.205C396.414 326.159 393.209 329.365 389.255 329.365H327.071C323.117 329.365 319.911 326.159 319.911 322.205Z" fill="#DCA87A"/>
<path d="M389.255 327.319V329.365H327.071V327.319H389.255ZM394.368 322.205C394.368 319.381 392.079 317.092 389.255 317.092H327.071C324.247 317.092 321.957 319.381 321.957 322.205C321.957 325.03 324.247 327.319 327.071 327.319V329.365L326.886 329.362C323.017 329.264 319.911 326.097 319.911 322.205C319.911 318.313 323.017 315.146 326.886 315.048L327.071 315.046H389.255L389.44 315.048C393.308 315.146 396.414 318.313 396.414 322.205C396.414 326.097 393.308 329.264 389.44 329.362L389.255 329.365V327.319C392.079 327.319 394.368 325.03 394.368 322.205Z" fill="#F8F9FA"/>
<path d="M403.778 322.205C403.778 318.251 406.983 315.046 410.937 315.046H430.574C434.528 315.046 437.733 318.251 437.733 322.205C437.733 326.159 434.528 329.365 430.574 329.365H410.937C406.983 329.365 403.778 326.159 403.778 322.205Z" fill="#25AC89"/>
<path d="M430.574 327.319V329.365H410.937V327.319H430.574ZM435.688 322.205C435.688 319.381 433.398 317.092 430.574 317.092H410.937C408.113 317.092 405.823 319.381 405.823 322.205C405.823 325.03 408.113 327.319 410.937 327.319V329.365L410.752 329.362C406.884 329.264 403.778 326.097 403.778 322.205C403.778 318.313 406.884 315.146 410.752 315.048L410.937 315.046H430.574L430.759 315.048C434.627 315.146 437.733 318.313 437.733 322.205C437.733 326.097 434.627 329.264 430.759 329.362L430.574 329.365V327.319C433.398 327.319 435.688 325.03 435.688 322.205Z" fill="#F8F9FA"/>
<path d="M256.5 407.299C256.5 403.345 259.706 400.14 263.66 400.14H341.798C345.752 400.14 348.958 403.345 348.958 407.299C348.958 411.253 345.752 414.458 341.798 414.458H263.66C259.706 414.458 256.5 411.253 256.5 407.299Z" fill="#DCA87A"/>
<path d="M341.798 412.413V414.458H263.66V412.413H341.798ZM346.912 407.299C346.912 404.475 344.623 402.185 341.798 402.185H263.66C260.835 402.185 258.546 404.475 258.546 407.299C258.546 410.123 260.835 412.413 263.66 412.413V414.458L263.475 414.456C259.606 414.358 256.5 411.191 256.5 407.299C256.5 403.407 259.606 400.24 263.475 400.142L263.66 400.14H341.798L341.983 400.142C345.852 400.24 348.958 403.407 348.958 407.299C348.958 411.191 345.852 414.358 341.983 414.456L341.798 414.458V412.413C344.623 412.413 346.912 410.123 346.912 407.299Z" fill="#F8F9FA"/>
<path d="M355.913 407.299C355.913 403.345 359.118 400.14 363.072 400.14H418.301C422.255 400.14 425.46 403.345 425.46 407.299C425.46 411.253 422.255 414.458 418.301 414.458H363.072C359.118 414.458 355.913 411.253 355.913 407.299Z" fill="#F2C89D"/>
<path d="M418.301 412.413V414.458H363.072V412.413H418.301ZM423.415 407.299C423.415 404.475 421.125 402.185 418.301 402.185H363.072C360.248 402.185 357.958 404.475 357.958 407.299C357.958 410.123 360.248 412.413 363.072 412.413V414.458L362.887 414.456C359.018 414.358 355.913 411.191 355.913 407.299C355.913 403.407 359.018 400.24 362.887 400.142L363.072 400.14H418.301L418.486 400.142C422.354 400.24 425.46 403.407 425.46 407.299C425.46 411.191 422.354 414.358 418.486 414.456L418.301 414.458V412.413C421.125 412.413 423.415 410.123 423.415 407.299Z" fill="#F8F9FA"/>
<path d="M275.728 386.025C275.728 382.071 278.934 378.866 282.888 378.866H321.752C325.706 378.866 328.912 382.071 328.912 386.025C328.912 389.979 325.706 393.185 321.752 393.185H282.888C278.934 393.185 275.728 389.979 275.728 386.025Z" fill="#25AC89"/>
<path d="M321.752 391.139V393.185H282.888V391.139H321.752ZM326.866 386.025C326.866 383.201 324.577 380.912 321.752 380.912H282.888C280.063 380.912 277.774 383.201 277.774 386.025C277.774 388.85 280.063 391.139 282.888 391.139V393.185L282.703 393.182C278.834 393.084 275.728 389.918 275.728 386.025C275.728 382.133 278.834 378.967 282.703 378.869L282.888 378.866H321.752L321.937 378.869C325.806 378.967 328.912 382.133 328.912 386.025C328.912 389.918 325.806 393.084 321.937 393.182L321.752 393.185V391.139C324.577 391.139 326.866 388.85 326.866 386.025Z" fill="#F8F9FA"/>
<path d="M335.866 386.025C335.866 382.071 339.072 378.866 343.026 378.866H381.891C385.845 378.866 389.05 382.071 389.05 386.025C389.05 389.979 385.845 393.185 381.891 393.185H343.026C339.072 393.185 335.866 389.979 335.866 386.025Z" fill="#25AC89"/>
<path d="M381.891 391.139V393.185H343.026V391.139H381.891ZM387.004 386.025C387.004 383.201 384.715 380.912 381.891 380.912H343.026C340.201 380.912 337.912 383.201 337.912 386.025C337.912 388.85 340.201 391.139 343.026 391.139V393.185L342.841 393.182C338.972 393.084 335.866 389.918 335.866 386.025C335.866 382.133 338.972 378.967 342.841 378.869L343.026 378.866H381.891L382.076 378.869C385.944 378.967 389.05 382.133 389.05 386.025C389.05 389.918 385.944 393.084 382.076 393.182L381.891 393.185V391.139C384.715 391.139 387.004 388.85 387.004 386.025Z" fill="#F8F9FA"/>
<path d="M291.274 364.752C291.274 360.798 294.48 357.593 298.433 357.593H366.345C370.299 357.593 373.504 360.798 373.504 364.752C373.504 368.706 370.299 371.911 366.345 371.911H298.433C294.48 371.911 291.274 368.706 291.274 364.752Z" fill="#F2C89D"/>
<path d="M366.345 369.866V371.911H298.433V369.866H366.345ZM371.458 364.752C371.458 361.928 369.169 359.638 366.345 359.638H298.433C295.609 359.638 293.32 361.928 293.32 364.752C293.32 367.576 295.609 369.866 298.433 369.866V371.911L298.249 371.909C294.38 371.811 291.274 368.644 291.274 364.752C291.274 360.86 294.38 357.693 298.249 357.595L298.433 357.593H366.345L366.53 357.595C370.398 357.693 373.504 360.86 373.504 364.752C373.504 368.644 370.398 371.811 366.53 371.909L366.345 371.911V369.866C369.169 369.866 371.458 367.576 371.458 364.752Z" fill="#F8F9FA"/>
<path d="M275.728 343.479C275.728 339.525 278.934 336.319 282.888 336.319H298.843C302.797 336.319 306.002 339.525 306.002 343.479C306.002 347.433 302.797 350.638 298.843 350.638H282.888C278.934 350.638 275.728 347.433 275.728 343.479Z" fill="#F2C89D"/>
<path d="M298.843 348.593V350.638H282.888V348.593H298.843ZM303.956 343.479C303.956 340.654 301.667 338.365 298.843 338.365H282.888C280.063 338.365 277.774 340.654 277.774 343.479C277.774 346.303 280.063 348.593 282.888 348.593V350.638L282.703 350.636C278.834 350.538 275.728 347.371 275.728 343.479C275.728 339.587 278.834 336.42 282.703 336.322L282.888 336.319H298.843L299.028 336.322C302.896 336.42 306.002 339.587 306.002 343.479C306.002 347.371 302.896 350.538 299.028 350.636L298.843 350.638V348.593C301.667 348.593 303.956 346.303 303.956 343.479Z" fill="#F8F9FA"/>
<path d="M312.957 343.479C312.957 339.525 316.162 336.319 320.116 336.319H352.435C356.389 336.319 359.595 339.525 359.595 343.479C359.595 347.433 356.389 350.638 352.435 350.638H320.116C316.162 350.638 312.957 347.433 312.957 343.479Z" fill="#DCA87A"/>
<path d="M352.435 348.593V350.638H320.116V348.593H352.435ZM357.549 343.479C357.549 340.654 355.26 338.365 352.435 338.365H320.116C317.292 338.365 315.002 340.654 315.002 343.479C315.002 346.303 317.292 348.593 320.116 348.593V350.638L319.931 350.636C316.063 350.538 312.957 347.371 312.957 343.479C312.957 339.587 316.063 336.42 319.931 336.322L320.116 336.319H352.435L352.62 336.322C356.489 336.42 359.595 339.587 359.595 343.479C359.595 347.371 356.489 350.538 352.62 350.636L352.435 350.638V348.593C355.26 348.593 357.549 346.303 357.549 343.479Z" fill="#F8F9FA"/>
<path d="M366.549 343.479C366.549 339.525 369.755 336.319 373.709 336.319H389.664C393.618 336.319 396.823 339.525 396.823 343.479C396.823 347.433 393.618 350.638 389.664 350.638H373.709C369.755 350.638 366.549 347.433 366.549 343.479Z" fill="#DCA87A"/>
<path d="M389.664 348.593V350.638H373.709V348.593H389.664ZM394.777 343.479C394.777 340.654 392.488 338.365 389.664 338.365H373.709C370.884 338.365 368.595 340.654 368.595 343.479C368.595 346.303 370.884 348.593 373.709 348.593V350.638L373.524 350.636C369.655 350.538 366.549 347.371 366.549 343.479C366.549 339.587 369.655 336.42 373.524 336.322L373.709 336.319H389.664L389.849 336.322C393.717 336.42 396.823 339.587 396.823 343.479C396.823 347.371 393.717 350.538 389.849 350.636L389.664 350.638V348.593C392.488 348.593 394.777 346.303 394.777 343.479Z" fill="#F8F9FA"/>
</g>
</g>
<defs>
<filter id="filter0_d_4130_2" x="47.6914" y="0" width="327.205" height="376.578" filterUnits="userSpaceOnUse" color-interpolation-filters="sRGB">
<feFlood flood-opacity="0" result="BackgroundImageFix"/>
<feColorMatrix in="SourceAlpha" type="matrix" values="0 0 0 0 0 0 0 0 0 0 0 0 0 0 0 0 0 0 127 0" result="hardAlpha"/>
<feOffset dy="8"/>
<feGaussianBlur stdDeviation="4"/>
<feComposite in2="hardAlpha" operator="out"/>
<feColorMatrix type="matrix" values="0 0 0 0 0 0 0 0 0 0 0 0 0 0 0 0 0 0 0.25 0"/>
<feBlend mode="normal" in2="BackgroundImageFix" result="effect1_dropShadow_4130_2"/>
<feBlend mode="normal" in="SourceGraphic" in2="effect1_dropShadow_4130_2" result="shape"/>
</filter>
<filter id="filter1_d_4130_2" x="70" y="154" width="286" height="111.166" filterUnits="userSpaceOnUse" color-interpolation-filters="sRGB">
<feFlood flood-opacity="0" result="BackgroundImageFix"/>
<feColorMatrix in="SourceAlpha" type="matrix" values="0 0 0 0 0 0 0 0 0 0 0 0 0 0 0 0 0 0 127 0" result="hardAlpha"/>
<feOffset dy="4"/>
<feGaussianBlur stdDeviation="2"/>
<feComposite in2="hardAlpha" operator="out"/>
<feColorMatrix type="matrix" values="0 0 0 0 0 0 0 0 0 0 0 0 0 0 0 0 0 0 0.25 0"/>
<feBlend mode="normal" in2="BackgroundImageFix" result="effect1_dropShadow_4130_2"/>
<feBlend mode="normal" in="SourceGraphic" in2="effect1_dropShadow_4130_2" result="shape"/>
</filter>
<filter id="filter2_d_4130_2" x="235" y="295" width="234.052" height="150.186" filterUnits="userSpaceOnUse" color-interpolation-filters="sRGB">
<feFlood flood-opacity="0" result="BackgroundImageFix"/>
<feColorMatrix in="SourceAlpha" type="matrix" values="0 0 0 0 0 0 0 0 0 0 0 0 0 0 0 0 0 0 127 0" result="hardAlpha"/>
<feOffset dy="8"/>
<feGaussianBlur stdDeviation="4"/>
<feComposite in2="hardAlpha" operator="out"/>
<feColorMatrix type="matrix" values="0 0 0 0 0 0 0 0 0 0 0 0 0 0 0 0 0 0 0.25 0"/>
<feBlend mode="normal" in2="BackgroundImageFix" result="effect1_dropShadow_4130_2"/>
<feBlend mode="normal" in="SourceGraphic" in2="effect1_dropShadow_4130_2" result="shape"/>
</filter>
<linearGradient id="paint0_linear_4130_2" x1="270.753" y1="193.157" x2="270.753" y2="237.609" gradientUnits="userSpaceOnUse">
<stop stop-color="#283A99"/>
<stop offset="1" stop-color="#4361FF"/>
</linearGradient>
<linearGradient id="paint1_linear_4130_2" x1="166.902" y1="193.157" x2="166.902" y2="237.609" gradientUnits="userSpaceOnUse">
<stop stop-color="#283A99"/>
<stop offset="1" stop-color="#4361FF"/>
</linearGradient>
<linearGradient id="paint2_linear_4130_2" x1="213" y1="154" x2="213" y2="257.166" gradientUnits="userSpaceOnUse">
<stop stop-color="#565B52"/>
<stop offset="1" stop-color="#33372F"/>
</linearGradient>
<linearGradient id="paint3_linear_4130_2" x1="215" y1="43" x2="215" y2="452" gradientUnits="userSpaceOnUse">
<stop stop-color="#F2C89D"/>
<stop offset="1" stop-color="#DCA87A"/>
</linearGradient>
</defs>
</svg>
