<svg viewBox="0 0 430 462" fill="none" xmlns="http://www.w3.org/2000/svg" aria-label="a illustration of myself with coffee in the shape of a pokemon ball, and a gameboy">
<path opacity="0.8" d="M420 247.5C420 360.442 328.218 452 215 452C101.782 452 10 360.442 10 247.5C10 134.558 101.782 42.9999 215 42.9999C328.218 42.9999 420 134.558 420 247.5Z" fill="var(--color-glyph)"/>
<path opacity="0.5" d="M420 247.5C420 134.558 328.218 42.9999 215 42.9999C101.782 42.9999 10 134.558 10 247.5C10 360.442 101.782 452 215 452C328.218 452 420 360.442 420 247.5ZM430 247.5C430 365.988 333.718 462 215 462C96.2818 462 0 365.988 0 247.5C0 129.012 96.2818 32.9999 215 32.9999C333.718 32.9999 430 129.012 430 247.5Z" fill="var(--color-glyph)"/>
<g filter="url(#filter0_d_4118_1104)">
<path d="M61.0371 213.028C58.9637 205.114 62.8198 196.881 70.434 192.965L77.9624 189.092C79.7836 188.156 82.0682 188.751 83.1138 190.435L87.0624 196.795L103.058 270.597C103.635 273.26 100.977 275.539 98.2032 274.758L86.0253 271.331C79.5275 269.502 74.5446 264.584 72.9246 258.401L61.0371 213.028Z" fill="#EDD5BE"/>
<path d="M61.0371 213.028C58.9637 205.114 62.8198 196.881 70.434 192.965L77.9624 189.092C79.7836 188.156 82.0682 188.751 83.1138 190.435L87.0624 196.795L103.058 270.597C103.635 273.26 100.977 275.539 98.2032 274.758L86.0253 271.331C79.5275 269.502 74.5446 264.584 72.9246 258.401L61.0371 213.028Z" fill="#EDD5BE"/>
<path d="M99.5326 254.332C96.6554 257.21 93.2842 258.987 89.5625 259.341C82.3945 260.023 75.3712 255.289 69.9897 247.2L72.9244 258.401C74.5443 264.584 79.5272 269.502 86.025 271.331L98.203 274.758C100.977 275.539 103.635 273.26 103.058 270.597L99.5326 254.332Z" fill="#E2CBB4"/>
<path fill-rule="evenodd" clip-rule="evenodd" d="M75.6609 185.15C79.7585 183.042 84.8989 184.383 87.2515 188.172C90.1297 192.808 92.1792 197.854 93.3188 203.112L107.751 269.7C109.05 275.693 103.069 280.821 96.8276 279.064L84.6497 275.637C76.5275 273.351 70.2988 267.204 68.2739 259.474L56.3864 214.102C53.7947 204.209 58.6148 193.918 68.1325 189.022L75.6609 185.15ZM82.7034 199.233C82.5864 198.693 82.376 198.175 82.0805 197.699C80.6142 195.338 77.4104 194.502 74.8565 195.816L72.7353 196.907C67.0247 199.844 64.1327 206.019 65.6877 211.954L77.5751 257.327C78.7901 261.965 82.5273 265.653 87.4007 267.025C92.217 268.38 96.8327 264.424 95.8303 259.799L82.7034 199.233Z" fill="black"/>
<path d="M361.474 213.334C363.684 205.452 359.97 197.162 352.425 193.13L344.964 189.144C343.159 188.18 340.865 188.74 339.79 190.408L335.732 196.707L318.465 270.256C317.842 272.91 320.46 275.229 323.247 274.491L335.483 271.249C342.011 269.519 347.079 264.678 348.805 258.52L361.474 213.334Z" fill="#EDD5BE"/>
<path d="M361.474 213.334C363.684 205.452 359.97 197.162 352.425 193.13L344.964 189.144C343.159 188.18 340.865 188.74 339.79 190.408L335.732 196.707L318.465 270.256C317.842 272.91 320.46 275.229 323.247 274.491L335.483 271.249C342.011 269.519 347.079 264.678 348.805 258.52L361.474 213.334Z" fill="#EDD5BE"/>
<path d="M322.274 254.054C325.101 256.975 328.441 258.803 332.156 259.214C339.312 260.005 346.416 255.378 351.936 247.372L348.809 258.527C347.082 264.685 342.015 269.526 335.487 271.256L323.251 274.498C320.464 275.236 317.846 272.917 318.469 270.263L322.274 254.054Z" fill="#E2CBB4"/>
<path fill-rule="evenodd" clip-rule="evenodd" d="M347.333 185.237C343.273 183.067 338.11 184.329 335.692 188.082C332.734 192.673 330.598 197.689 329.368 202.928L313.788 269.288C312.386 275.261 318.278 280.478 324.548 278.817L336.784 275.575C344.944 273.413 351.278 267.361 353.437 259.664L366.106 214.478C368.868 204.626 364.226 194.263 354.794 189.223L347.333 185.237ZM340.049 199.211C340.175 198.673 340.394 198.158 340.698 197.687C342.205 195.348 345.423 194.561 347.954 195.914L350.056 197.037C355.715 200.06 358.5 206.279 356.843 212.19L344.174 257.376C342.879 261.994 339.078 265.625 334.182 266.923C329.343 268.205 324.796 264.178 325.878 259.569L340.049 199.211Z" fill="black"/>
<path d="M118.898 64.071L210.146 30.5204L303.902 59.3645L336.346 153.205C337.446 166.555 336.861 179.976 334.601 193.204L322.677 251.26C319.525 269.705 312.457 295.124 300.743 310.433C291.682 322.275 280.4 332.564 267.415 340.826L255.446 348.443C244.856 355.182 231.707 357.682 219.047 355.366C213.166 354.29 207.116 354.243 201.216 355.227L200.853 355.287C186.753 357.64 172.228 354.274 161.069 346.069L150.533 338.321C141.509 331.686 133.353 324.126 126.224 315.79C110.179 297.028 99.733 274.796 95.9029 251.26L86.3771 192.722C84.2764 179.812 83.7682 166.729 84.862 153.716L118.898 64.071Z" fill="#EDD5BE"/>
<path d="M212.334 354.587C266.949 326.832 309.433 277.848 329.469 218.19L322.677 251.26C319.525 269.705 312.457 295.124 300.743 310.433C291.682 322.275 280.4 332.564 267.415 340.826L255.446 348.443C244.856 355.182 231.707 357.682 219.046 355.366C216.827 354.96 214.584 354.7 212.334 354.587Z" fill="#E2CBB4"/>
<path fill-rule="evenodd" clip-rule="evenodd" d="M210.085 26.1364L311.12 65.2476L341.122 152.877C342.25 166.561 341.649 180.318 339.333 193.877L328.068 259.805C324.804 278.908 316.801 297.079 304.67 312.933C295.287 325.197 283.602 335.852 270.156 344.409L258.187 352.025C246.525 359.446 232.046 362.2 218.104 359.648C212.819 358.681 207.38 358.639 202.078 359.524L201.715 359.584C186.244 362.165 170.307 358.473 158.063 349.469L147.527 341.722C138.217 334.876 129.802 327.076 122.448 318.477C105.894 299.12 95.117 276.184 91.1655 251.901L81.6397 193.363C79.4865 180.131 78.9656 166.72 80.0867 153.382L119.623 69.0193L210.085 26.1364ZM210.207 34.9045L119.623 69.0193L89.6371 154.05C88.5706 166.737 89.0661 179.494 91.1144 192.08L100.64 250.618C104.349 273.409 114.464 294.936 130.001 313.104C136.903 321.175 144.801 328.496 153.539 334.921L164.075 342.668C174.149 350.076 187.262 353.115 199.991 350.991L200.354 350.93C206.85 349.846 213.513 349.898 219.989 351.083C231.368 353.166 243.187 350.918 252.706 344.861L264.675 337.244C277.197 329.276 288.077 319.354 296.815 307.934C308.112 293.17 315.564 276.249 318.604 258.46L329.868 192.532C332.072 179.634 332.643 166.549 331.57 153.532L304.67 65.2476L210.207 34.9045Z" fill="black"/>
<path fill-rule="evenodd" clip-rule="evenodd" d="M211.567 343.268C210.509 343.268 209.651 342.486 209.651 341.521V332.786C209.651 331.821 210.509 331.039 211.567 331.039C212.625 331.039 213.483 331.821 213.483 332.786V341.521C213.483 342.486 212.625 343.268 211.567 343.268Z" fill="#C7B6A5"/>
<path fill-rule="evenodd" clip-rule="evenodd" d="M247.583 272.852C249.72 272.852 251.453 274.585 251.453 276.722C251.453 287.41 242.789 296.074 232.102 296.074H180.821C178.684 296.074 176.951 294.341 176.951 292.203C176.951 290.066 178.684 288.333 180.821 288.333H232.102C238.514 288.333 243.713 283.135 243.713 276.722C243.713 274.585 245.445 272.852 247.583 272.852Z" fill="black"/>
<path fill-rule="evenodd" clip-rule="evenodd" d="M205.498 258.441C209.753 261.277 215.297 261.277 219.552 258.441L228.172 252.694C229.493 251.813 231.277 252.17 232.157 253.491C233.037 254.811 232.681 256.595 231.36 257.476L222.74 263.223C216.554 267.346 208.496 267.346 202.311 263.223L193.69 257.476C192.369 256.595 192.013 254.811 192.893 253.491C193.773 252.17 195.557 251.813 196.878 252.694L205.498 258.441Z" fill="#C7B6A5"/>
<circle cx="265.211" cy="204.401" r="34.694" fill="white"/>
<circle cx="270.753" cy="215.383" r="22.2258" fill="#4361FF"/>
<circle cx="270.753" cy="215.383" r="22.2258" fill="url(#paint0_linear_4118_1104)" fill-opacity="0.7"/>
<circle cx="270.753" cy="215.383" r="14.6365" fill="black"/>
<path d="M229.991 208.805C232.123 209.096 234.088 207.602 234.379 205.47L235.049 200.556C236.473 190.116 243.191 181.153 252.812 176.858C260.139 173.587 268.478 173.344 275.989 176.177C286.768 180.241 294.363 190.028 295.607 201.473L296.03 205.364C296.263 207.504 298.186 209.05 300.326 208.818C302.466 208.585 304.013 206.662 303.78 204.522L303.357 200.631C301.795 186.258 292.261 173.981 278.739 168.883C269.309 165.327 258.84 165.63 249.634 169.74C237.551 175.135 229.113 186.391 227.325 199.503L226.655 204.416C226.365 206.549 227.858 208.514 229.991 208.805Z" fill="black"/>
<path fill-rule="evenodd" clip-rule="evenodd" d="M276.968 210.252C275.91 209.194 275.91 207.478 276.968 206.419L286.726 196.662C287.784 195.603 289.501 195.603 290.559 196.662C291.618 197.72 291.618 199.436 290.559 200.495L280.801 210.252C279.743 211.311 278.027 211.311 276.968 210.252Z" fill="white"/>
<path fill-rule="evenodd" clip-rule="evenodd" d="M275.144 212.077C273.078 210.011 273.078 206.661 275.144 204.595L284.901 194.837C286.968 192.771 290.317 192.771 292.383 194.837C294.45 196.903 294.45 200.253 292.383 202.319L282.626 212.077C280.56 214.143 277.21 214.143 275.144 212.077ZM276.968 206.419C275.91 207.478 275.91 209.194 276.968 210.252C278.027 211.311 279.743 211.311 280.801 210.252L290.559 200.495C291.618 199.436 291.618 197.72 290.559 196.662C289.501 195.603 287.784 195.603 286.726 196.662L276.968 206.419Z" fill="white"/>
<path fill-rule="evenodd" clip-rule="evenodd" d="M228.526 174.844C229.88 177.116 232.82 177.859 235.092 176.505L247.355 169.195C263.481 159.582 283.894 161.065 298.462 172.907C300.514 174.576 303.53 174.265 305.199 172.212C306.867 170.16 306.556 167.144 304.504 165.475C286.816 151.096 262.031 149.295 242.451 160.967L230.187 168.278C227.915 169.632 227.171 172.572 228.526 174.844Z" fill="black"/>
<circle cx="161.36" cy="204.401" r="34.694" fill="white"/>
<circle cx="166.902" cy="215.383" r="22.2258" fill="#4361FF"/>
<circle cx="166.902" cy="215.383" r="22.2258" fill="url(#paint1_linear_4118_1104)" fill-opacity="0.7"/>
<circle cx="166.902" cy="215.383" r="14.6365" fill="black"/>
<path d="M126.139 208.805C128.272 209.096 130.237 207.602 130.528 205.47L131.198 200.556C132.621 190.116 139.339 181.153 148.961 176.858C156.288 173.587 164.626 173.344 172.138 176.177C182.916 180.241 190.512 190.028 191.756 201.473L192.179 205.364C192.412 207.504 194.335 209.05 196.475 208.818C198.615 208.585 200.161 206.662 199.928 204.522L199.506 200.631C197.943 186.258 188.41 173.981 174.888 168.883C165.458 165.327 154.989 165.63 145.783 169.74C133.699 175.135 125.262 186.391 123.474 199.503L122.804 204.416C122.513 206.549 124.006 208.514 126.139 208.805Z" fill="black"/>
<path fill-rule="evenodd" clip-rule="evenodd" d="M173.117 210.252C172.058 209.194 172.058 207.478 173.117 206.419L182.874 196.662C183.933 195.603 185.649 195.603 186.708 196.662C187.766 197.72 187.766 199.436 186.708 200.495L176.95 210.252C175.891 211.311 174.175 211.311 173.117 210.252Z" fill="white"/>
<path fill-rule="evenodd" clip-rule="evenodd" d="M171.292 212.077C169.226 210.011 169.226 206.661 171.292 204.595L181.05 194.837C183.116 192.771 186.466 192.771 188.532 194.837C190.598 196.903 190.598 200.253 188.532 202.319L178.774 212.077C176.708 214.143 173.358 214.143 171.292 212.077ZM173.117 206.419C172.058 207.478 172.058 209.194 173.117 210.252C174.175 211.311 175.891 211.311 176.95 210.252L186.708 200.495C187.766 199.436 187.766 197.72 186.708 196.662C185.649 195.603 183.933 195.603 182.874 196.662L173.117 206.419Z" fill="white"/>
<path fill-rule="evenodd" clip-rule="evenodd" d="M196.351 174.844C194.996 177.116 192.057 177.859 189.785 176.505L177.521 169.195C161.395 159.582 140.982 161.065 126.415 172.907C124.362 174.576 121.346 174.265 119.678 172.212C118.009 170.16 118.32 167.144 120.373 165.475C138.06 151.096 162.846 149.295 182.426 160.967L194.689 168.278C196.961 169.632 197.705 172.572 196.351 174.844Z" fill="black"/>
<path d="M77.3544 129.364L87.2918 202.724L102.128 151.367L110.878 122.185C111.92 118.711 113.451 115.404 115.427 112.362C123.785 99.4968 139.038 92.8918 154.139 95.5986L191.948 102.376C195.705 103.049 199.513 103.388 203.329 103.388H234.415C239.095 103.388 243.762 102.878 248.332 101.868L272.677 96.4894C287.57 93.1987 303.055 98.4923 312.816 110.212C316.515 114.652 319.227 119.827 320.775 125.394L325.957 144.039L335.632 202.724C338.213 188.533 342.728 175.632 344.663 163.376L351.106 129.76C351.874 125.758 352.28 121.692 352.261 117.617C352.236 112.118 352.066 106.582 351.163 101.315L347.781 86.4571C346.153 79.3054 343.317 72.4837 339.395 66.2855L328.537 51.1394L335.632 47.2691L312.411 35.0134L288.544 22.1126L296.285 16.3072L269.193 9.21176C269.193 9.21176 250.487 5.34152 235.006 4.69648C219.525 4.05144 204.044 5.34152 204.044 5.34152C204.044 5.34152 186.812 6.73598 181.869 8.21134C175.402 10.1417 164.185 14.7008 158.891 18.8874L140.185 33.0783L136.213 20.1402L115.319 49.6102C110.514 56.3875 107.933 64.4901 107.933 72.7978C107.933 74.5057 106.849 76.0269 105.235 76.5865C91.2543 81.4345 81.0224 93.5433 78.594 108.14L77.5833 114.216C76.7499 119.225 76.6727 124.332 77.3544 129.364Z" fill="#5D473B"/>
<path d="M213.531 0.26515C219.407 0.0203398 227.283 -0.145101 235.194 0.18452C243.189 0.517663 251.933 1.67807 258.612 2.73696C261.966 3.26871 264.83 3.7791 266.858 4.15807C267.872 4.34764 268.68 4.50427 269.235 4.61413C269.513 4.66903 269.728 4.71283 269.875 4.74264C269.949 4.75748 270.005 4.76868 270.044 4.77665C270.064 4.78062 270.079 4.78455 270.089 4.78673C270.095 4.78781 270.099 4.78863 270.102 4.78925C270.104 4.78955 270.105 4.78906 270.106 4.78925L270.107 4.79051C270.106 4.79882 270.078 4.93425 269.618 7.1565L270.108 4.79051C270.185 4.80638 270.262 4.82359 270.338 4.84343L297.429 11.9389C299.105 12.378 300.382 13.7385 300.715 15.4387C301.048 17.139 300.38 18.8804 298.994 19.92L296.895 21.4923L314.558 31.0406H314.557L337.739 43.2762C339.21 44.0527 340.135 45.575 340.147 47.2385C340.158 48.9017 339.255 50.4369 337.795 51.2334L335.181 52.6583L343.065 63.6542L343.211 63.8709C347.407 70.5029 350.442 77.8024 352.183 85.4546L355.565 100.313L355.613 100.551L355.785 101.615C356.603 106.938 356.752 112.403 356.776 117.597L356.774 118.42C356.74 122.53 356.308 126.61 355.541 130.61L349.113 164.136C348.105 170.498 346.44 176.979 344.76 183.458C343.059 190.021 341.33 196.629 340.075 203.531C339.682 205.692 337.791 207.257 335.595 207.239C333.399 207.221 331.534 205.625 331.177 203.458L321.54 145.014L316.424 126.604C315.134 121.962 312.934 117.626 309.953 113.849L309.346 113.102C300.801 102.843 287.324 98.1205 274.272 100.767L273.651 100.898L249.306 106.277C244.416 107.358 239.422 107.903 234.414 107.903H203.329C199.756 107.903 196.19 107.625 192.662 107.074L191.151 106.82L153.342 100.044C140.237 97.6946 127.002 103.299 119.563 114.294L119.214 114.822C117.581 117.335 116.292 120.056 115.381 122.91L115.203 123.482L106.465 152.618L106.466 152.619L91.6299 203.977C91.0376 206.028 89.0897 207.384 86.9609 207.227C84.9655 207.081 83.3219 205.643 82.8879 203.721L82.8173 203.329L72.8797 129.97C72.1374 124.49 72.2216 118.93 73.1291 113.475L74.1395 107.4L74.273 106.64C77.1755 90.8662 88.2939 77.8184 103.421 72.4391C103.494 63.3215 106.358 54.442 111.635 46.9991L132.53 17.5288L132.724 17.2731C133.737 16.0391 135.337 15.426 136.929 15.6819C138.628 15.955 140.025 17.1703 140.53 18.8151L142.605 25.5742L156.162 15.2901C159.263 12.8562 163.775 10.507 168.103 8.57887C172.536 6.60365 177.139 4.91097 180.577 3.88468L181.166 3.7209C184.277 2.90995 189.841 2.21933 194.325 1.73413C196.821 1.46405 199.156 1.24063 200.866 1.08531C201.722 1.00759 202.423 0.94677 202.911 0.905151C203.155 0.88436 203.346 0.86811 203.476 0.857277C203.541 0.851881 203.592 0.848738 203.626 0.845938C203.643 0.844557 203.656 0.842887 203.665 0.842159C203.668 0.841918 203.671 0.842325 203.673 0.842159L203.674 0.840899C203.677 0.840691 203.68 0.841242 203.684 0.840899C203.693 0.840159 203.707 0.838452 203.723 0.837119C203.756 0.834459 203.803 0.830634 203.864 0.825781C203.988 0.816005 204.168 0.801692 204.401 0.784206C204.868 0.749204 205.548 0.70078 206.409 0.644363C208.132 0.531543 210.588 0.387801 213.531 0.26515ZM112.449 72.7982C112.449 76.319 110.284 79.4615 107.033 80.7352L106.714 80.8524C94.4871 85.0923 85.4889 95.5834 83.1537 108.275L83.0479 108.881L82.0375 114.956C81.2782 119.52 81.2073 124.173 81.8283 128.758L88.8923 180.909L97.7893 150.114L97.8032 150.07L106.553 120.889L106.777 120.162C107.933 116.542 109.57 113.091 111.641 109.902L112.085 109.233C121.521 95.2857 138.311 88.1742 154.936 91.1541L192.745 97.9308L194.057 98.1513C197.123 98.6311 200.224 98.8719 203.329 98.8719H234.414C238.767 98.8719 243.108 98.3988 247.358 97.4596L271.702 92.0801L272.478 91.9163C288.78 88.6111 305.612 94.5084 316.285 107.322L317.043 108.255C320.765 112.973 323.513 118.387 325.125 124.185L330.308 142.83L330.365 143.066C330.383 143.145 330.399 143.224 330.412 143.304L336.408 179.672C337.954 173.685 339.346 168.092 340.202 162.672L340.229 162.527L346.672 128.91C347.298 125.641 347.664 122.343 347.734 119.05L347.745 117.639C347.72 112.218 347.55 107.03 346.728 102.18L343.378 87.459C341.874 80.848 339.257 74.541 335.644 68.8045L324.868 53.7708C324.114 52.7194 323.847 51.3947 324.136 50.1336C324.4 48.9781 325.106 47.9766 326.096 47.3405L310.304 39.0066C310.29 38.9997 310.277 38.9923 310.263 38.9852L286.397 26.0844C285.043 25.3524 284.155 23.9809 284.041 22.446C283.927 20.911 284.604 19.4237 285.835 18.5001L286.093 18.3049L268.172 13.6107C268.147 13.6056 268.117 13.5999 268.084 13.593C267.95 13.5659 267.747 13.5255 267.483 13.4734C266.955 13.3691 266.179 13.2182 265.199 13.0349C263.236 12.6681 260.455 12.1718 257.197 11.6554C250.654 10.618 242.303 9.51944 234.818 9.20753C227.248 8.89214 219.643 9.0492 213.908 9.28816C211.047 9.40738 208.664 9.54713 207 9.65603C206.169 9.71045 205.518 9.75655 205.078 9.78958C204.858 9.80608 204.69 9.81983 204.579 9.82863C204.524 9.83301 204.482 9.83653 204.455 9.83871C204.442 9.83977 204.432 9.84073 204.426 9.84123H204.419L204.409 9.84249H204.397C204.39 9.8431 204.379 9.84503 204.363 9.84627C204.332 9.84883 204.284 9.85246 204.222 9.85761C204.098 9.86791 203.914 9.88281 203.678 9.90296C203.204 9.94336 202.52 10.0033 201.682 10.0793C200.007 10.2316 197.726 10.4489 195.296 10.7118C190.544 11.2261 185.784 11.8588 183.568 12.4252L183.16 12.5386C180.131 13.4427 175.892 14.9949 171.777 16.8283C167.852 18.5774 164.349 20.4463 162.121 22.1008L161.692 22.4296L161.621 22.485L142.914 36.6759C141.74 37.5672 140.203 37.8276 138.8 37.3751C137.396 36.9225 136.301 35.813 135.868 34.4032L134.588 30.2369L119.003 52.2211C114.739 58.2351 112.449 65.4261 112.449 72.7982Z" fill="black"/>
<path d="M153.919 60.6497C167.224 36.9122 192.833 22.7658 220.01 24.1394C222.49 24.265 224.398 26.3766 224.272 28.8563C224.147 31.3361 222.035 33.2449 219.556 33.1196C195.79 31.9186 173.397 44.2892 161.763 65.0466L156.989 73.5631C155.813 75.661 153.205 76.4501 151.074 75.3937L150.869 75.2866C148.703 74.0725 147.932 71.3321 149.145 69.1662L153.919 60.6497Z" fill="#423027"/>
<path d="M200.107 71.891C214.438 49.5695 239.945 36.255 265.5 37.8966C268.057 38.0611 269.835 40.3399 269.429 42.8415C269.065 45.0824 267.061 46.7654 264.792 46.7306L264.737 44.1467L264.571 46.7218C242.425 45.2993 220.113 56.8689 207.558 76.4251L206.267 78.4371C205.087 80.2746 202.595 81.2148 200.444 80.1492L200.237 80.0396C197.909 78.731 197.553 75.8699 198.816 73.9017L200.107 71.891Z" fill="#423027"/>
<path d="M240.217 75.2047C258.77 56.6515 287.115 52.0513 310.583 63.7855L314.453 65.7219C316.79 66.8899 317.737 69.7302 316.569 72.0664C315.401 74.4026 312.56 75.3497 310.224 74.1817L306.353 72.2466C286.526 62.3332 262.58 66.219 246.906 81.8932C245.059 83.7401 242.064 83.74 240.217 81.8932C238.37 80.0462 238.37 77.0517 240.217 75.2047Z" fill="#423027"/>
<g filter="url(#filter1_d_4118_1104)">
<path fill-rule="evenodd" clip-rule="evenodd" d="M161.451 154C165.767 154 170.05 154.771 174.095 156.276C182.956 159.575 190.178 166.205 194.219 174.753L196.822 180.261C197.614 181.935 198.295 183.654 198.865 185.406L203.073 183.539C206.086 182.202 209.476 181.5 212.923 181.5L213.665 181.511C214.022 181.521 214.378 181.541 214.732 181.566C214.854 181.575 214.975 181.582 215.096 181.593C215.192 181.601 215.287 181.612 215.383 181.621C215.5 181.632 215.618 181.643 215.735 181.656L215.872 181.672C215.946 181.68 216.019 181.692 216.093 181.701C216.238 181.719 216.383 181.738 216.527 181.759C216.612 181.771 216.695 181.785 216.779 181.798C216.927 181.821 217.075 181.844 217.222 181.869C217.323 181.887 217.425 181.906 217.526 181.925C217.65 181.948 217.774 181.971 217.897 181.996C218.011 182.019 218.124 182.044 218.237 182.068C218.352 182.093 218.467 182.119 218.582 182.145C218.693 182.171 218.804 182.197 218.915 182.225C219.035 182.254 219.155 182.285 219.274 182.316C219.384 182.345 219.493 182.375 219.603 182.405C219.712 182.436 219.821 182.468 219.93 182.5C220.043 182.533 220.156 182.567 220.269 182.601C220.393 182.64 220.518 182.681 220.642 182.722C220.73 182.751 220.818 182.78 220.905 182.809C221.027 182.851 221.147 182.894 221.268 182.937C221.376 182.977 221.485 183.016 221.593 183.057C221.694 183.095 221.795 183.134 221.896 183.174C222.004 183.216 222.112 183.258 222.219 183.303C222.321 183.345 222.423 183.39 222.524 183.434C222.639 183.483 222.754 183.532 222.868 183.583C222.959 183.624 223.048 183.666 223.138 183.708C223.248 183.759 223.359 183.809 223.468 183.862C223.672 183.962 223.874 184.065 224.074 184.17L227.032 185.725C227.622 183.863 228.338 182.036 229.178 180.261L231.781 174.753C235.822 166.205 243.043 159.575 251.904 156.276C255.95 154.771 260.231 154 264.548 154H303.347C308.877 154 314.327 155.328 319.237 157.871C323.807 160.238 327.791 163.596 330.896 167.7L332.711 170.097C336.298 174.837 338.934 180.159 340.545 185.772H350C351.105 185.772 352 186.668 352 187.772V192.541C352 193.645 351.105 194.541 350 194.541H345.819C345.294 194.541 344.79 194.748 344.416 195.116L342.368 197.131C342.456 199.426 342.38 201.736 342.134 204.046L341.853 206.671L341.836 206.833L341.805 206.993L340.455 214.089C338.586 223.916 333.936 233.001 327.058 240.265C322.438 245.143 316.92 249.085 310.808 251.875L310.215 252.145C300.219 256.708 289.094 258.206 278.247 256.453L272.466 255.519C260.91 253.652 250.271 248.083 242.15 239.652C237.159 234.471 233.253 228.344 230.659 221.634L227.928 214.567C225.993 209.56 225 204.239 225 198.871C225 196.646 225.171 194.43 225.508 192.243L224.244 191.602C221.033 189.973 217.339 189.06 213.546 188.952L212.786 188.941C209.421 188.941 206.103 189.575 203.104 190.793L200.434 191.876C200.809 194.182 201 196.521 201 198.871C201 204.239 200.007 209.56 198.072 214.567L195.341 221.634C192.747 228.344 188.841 234.471 183.85 239.652C175.728 248.083 165.09 253.652 153.533 255.519L147.752 256.453C136.905 258.206 125.781 256.707 115.785 252.145L115.191 251.875C109.079 249.085 103.561 245.143 98.9414 240.265C92.063 233.001 87.4131 223.916 85.5439 214.089L84.1943 206.993L84.1641 206.833L84.1465 206.671L83.8662 204.046C83.6196 201.737 83.5438 199.426 83.6318 197.132L81.584 195.116C81.2099 194.748 80.7056 194.541 80.1807 194.541H76C75.9311 194.541 75.863 194.538 75.7959 194.531C75.7287 194.524 75.6627 194.513 75.5977 194.5C75.5927 194.499 75.5879 194.497 75.583 194.496C75.5241 194.484 75.466 194.47 75.4092 194.452C75.3996 194.449 75.3903 194.445 75.3809 194.442C75.3305 194.426 75.281 194.408 75.2324 194.388C75.2125 194.379 75.1934 194.369 75.1738 194.36C75.1386 194.344 75.1034 194.328 75.0693 194.31C75.0427 194.296 75.0171 194.281 74.9912 194.266C74.9619 194.248 74.9326 194.231 74.9043 194.213C74.8851 194.2 74.8664 194.187 74.8477 194.174C74.8132 194.149 74.7798 194.124 74.7471 194.098C74.7307 194.084 74.7142 194.071 74.6982 194.058C74.6681 194.032 74.6389 194.005 74.6104 193.977C74.5928 193.96 74.5755 193.943 74.5586 193.926C74.5321 193.898 74.5064 193.87 74.4814 193.841C74.4673 193.824 74.453 193.808 74.4395 193.791C74.4131 193.758 74.3885 193.724 74.3643 193.689C74.3502 193.669 74.3365 193.649 74.3232 193.629C74.3035 193.598 74.2847 193.568 74.2666 193.536C74.2547 193.515 74.2426 193.495 74.2314 193.474C74.2115 193.436 74.1933 193.397 74.1758 193.358C74.1672 193.339 74.1584 193.32 74.1504 193.301C74.1353 193.264 74.1223 193.226 74.1094 193.188C74.1016 193.166 74.0929 193.143 74.0859 193.12C74.0737 193.08 74.0634 193.038 74.0537 192.997C74.0487 192.976 74.0434 192.954 74.0391 192.933C74.0139 192.806 74 192.675 74 192.541V187.772C74 186.668 74.8954 185.772 76 185.772H85.4551C87.066 180.159 89.7017 174.837 93.2891 170.097L95.1025 167.7C98.2083 163.596 102.192 160.238 106.762 157.871C111.672 155.328 117.122 154 122.652 154H161.451ZM122.652 162C118.403 162 114.215 163.02 110.441 164.975C106.93 166.793 103.868 169.374 101.481 172.527L99.668 174.925C93.551 183.007 90.7448 193.117 91.8213 203.196L92.084 205.659L93.4033 212.595C94.9864 220.918 98.9244 228.612 104.75 234.764C108.663 238.895 113.337 242.234 118.514 244.597L119.106 244.867C127.665 248.773 137.189 250.056 146.476 248.556L152.257 247.621C162.103 246.03 171.168 241.286 178.088 234.102C182.34 229.687 185.669 224.468 187.879 218.75L190.61 211.684C192.19 207.597 193 203.253 193 198.871C193 193.618 191.835 188.429 189.59 183.68L186.986 178.172C183.837 171.511 178.209 166.345 171.305 163.774C168.152 162.601 164.815 162 161.451 162H122.652ZM264.548 162C261.184 162 257.848 162.601 254.695 163.774C247.79 166.345 242.163 171.511 239.014 178.172L236.41 183.68C234.165 188.429 233 193.618 233 198.871C233 203.253 233.81 207.597 235.39 211.684L238.121 218.75C240.331 224.468 243.66 229.687 247.912 234.102C254.832 241.286 263.896 246.03 273.742 247.621L279.523 248.556C288.81 250.056 298.334 248.773 306.893 244.867L307.486 244.597C312.663 242.234 317.336 238.895 321.249 234.764C327.075 228.612 331.014 220.918 332.597 212.595L333.915 205.659L334.179 203.196C335.255 193.117 332.449 183.007 326.332 174.925L324.518 172.527C322.131 169.374 319.07 166.793 315.559 164.975C311.785 163.02 307.596 162 303.347 162H264.548Z" fill="url(#paint2_linear_4118_1104)"/>
</g>
<path d="M101.82 220.706L101.673 220.579C100.913 219.986 99.7918 220.028 99.0833 220.706C98.3748 221.384 98.3306 222.456 98.9506 223.183L99.0833 223.324L115.854 239.365C116.61 240.088 117.835 240.088 118.591 239.365C119.347 238.642 119.347 237.47 118.591 236.747L101.82 220.706Z" fill="white" fill-opacity="0.7"/>
<path d="M112.141 220.706L111.994 220.579C111.234 219.986 110.112 220.028 109.404 220.706C108.695 221.383 108.651 222.456 109.271 223.183L109.404 223.323L117.144 230.727C117.9 231.45 119.125 231.45 119.881 230.727C120.637 230.004 120.637 228.833 119.881 228.11L112.141 220.706Z" fill="white" fill-opacity="0.7"/>
</g>
<mask id="mask0_4118_1104" style="mask-type:alpha" maskUnits="userSpaceOnUse" x="10" y="43" width="410" height="409">
<path d="M420 247.5C420 360.442 328.218 452 215 452C101.782 452 10 360.442 10 247.5C10 134.558 101.782 43 215 43C328.218 43 420 134.558 420 247.5Z" fill="url(#paint3_linear_4118_1104)"/>
</mask>
<g mask="url(#mask0_4118_1104)">
<path d="M180.796 376.874L175.276 371.113L200.625 346.826L200.617 346.818C203.362 343.901 203.369 339.311 200.566 336.385C197.762 333.459 193.177 333.27 190.144 335.888L184.621 330.123C190.839 324.459 200.475 324.757 206.327 330.865C212.179 336.973 212.065 346.613 206.141 352.583L205.568 353.139L180.796 376.874Z" fill="#E6EAEF"/>
<path d="M205.567 353.139L206.14 352.583C211.972 346.707 212.174 337.273 206.597 331.154L206.326 330.865C200.474 324.757 190.838 324.459 184.62 330.123L190.144 335.888L190.433 335.65C193.461 333.284 197.849 333.551 200.565 336.385C203.281 339.22 203.36 343.616 200.866 346.54L200.617 346.819L200.624 346.826L175.275 371.113L180.795 376.874L205.567 353.139ZM180.554 388.121L164.028 370.872L189.377 346.585L173.233 329.736L179.264 324.242C188.663 315.68 203.225 316.13 212.07 325.362C220.777 334.45 220.746 348.708 212.2 357.76L211.786 358.186L211.735 358.239L211.682 358.289L211.11 358.845L180.554 388.121Z" fill="black"/>
<path d="M152.924 408.814C152.924 417.287 137.662 424.155 118.834 424.155C100.006 424.155 84.7434 417.287 84.7434 408.814C84.7434 400.342 100.006 393.474 118.834 393.474C137.662 393.474 152.924 400.342 152.924 408.814Z" fill="#E6EAEF"/>
<path d="M152.924 408.814C152.924 400.342 137.661 393.474 118.834 393.474C100.006 393.474 84.7434 400.342 84.7434 408.814C84.7434 417.287 100.006 424.155 118.834 424.155C137.661 424.155 152.924 417.287 152.924 408.814ZM160.879 408.814C160.879 418.13 152.871 423.916 146.204 426.916C138.79 430.252 129.106 432.109 118.834 432.109C108.562 432.109 98.8776 430.252 91.4638 426.916C84.7967 423.916 76.7889 418.13 76.7889 408.814C76.7889 399.498 84.7967 393.713 91.4638 390.713C98.8776 387.376 108.562 385.519 118.834 385.519C129.106 385.519 138.79 387.376 146.204 390.713C152.871 393.713 160.879 399.498 160.879 408.814Z" fill="black"/>
<path d="M184.738 351.429C184.78 352.3 184.803 353.176 184.803 354.057C184.803 386.602 155.512 412.985 119.379 412.985C83.2459 412.985 53.9546 386.602 53.9544 354.057C53.9544 353.176 53.9763 352.3 54.0188 351.429H184.738Z" fill="#E6EAEF"/>
<path d="M184.803 354.057C184.803 353.176 184.78 352.3 184.738 351.429H54.0188C53.9764 352.3 53.9544 353.176 53.9544 354.057C53.9547 386.602 83.2459 412.985 119.379 412.985C155.512 412.985 184.803 386.602 184.803 354.057ZM192.751 354.939C192.235 391.918 159.316 420.486 120.309 420.934L119.379 420.939C79.9661 420.939 46.5271 392.211 46.0067 354.939L46 354.057C46 353.044 46.0247 352.038 46.0732 351.041L46.4428 343.474H192.314L192.683 351.041L192.714 351.787C192.742 352.536 192.758 353.292 192.758 354.057L192.751 354.939Z" fill="black"/>
<path d="M184.742 346.883C184.742 366.339 155.489 382.11 119.402 382.11C83.3159 382.11 54.0621 366.339 54.0621 346.883C54.0621 327.428 83.3159 311.657 119.402 311.657C155.489 311.657 184.742 327.428 184.742 346.883Z" fill="#F8F9FA"/>
<path d="M184.742 346.883C184.742 327.428 155.488 311.657 119.402 311.657C83.3158 311.657 54.062 327.428 54.062 346.883C54.062 366.339 83.3158 382.11 119.402 382.11C155.488 382.11 184.742 366.339 184.742 346.883ZM192.697 346.883C192.697 360.934 182.253 371.854 169.379 378.794C156.183 385.909 138.5 390.065 119.402 390.065C100.305 390.065 82.6207 385.909 69.4249 378.794C56.5509 371.854 46.1076 360.934 46.1076 346.883C46.1076 332.832 56.5509 321.913 69.4249 314.972C82.6207 307.858 100.305 303.702 119.402 303.702C138.5 303.702 156.183 307.858 169.379 314.972C182.253 321.913 192.697 332.832 192.697 346.883Z" fill="black"/>
<path d="M177.924 347.452C177.924 363.455 151.723 376.428 119.402 376.428C87.0813 376.428 60.8801 363.455 60.8801 347.452C60.8801 331.448 87.0813 318.475 119.402 318.475C151.723 318.475 177.924 331.448 177.924 347.452Z" fill="#F8F9FA"/>
<path d="M177.924 347.452C177.924 331.698 152.535 318.881 120.912 318.485L119.402 318.475C87.0813 318.475 60.8801 331.448 60.8801 347.452L60.8846 347.825C61.2826 363.407 86.5196 376.025 117.892 376.418L119.402 376.428C151.471 376.428 177.515 363.657 177.92 347.825L177.924 347.452ZM182.469 347.452C182.469 358.126 173.857 366.54 162.8 372.015C151.458 377.631 136.109 380.974 119.402 380.974C102.695 380.974 87.3449 377.631 76.0033 372.015C64.9465 366.54 56.3347 358.126 56.3347 347.452C56.3347 336.777 64.9465 328.363 76.0033 322.888C87.3449 317.272 102.695 313.929 119.402 313.929C136.109 313.929 151.458 317.272 162.8 322.888C173.857 328.363 182.469 336.777 182.469 347.452Z" fill="black"/>
<path d="M119.379 323.625C150.224 323.625 175.228 335.948 175.229 351.15C175.229 354.38 174.098 357.477 172.025 360.356C162.268 369.808 142.356 376.283 119.379 376.283C96.4007 376.283 76.4887 369.809 66.7317 360.356C64.659 357.478 63.528 354.379 63.528 351.15C63.5285 335.948 88.5339 323.625 119.379 323.625Z" fill="#C73D70"/>
<path d="M175.229 351.15C175.228 335.948 150.224 323.625 119.379 323.625C88.534 323.625 63.5286 335.948 63.5281 351.15C63.5281 354.379 64.6591 357.478 66.7318 360.356C76.4888 369.809 96.4009 376.283 119.379 376.283C142.357 376.283 162.268 369.808 172.025 360.356C174.098 357.477 175.229 354.38 175.229 351.15ZM178.638 351.15C178.638 355.217 177.205 358.997 174.791 362.348L174.615 362.595L174.396 362.804C163.901 372.971 143.433 379.487 120.474 379.688L119.379 379.692C95.9774 379.692 75.0218 373.133 64.3604 362.804L64.1417 362.594L63.9653 362.348C61.5525 358.997 60.119 355.217 60.119 351.15C60.1194 341.537 67.9287 333.779 78.3794 328.629C89.0484 323.371 103.549 320.216 119.379 320.216L120.859 320.225C136.112 320.415 150.042 323.535 160.377 328.629C170.828 333.779 178.637 341.537 178.638 351.15Z" fill="black"/>
<ellipse cx="88.6577" cy="347.956" rx="5.98396" ry="10.3722" transform="rotate(45 88.6577 347.956)" fill="white" fill-opacity="0.5"/>
<path d="M131.226 389.496C131.226 394.831 126.139 399.155 119.863 399.155C113.587 399.155 108.499 394.831 108.499 389.496C108.499 384.162 113.587 379.837 119.863 379.837C126.139 379.837 131.226 384.162 131.226 389.496Z" fill="white"/>
<path d="M125.544 389.78C125.544 387.349 123.25 384.951 119.863 384.951C116.476 384.951 114.181 387.349 114.181 389.78C114.181 392.212 116.476 394.61 119.863 394.61V396.883L119.453 396.874C115.386 396.69 112.124 393.777 111.918 390.146L111.908 389.78C111.908 385.858 115.47 382.678 119.863 382.678L120.272 382.687C124.475 382.877 127.817 385.981 127.817 389.78L127.807 390.146C127.594 393.898 124.119 396.883 119.863 396.883V394.61C123.25 394.61 125.544 392.212 125.544 389.78Z" fill="black"/>
<path d="M131.226 389.496C131.226 384.162 126.139 379.837 119.863 379.837C113.587 379.837 108.499 384.162 108.499 389.496C108.499 394.831 113.587 399.155 119.863 399.155C126.139 399.155 131.226 394.831 131.226 389.496ZM139.181 389.496C139.181 400.387 129.271 407.11 119.863 407.11C110.455 407.11 100.545 400.387 100.545 389.496C100.545 378.606 110.455 371.883 119.863 371.883C129.271 371.883 139.181 378.606 139.181 389.496Z" fill="black"/>
<path d="M149.968 307.229C145.498 302.322 144.043 295.376 146.164 289.086L148.945 280.84L149.016 280.648C149.789 278.691 151.969 277.663 153.986 278.343C156.002 279.023 157.114 281.162 156.543 283.187L156.482 283.383L153.701 291.628C152.503 295.18 153.325 299.101 155.849 301.872L156.441 302.522C162.543 309.221 162.446 319.463 156.287 326.043L155.99 326.354C153.533 328.853 152.681 332.505 153.755 335.822L153.865 336.142L156.451 343.25C157.203 345.314 156.138 347.597 154.074 348.348C152.01 349.099 149.729 348.035 148.977 345.971L146.39 338.862L146.186 338.272C144.202 332.144 145.778 325.396 150.317 320.777L150.634 320.439C153.812 316.873 153.811 311.447 150.561 307.879L149.968 307.229Z" fill="#B9C5D4"/>
<path d="M147.344 308.645C142.537 302.995 141.028 295.218 143.41 288.157L143.411 288.158L146.191 279.91L146.204 279.871L146.22 279.831L146.291 279.639L146.301 279.61L146.313 279.58L146.445 279.268C147.84 276.186 151.3 274.555 154.587 275.487L154.914 275.589C158.404 276.767 160.328 280.467 159.341 283.975L159.331 284.011L159.319 284.05L159.258 284.246L159.247 284.278L159.236 284.312L156.456 292.557C155.649 294.949 156.116 297.575 157.672 299.533L157.997 299.915L158.59 300.565C165.714 308.386 165.6 320.346 158.408 328.03L158.398 328.041L158.387 328.052L158.089 328.363L158.076 328.377L158.062 328.39C156.37 330.112 155.781 332.626 156.515 334.912L156.615 335.2L159.182 342.256C160.441 345.716 158.753 349.531 155.398 350.949L155.068 351.079C151.495 352.379 147.547 350.537 146.247 346.966L143.658 339.856L143.641 339.808L143.438 339.217L143.43 339.192L143.421 339.168C141.111 332.034 142.934 324.181 148.197 318.79L148.469 318.499C150.656 316.039 150.653 312.298 148.412 309.837L147.821 309.186L147.819 309.186L147.344 308.645ZM146.164 289.086C144.043 295.376 145.498 302.322 149.968 307.229L150.561 307.879L150.856 308.219C153.712 311.67 153.716 316.651 150.923 320.1L150.635 320.439L150.317 320.777C145.778 325.395 144.201 332.144 146.186 338.272L146.389 338.863L148.977 345.971L149.136 346.347C150.014 348.161 152.14 349.052 154.074 348.348C156.009 347.643 157.065 345.593 156.571 343.639L156.451 343.25L153.864 336.142L153.755 335.822C152.681 332.505 153.534 328.853 155.99 326.354L156.287 326.043C162.253 319.668 162.531 309.857 156.995 303.16L156.441 302.522L155.848 301.872C153.325 299.101 152.504 295.18 153.701 291.629L156.483 283.383L156.544 283.187C157.078 281.288 156.134 279.29 154.353 278.487L153.985 278.342C152.095 277.705 150.061 278.569 149.177 280.292L149.015 280.648L148.944 280.84L146.164 289.086Z" fill="black"/>
<path d="M131.85 270.777C132.461 268.667 134.667 267.453 136.777 268.065C138.886 268.676 140.1 270.882 139.489 272.992L136.596 282.971C135.333 287.327 136.242 292.024 139.037 295.596L139.679 296.416L139.958 296.782C145.647 304.387 145.452 314.892 139.484 322.28L139.191 322.635C136.361 325.987 135.439 330.553 136.749 334.741L139.464 343.423L139.521 343.62C140.047 345.657 138.888 347.772 136.857 348.407C134.826 349.042 132.669 347.966 131.939 345.992L131.873 345.798L129.157 337.116C127.035 330.331 128.528 322.933 133.115 317.503L133.471 317.061C136.924 312.589 137.039 306.371 133.755 301.773L133.415 301.32L132.773 300.498C128.402 294.914 126.981 287.568 128.955 280.756L131.85 270.777Z" fill="#B9C5D4"/>
<path d="M129.165 269.629C130.356 266.188 134.049 264.249 137.586 265.274L137.924 265.38C141.254 266.532 143.178 270.028 142.37 273.458L142.28 273.801L139.387 283.78C138.447 287.022 139.022 290.503 140.927 293.262L141.325 293.804L141.327 293.806L141.968 294.625L141.978 294.639L141.988 294.652L142.268 295.018L142.276 295.029L142.285 295.042C148.769 303.711 148.548 315.684 141.745 324.106L141.736 324.117L141.726 324.13L141.433 324.485L141.422 324.497L141.412 324.51C139.223 327.103 138.509 330.635 139.522 333.873H139.523L142.238 342.556L142.248 342.588L142.256 342.619L142.313 342.815L142.324 342.854L142.334 342.893C143.217 346.311 141.363 349.853 138.049 351.071L137.724 351.18C134.208 352.28 130.476 350.417 129.214 347L129.201 346.967L129.19 346.934L129.123 346.741L129.11 346.703L129.099 346.666L126.384 337.983C123.965 330.25 125.666 321.817 130.894 315.627L131.185 315.266C133.832 311.821 133.924 307.041 131.413 303.497L131.088 303.061H131.087L130.484 302.289V302.29C125.537 295.97 123.929 287.656 126.164 279.947L129.058 269.967L129.165 269.629ZM136.776 268.065C134.666 267.454 132.461 268.668 131.849 270.777L128.955 280.756L128.779 281.396C127.072 288.025 128.538 295.088 132.773 300.498L133.416 301.32L133.755 301.774C137.039 306.371 136.924 312.589 133.471 317.061L133.115 317.503C128.528 322.933 127.035 330.332 129.157 337.116L131.873 345.798L131.94 345.992C132.623 347.842 134.562 348.905 136.475 348.507L136.857 348.407C138.761 347.812 139.898 345.916 139.6 344.002L139.52 343.619L139.464 343.423L136.749 334.74C135.48 330.684 136.305 326.272 138.931 322.953L139.191 322.636L139.485 322.279C145.265 315.122 145.628 305.041 140.474 297.504L139.957 296.782L139.678 296.415L139.036 295.595C136.329 292.136 135.392 287.62 136.484 283.381L136.596 282.971L139.489 272.992C140.063 271.015 139.031 268.952 137.162 268.197L136.776 268.065Z" fill="black"/>
<path d="M266.902 287.19C266.902 280.956 271.956 275.902 278.19 275.902H356.08C362.314 275.902 367.368 280.956 367.368 287.19V421.521C367.368 433.99 357.26 444.098 344.792 444.098H278.19C271.956 444.098 266.902 439.044 266.902 432.81V287.19Z" fill="#E6EAEF"/>
<path d="M367.368 421.521V287.19C367.368 281.151 362.625 276.218 356.661 275.916L356.08 275.902V268C366.678 268 375.27 276.592 375.27 287.19V421.521C375.27 438.354 361.624 452 344.791 452H278.19C267.592 452 259 443.408 259 432.81V287.19C259 276.592 267.592 268 278.19 268V275.902L277.609 275.916C271.645 276.218 266.902 281.151 266.902 287.19V432.81L266.916 433.391C267.209 439.163 271.837 443.791 277.609 444.084L278.19 444.098H344.791L345.375 444.09C357.38 443.786 367.056 434.11 367.36 422.105L367.368 421.521ZM356.08 268V275.902H278.19V268H356.08Z" fill="black"/>
<path d="M272.546 292.834C272.546 286.6 277.6 281.546 283.834 281.546H350.436C356.67 281.546 361.724 286.6 361.724 292.834V351.534C361.724 357.768 356.67 362.822 350.436 362.822H283.834C277.6 362.822 272.546 357.768 272.546 351.534V292.834Z" fill="#A5D6A7"/>
<path d="M283.963 351.405H350.307V292.963H283.963V351.405ZM361.725 351.533L361.709 352.114C361.417 357.886 356.789 362.514 351.017 362.807L350.436 362.822H283.834L283.254 362.807C277.482 362.514 272.854 357.887 272.561 352.114L272.546 351.533V292.834C272.546 286.794 277.29 281.863 283.254 281.561L283.834 281.546H350.436L351.017 281.561C356.981 281.864 361.724 286.794 361.725 292.834V351.533Z" fill="#2E3743"/>
<path d="M354.951 386.527C354.951 389.645 352.424 392.172 349.307 392.172C346.19 392.172 343.663 389.645 343.663 386.527C343.663 383.41 346.19 380.883 349.307 380.883C352.424 380.883 354.951 383.41 354.951 386.527Z" fill="#C73D70"/>
<path d="M354.951 386.528C354.951 383.41 352.424 380.883 349.307 380.883C346.19 380.883 343.663 383.41 343.663 386.528C343.663 389.645 346.19 392.172 349.307 392.172C352.424 392.172 354.951 389.645 354.951 386.528ZM358.338 386.528C358.338 391.515 354.294 395.558 349.307 395.558C344.319 395.558 340.276 391.515 340.276 386.528C340.276 381.54 344.319 377.497 349.307 377.497C354.294 377.497 358.338 381.54 358.338 386.528Z" fill="black"/>
<path d="M340.276 404.589C340.276 407.706 337.749 410.233 334.632 410.233C331.515 410.233 328.988 407.706 328.988 404.589C328.988 401.472 331.515 398.945 334.632 398.945C337.749 398.945 340.276 401.472 340.276 404.589Z" fill="#C73D70"/>
<path d="M340.276 404.589C340.276 401.472 337.749 398.945 334.632 398.945C331.515 398.945 328.988 401.472 328.988 404.589C328.988 407.706 331.515 410.233 334.632 410.233C337.749 410.233 340.276 407.706 340.276 404.589ZM343.663 404.589C343.663 409.576 339.62 413.62 334.632 413.62C329.645 413.62 325.601 409.576 325.601 404.589C325.601 399.601 329.645 395.558 334.632 395.558C339.62 395.558 343.663 399.601 343.663 404.589Z" fill="black"/>
<path d="M283.383 379.497C283.383 378.392 284.278 377.497 285.383 377.497H295.832C296.937 377.497 297.832 378.392 297.832 379.497V411.619C297.832 412.724 296.937 413.619 295.832 413.619H285.383C284.278 413.619 283.383 412.724 283.383 411.619V379.497Z" fill="black"/>
<path d="M306.669 388.334C307.773 388.334 308.669 389.229 308.669 390.334V400.783C308.669 401.887 307.773 402.783 306.669 402.783L274.546 402.783C273.442 402.783 272.546 401.887 272.546 400.783L272.546 390.334C272.546 389.229 273.442 388.334 274.546 388.334L306.669 388.334Z" fill="black"/>
<path d="M314.244 421.453L314.373 421.337C315.038 420.794 316.019 420.833 316.639 421.453C317.259 422.073 317.298 423.054 316.755 423.719L316.639 423.848L308.737 431.749C308.076 432.411 307.004 432.411 306.343 431.749C305.681 431.088 305.681 430.016 306.343 429.355L314.244 421.453Z" fill="#4B596C"/>
<path d="M325.533 421.453L325.662 421.337C326.327 420.794 327.308 420.833 327.928 421.453C328.548 422.073 328.586 423.054 328.044 423.719L327.928 423.848L320.026 431.749C319.365 432.411 318.292 432.411 317.631 431.749C316.97 431.088 316.97 430.016 317.631 429.355L325.533 421.453Z" fill="#4B596C"/>
</g>
<defs>
<filter id="filter0_d_4118_1104" x="47.6915" y="0" width="327.205" height="376.578" filterUnits="userSpaceOnUse" color-interpolation-filters="sRGB">
<feFlood flood-opacity="0" result="BackgroundImageFix"/>
<feColorMatrix in="SourceAlpha" type="matrix" values="0 0 0 0 0 0 0 0 0 0 0 0 0 0 0 0 0 0 127 0" result="hardAlpha"/>
<feOffset dy="8"/>
<feGaussianBlur stdDeviation="4"/>
<feComposite in2="hardAlpha" operator="out"/>
<feColorMatrix type="matrix" values="0 0 0 0 0 0 0 0 0 0 0 0 0 0 0 0 0 0 0.25 0"/>
<feBlend mode="normal" in2="BackgroundImageFix" result="effect1_dropShadow_4118_1104"/>
<feBlend mode="normal" in="SourceGraphic" in2="effect1_dropShadow_4118_1104" result="shape"/>
</filter>
<filter id="filter1_d_4118_1104" x="70" y="154" width="286" height="111.166" filterUnits="userSpaceOnUse" color-interpolation-filters="sRGB">
<feFlood flood-opacity="0" result="BackgroundImageFix"/>
<feColorMatrix in="SourceAlpha" type="matrix" values="0 0 0 0 0 0 0 0 0 0 0 0 0 0 0 0 0 0 127 0" result="hardAlpha"/>
<feOffset dy="4"/>
<feGaussianBlur stdDeviation="2"/>
<feComposite in2="hardAlpha" operator="out"/>
<feColorMatrix type="matrix" values="0 0 0 0 0 0 0 0 0 0 0 0 0 0 0 0 0 0 0.25 0"/>
<feBlend mode="normal" in2="BackgroundImageFix" result="effect1_dropShadow_4118_1104"/>
<feBlend mode="normal" in="SourceGraphic" in2="effect1_dropShadow_4118_1104" result="shape"/>
</filter>
<linearGradient id="paint0_linear_4118_1104" x1="270.753" y1="193.157" x2="270.753" y2="237.609" gradientUnits="userSpaceOnUse">
<stop stop-color="#283A99"/>
<stop offset="1" stop-color="#4361FF"/>
</linearGradient>
<linearGradient id="paint1_linear_4118_1104" x1="166.902" y1="193.157" x2="166.902" y2="237.609" gradientUnits="userSpaceOnUse">
<stop stop-color="#283A99"/>
<stop offset="1" stop-color="#4361FF"/>
</linearGradient>
<linearGradient id="paint2_linear_4118_1104" x1="213" y1="154" x2="213" y2="257.166" gradientUnits="userSpaceOnUse">
<stop stop-color="#565B52"/>
<stop offset="1" stop-color="#33372F"/>
</linearGradient>
<linearGradient id="paint3_linear_4118_1104" x1="215" y1="43" x2="215" y2="452" gradientUnits="userSpaceOnUse">
<stop stop-color="#F2C89D"/>
<stop offset="1" stop-color="#DCA87A"/>
</linearGradient>
</defs>
</svg>
