<svg viewBox="0 0 430 462" fill="none" xmlns="http://www.w3.org/2000/svg" aria-label="a illustration of myself behind a book">
<path opacity="0.8" d="M420 247.5C420 360.442 328.218 452 215 452C101.782 452 10 360.442 10 247.5C10 134.558 101.782 43 215 43C328.218 43 420 134.558 420 247.5Z" fill="var(--glyph-color)"/>
<path opacity="0.5" d="M420 247.5C420 134.558 328.218 43 215 43C101.782 43 10 134.558 10 247.5C10 360.442 101.782 452 215 452C328.218 452 420 360.442 420 247.5ZM430 247.5C430 365.988 333.718 462 215 462C96.2818 462 0 365.988 0 247.5C0 129.012 96.2818 33 215 33C333.718 33 430 129.012 430 247.5Z" fill="var(--glyph-color)"/>
<g filter="url(#filter0_d_4118_1025)">
<path d="M61.0371 213.028C58.9637 205.114 62.8198 196.881 70.434 192.965L77.9624 189.092C79.7836 188.156 82.0682 188.751 83.1138 190.435L87.0624 196.795L103.058 270.597C103.635 273.26 100.977 275.539 98.2032 274.758L86.0253 271.331C79.5275 269.502 74.5446 264.584 72.9246 258.401L61.0371 213.028Z" fill="#EDD5BE"/>
<path d="M61.0371 213.028C58.9637 205.114 62.8198 196.881 70.434 192.965L77.9624 189.092C79.7836 188.156 82.0682 188.751 83.1138 190.435L87.0624 196.795L103.058 270.597C103.635 273.26 100.977 275.539 98.2032 274.758L86.0253 271.331C79.5275 269.502 74.5446 264.584 72.9246 258.401L61.0371 213.028Z" fill="#EDD5BE"/>
<path d="M99.5326 254.332C96.6554 257.21 93.2842 258.987 89.5625 259.341C82.3945 260.023 75.3712 255.289 69.9897 247.2L72.9244 258.401C74.5443 264.584 79.5272 269.502 86.025 271.331L98.203 274.758C100.977 275.539 103.635 273.26 103.058 270.597L99.5326 254.332Z" fill="#E2CBB4"/>
<path fill-rule="evenodd" clip-rule="evenodd" d="M75.6609 185.15C79.7585 183.042 84.8989 184.383 87.2515 188.172C90.1297 192.808 92.1792 197.854 93.3188 203.112L107.751 269.7C109.05 275.693 103.069 280.821 96.8276 279.064L84.6497 275.637C76.5275 273.351 70.2988 267.204 68.2739 259.474L56.3864 214.102C53.7947 204.209 58.6148 193.918 68.1325 189.022L75.6609 185.15ZM82.7034 199.233C82.5864 198.693 82.376 198.175 82.0805 197.699C80.6142 195.338 77.4104 194.502 74.8565 195.816L72.7353 196.907C67.0247 199.844 64.1327 206.019 65.6877 211.954L77.5751 257.327C78.7901 261.965 82.5273 265.653 87.4007 267.025C92.217 268.38 96.8327 264.424 95.8303 259.799L82.7034 199.233Z" fill="black"/>
<path d="M361.474 213.334C363.684 205.452 359.97 197.162 352.425 193.13L344.964 189.144C343.159 188.18 340.865 188.74 339.79 190.408L335.732 196.707L318.465 270.256C317.842 272.91 320.46 275.229 323.247 274.491L335.483 271.249C342.011 269.519 347.079 264.678 348.805 258.52L361.474 213.334Z" fill="#EDD5BE"/>
<path d="M361.474 213.334C363.684 205.452 359.97 197.162 352.425 193.13L344.964 189.144C343.159 188.18 340.865 188.74 339.79 190.408L335.732 196.707L318.465 270.256C317.842 272.91 320.46 275.229 323.247 274.491L335.483 271.249C342.011 269.519 347.079 264.678 348.805 258.52L361.474 213.334Z" fill="#EDD5BE"/>
<path d="M322.274 254.054C325.101 256.975 328.441 258.803 332.156 259.214C339.312 260.005 346.416 255.378 351.936 247.372L348.809 258.527C347.082 264.685 342.015 269.526 335.487 271.256L323.251 274.498C320.464 275.236 317.845 272.917 318.469 270.263L322.274 254.054Z" fill="#E2CBB4"/>
<path fill-rule="evenodd" clip-rule="evenodd" d="M347.333 185.237C343.273 183.067 338.11 184.329 335.692 188.082C332.734 192.673 330.598 197.689 329.368 202.928L313.788 269.288C312.386 275.261 318.278 280.478 324.548 278.817L336.784 275.575C344.944 273.413 351.278 267.361 353.437 259.664L366.106 214.478C368.868 204.626 364.226 194.263 354.794 189.223L347.333 185.237ZM340.049 199.211C340.175 198.673 340.394 198.158 340.698 197.687C342.205 195.348 345.423 194.561 347.954 195.914L350.056 197.037C355.715 200.06 358.5 206.279 356.843 212.19L344.174 257.376C342.879 261.994 339.078 265.625 334.182 266.923C329.343 268.205 324.796 264.178 325.878 259.569L340.049 199.211Z" fill="black"/>
<path d="M118.898 64.071L210.146 30.5204L303.902 59.3645L336.346 153.205C337.447 166.555 336.861 179.976 334.601 193.204L322.677 251.26C319.525 269.705 312.457 295.124 300.743 310.433C291.682 322.275 280.4 332.564 267.415 340.826L255.446 348.443C244.856 355.182 231.707 357.682 219.047 355.366C213.166 354.29 207.116 354.243 201.216 355.227L200.853 355.287C186.753 357.64 172.228 354.274 161.069 346.069L150.533 338.321C141.51 331.686 133.353 324.126 126.224 315.79C110.179 297.028 99.733 274.796 95.903 251.26L86.3772 192.722C84.2764 179.812 83.7682 166.729 84.862 153.716L118.898 64.071Z" fill="#EDD5BE"/>
<path d="M212.334 354.587C266.949 326.832 309.433 277.848 329.469 218.19L322.677 251.26C319.525 269.705 312.457 295.124 300.743 310.433C291.682 322.275 280.4 332.564 267.415 340.826L255.446 348.443C244.856 355.182 231.707 357.682 219.046 355.366C216.827 354.96 214.584 354.7 212.334 354.587Z" fill="#E2CBB4"/>
<path fill-rule="evenodd" clip-rule="evenodd" d="M210.085 26.1364L311.12 65.2476L341.122 152.877C342.25 166.561 341.649 180.318 339.333 193.877L328.068 259.805C324.804 278.908 316.801 297.079 304.67 312.933C295.287 325.197 283.602 335.852 270.156 344.409L258.187 352.025C246.525 359.446 232.046 362.2 218.104 359.648C212.819 358.681 207.38 358.639 202.078 359.524L201.715 359.584C186.244 362.165 170.307 358.473 158.063 349.469L147.527 341.722C138.217 334.876 129.802 327.076 122.448 318.477C105.894 299.12 95.1169 276.184 91.1655 251.901L81.6397 193.363C79.4864 180.131 78.9655 166.72 80.0867 153.382L119.623 69.0193L210.085 26.1364ZM210.207 34.9045L119.623 69.0193L89.6371 154.05C88.5706 166.737 89.0661 179.494 91.1143 192.08L100.64 250.618C104.349 273.409 114.464 294.936 130.001 313.104C136.903 321.175 144.801 328.496 153.539 334.921L164.075 342.668C174.149 350.076 187.262 353.115 199.991 350.991L200.354 350.93C206.85 349.846 213.513 349.898 219.989 351.083C231.368 353.166 243.187 350.918 252.706 344.861L264.675 337.244C277.197 329.276 288.077 319.354 296.815 307.934C308.112 293.17 315.564 276.249 318.604 258.46L329.868 192.532C332.072 179.634 332.643 166.549 331.57 153.532L304.67 65.2476L210.207 34.9045Z" fill="black"/>
<path fill-rule="evenodd" clip-rule="evenodd" d="M211.567 343.268C210.509 343.268 209.651 342.486 209.651 341.521V332.786C209.651 331.821 210.509 331.039 211.567 331.039C212.625 331.039 213.483 331.821 213.483 332.786V341.521C213.483 342.486 212.625 343.268 211.567 343.268Z" fill="#C7B6A5"/>
<path fill-rule="evenodd" clip-rule="evenodd" d="M205.498 258.441C209.753 261.277 215.297 261.277 219.552 258.441L228.172 252.694C229.493 251.813 231.277 252.17 232.157 253.491C233.037 254.811 232.681 256.595 231.36 257.476L222.74 263.223C216.554 267.346 208.496 267.346 202.311 263.223L193.69 257.476C192.369 256.595 192.013 254.811 192.893 253.491C193.773 252.17 195.557 251.813 196.878 252.694L205.498 258.441Z" fill="#C7B6A5"/>
<circle cx="265.211" cy="204.401" r="34.694" fill="white"/>
<circle cx="265.753" cy="216.383" r="22.2258" fill="#4361FF"/>
<circle cx="265.753" cy="216.383" r="22.2258" fill="url(#paint0_linear_4118_1025)" fill-opacity="0.7"/>
<circle cx="265.754" cy="216.383" r="14.6365" fill="black"/>
<path d="M229.991 208.805C232.123 209.096 234.088 207.602 234.379 205.47L235.049 200.556C236.473 190.116 243.191 181.153 252.812 176.858C260.139 173.587 268.478 173.344 275.989 176.177C286.768 180.241 294.363 190.028 295.607 201.473L296.03 205.364C296.263 207.504 298.186 209.05 300.326 208.818C302.466 208.585 304.012 206.662 303.78 204.522L303.357 200.631C301.795 186.258 292.261 173.981 278.739 168.883C269.309 165.327 258.84 165.63 249.634 169.74C237.551 175.135 229.113 186.391 227.325 199.503L226.655 204.416C226.364 206.549 227.858 208.514 229.991 208.805Z" fill="black"/>
<path fill-rule="evenodd" clip-rule="evenodd" d="M271.968 211.252C270.91 210.194 270.91 208.478 271.968 207.419L281.726 197.662C282.784 196.603 284.501 196.603 285.559 197.662C286.618 198.72 286.618 200.436 285.559 201.495L275.801 211.252C274.743 212.311 273.027 212.311 271.968 211.252Z" fill="white"/>
<path fill-rule="evenodd" clip-rule="evenodd" d="M270.144 213.077C268.078 211.011 268.078 207.661 270.144 205.595L279.901 195.837C281.968 193.771 285.317 193.771 287.384 195.837C289.45 197.903 289.45 201.253 287.384 203.319L277.626 213.077C275.56 215.143 272.21 215.143 270.144 213.077ZM271.968 207.419C270.91 208.478 270.91 210.194 271.968 211.252C273.027 212.311 274.743 212.311 275.801 211.252L285.559 201.495C286.618 200.436 286.618 198.72 285.559 197.662C284.501 196.603 282.784 196.603 281.726 197.662L271.968 207.419Z" fill="white"/>
<path fill-rule="evenodd" clip-rule="evenodd" d="M228.526 174.844C229.88 177.116 232.82 177.859 235.092 176.505L247.355 169.195C263.481 159.582 283.894 161.065 298.462 172.907C300.514 174.576 303.53 174.265 305.199 172.212C306.867 170.16 306.556 167.144 304.504 165.475C286.816 151.096 262.031 149.295 242.451 160.967L230.187 168.278C227.915 169.632 227.171 172.572 228.526 174.844Z" fill="black"/>
<circle cx="161.36" cy="204.401" r="34.694" fill="white"/>
<circle cx="161.902" cy="216.383" r="22.2258" fill="#4361FF"/>
<circle cx="161.902" cy="216.383" r="22.2258" fill="url(#paint1_linear_4118_1025)" fill-opacity="0.7"/>
<circle cx="161.902" cy="216.383" r="14.6365" fill="black"/>
<path d="M126.139 208.805C128.272 209.096 130.237 207.602 130.528 205.47L131.198 200.556C132.621 190.116 139.339 181.153 148.961 176.858C156.288 173.587 164.626 173.344 172.138 176.177C182.916 180.241 190.512 190.028 191.756 201.473L192.179 205.364C192.412 207.504 194.335 209.05 196.475 208.818C198.615 208.585 200.161 206.662 199.928 204.522L199.506 200.631C197.943 186.258 188.41 173.981 174.888 168.883C165.458 165.327 154.989 165.63 145.783 169.74C133.699 175.135 125.262 186.391 123.474 199.503L122.804 204.416C122.513 206.549 124.006 208.514 126.139 208.805Z" fill="black"/>
<path fill-rule="evenodd" clip-rule="evenodd" d="M168.117 211.252C167.058 210.194 167.058 208.478 168.117 207.419L177.874 197.662C178.933 196.603 180.649 196.603 181.708 197.662C182.766 198.72 182.766 200.436 181.708 201.495L171.95 211.252C170.891 212.311 169.175 212.311 168.117 211.252Z" fill="white"/>
<path fill-rule="evenodd" clip-rule="evenodd" d="M166.292 213.077C164.226 211.011 164.226 207.661 166.292 205.595L176.05 195.837C178.116 193.771 181.466 193.771 183.532 195.837C185.598 197.903 185.598 201.253 183.532 203.319L173.774 213.077C171.708 215.143 168.358 215.143 166.292 213.077ZM168.117 207.419C167.058 208.478 167.058 210.194 168.117 211.252C169.175 212.311 170.891 212.311 171.95 211.252L181.708 201.495C182.766 200.436 182.766 198.72 181.708 197.662C180.649 196.603 178.933 196.603 177.874 197.662L168.117 207.419Z" fill="white"/>
<path fill-rule="evenodd" clip-rule="evenodd" d="M196.351 174.844C194.996 177.116 192.057 177.859 189.785 176.505L177.521 169.195C161.395 159.582 140.982 161.065 126.415 172.907C124.362 174.576 121.346 174.265 119.678 172.212C118.009 170.16 118.32 167.144 120.373 165.475C138.06 151.096 162.846 149.295 182.426 160.967L194.689 168.278C196.961 169.632 197.705 172.572 196.351 174.844Z" fill="black"/>
<path d="M77.3544 129.364L87.2918 202.724L102.128 151.367L110.878 122.185C111.92 118.711 113.451 115.404 115.427 112.362C123.785 99.4968 139.038 92.8918 154.139 95.5986L191.948 102.376C195.705 103.049 199.513 103.388 203.329 103.388H234.415C239.095 103.388 243.762 102.878 248.332 101.868L272.677 96.4894C287.57 93.1987 303.055 98.4923 312.816 110.212C316.515 114.652 319.227 119.827 320.775 125.394L325.957 144.039L335.632 202.724C338.213 188.533 342.728 175.632 344.663 163.376L351.106 129.76C351.874 125.758 352.28 121.692 352.261 117.617C352.236 112.118 352.066 106.582 351.163 101.315L347.781 86.4571C346.153 79.3054 343.317 72.4837 339.395 66.2855L328.537 51.1394L335.632 47.2691L312.411 35.0134L288.544 22.1126L296.285 16.3072L269.193 9.21176C269.193 9.21176 250.487 5.34152 235.006 4.69648C219.525 4.05144 204.044 5.34152 204.044 5.34152C204.044 5.34152 186.812 6.73598 181.869 8.21134C175.402 10.1417 164.185 14.7008 158.891 18.8874L140.185 33.0783L136.213 20.1402L115.319 49.6102C110.514 56.3875 107.933 64.4901 107.933 72.7978C107.933 74.5057 106.849 76.0269 105.235 76.5865C91.2543 81.4345 81.0224 93.5433 78.594 108.14L77.5833 114.216C76.7499 119.225 76.6727 124.332 77.3544 129.364Z" fill="#5D473B"/>
<path d="M213.531 0.26515C219.407 0.0203398 227.283 -0.145101 235.194 0.18452C243.189 0.517663 251.933 1.67807 258.612 2.73696C261.966 3.26871 264.83 3.7791 266.858 4.15807C267.872 4.34764 268.68 4.50427 269.235 4.61413C269.513 4.66903 269.728 4.71283 269.875 4.74264C269.949 4.75748 270.005 4.76868 270.044 4.77665C270.064 4.78062 270.079 4.78455 270.09 4.78673C270.095 4.78781 270.099 4.78863 270.102 4.78925C270.104 4.78955 270.105 4.78906 270.106 4.78925L270.107 4.79051C270.106 4.79882 270.078 4.93425 269.618 7.1565L270.108 4.79051C270.185 4.80638 270.262 4.82359 270.338 4.84343L297.429 11.9389C299.105 12.378 300.382 13.7385 300.715 15.4387C301.048 17.139 300.38 18.8804 298.994 19.92L296.895 21.4923L314.558 31.0406H314.557L337.739 43.2762C339.211 44.0527 340.136 45.575 340.147 47.2385C340.158 48.9017 339.255 50.4369 337.795 51.2334L335.181 52.6583L343.065 63.6542L343.211 63.8709C347.407 70.5029 350.442 77.8024 352.184 85.4546L355.565 100.313L355.613 100.551L355.785 101.615C356.603 106.938 356.752 112.403 356.776 117.597L356.774 118.42C356.74 122.53 356.308 126.61 355.541 130.61L349.113 164.136C348.105 170.498 346.44 176.979 344.761 183.458C343.059 190.021 341.33 196.629 340.075 203.531C339.682 205.692 337.791 207.257 335.595 207.239C333.399 207.221 331.534 205.625 331.177 203.458L321.54 145.014L316.424 126.604C315.134 121.962 312.934 117.626 309.954 113.849L309.346 113.102C300.801 102.843 287.324 98.1205 274.272 100.767L273.651 100.898L249.306 106.277C244.416 107.358 239.422 107.903 234.415 107.903H203.329C199.757 107.903 196.19 107.625 192.662 107.074L191.151 106.82L153.342 100.044C140.237 97.6946 127.002 103.299 119.563 114.294L119.214 114.822C117.581 117.335 116.292 120.056 115.381 122.91L115.203 123.482L106.465 152.618L106.466 152.619L91.63 203.977C91.0376 206.028 89.0898 207.384 86.961 207.227C84.9656 207.081 83.3219 205.643 82.8879 203.721L82.8174 203.329L72.8797 129.97C72.1374 124.49 72.2217 118.93 73.1292 113.475L74.1396 107.4L74.2731 106.64C77.1756 90.8662 88.294 77.8184 103.421 72.4391C103.494 63.3215 106.358 54.442 111.635 46.9991L132.53 17.5288L132.724 17.2731C133.737 16.0391 135.337 15.426 136.929 15.6819C138.628 15.955 140.025 17.1703 140.53 18.8151L142.605 25.5742L156.162 15.2901C159.263 12.8562 163.775 10.507 168.103 8.57887C172.536 6.60365 177.139 4.91097 180.578 3.88468L181.166 3.7209C184.278 2.90995 189.841 2.21933 194.325 1.73413C196.821 1.46405 199.156 1.24063 200.866 1.08531C201.722 1.00759 202.423 0.94677 202.911 0.905151C203.155 0.88436 203.346 0.86811 203.477 0.857277C203.542 0.851881 203.592 0.848738 203.626 0.845938C203.643 0.844557 203.657 0.842887 203.665 0.842159C203.668 0.841918 203.671 0.842325 203.673 0.842159L203.674 0.840899C203.677 0.840691 203.68 0.841242 203.684 0.840899C203.693 0.840159 203.707 0.838452 203.723 0.837119C203.756 0.834459 203.803 0.830634 203.865 0.825781C203.988 0.816005 204.168 0.801692 204.401 0.784206C204.868 0.749204 205.548 0.70078 206.409 0.644363C208.132 0.531543 210.588 0.387801 213.531 0.26515ZM112.449 72.7982C112.449 76.319 110.284 79.4615 107.033 80.7352L106.714 80.8524C94.4872 85.0923 85.489 95.5834 83.1538 108.275L83.0479 108.881L82.0375 114.956C81.2782 119.52 81.2073 124.173 81.8284 128.758L88.8924 180.909L97.7894 150.114L97.8032 150.07L106.553 120.889L106.777 120.162C107.933 116.542 109.57 113.091 111.641 109.902L112.085 109.233C121.521 95.2857 138.311 88.1742 154.936 91.1541L192.745 97.9308L194.057 98.1513C197.123 98.6311 200.224 98.8719 203.329 98.8719H234.415C238.767 98.8719 243.108 98.3988 247.358 97.4596L271.702 92.0801L272.478 91.9163C288.78 88.6111 305.613 94.5084 316.286 107.322L317.043 108.255C320.765 112.973 323.513 118.387 325.125 124.185L330.308 142.83L330.366 143.066C330.383 143.145 330.399 143.224 330.412 143.304L336.408 179.672C337.954 173.685 339.347 168.092 340.202 162.672L340.229 162.527L346.672 128.91C347.298 125.641 347.664 122.343 347.734 119.05L347.745 117.639C347.72 112.218 347.55 107.03 346.728 102.18L343.378 87.459C341.874 80.848 339.257 74.541 335.644 68.8045L324.868 53.7708C324.114 52.7194 323.847 51.3947 324.136 50.1336C324.4 48.9781 325.106 47.9766 326.096 47.3405L310.304 39.0066C310.291 38.9997 310.277 38.9923 310.263 38.9852L286.397 26.0844C285.043 25.3524 284.155 23.9809 284.041 22.446C283.927 20.911 284.604 19.4237 285.835 18.5001L286.093 18.3049L268.172 13.6107C268.147 13.6056 268.118 13.5999 268.084 13.593C267.95 13.5659 267.747 13.5255 267.483 13.4734C266.955 13.3691 266.18 13.2182 265.199 13.0349C263.236 12.6681 260.455 12.1718 257.198 11.6554C250.654 10.618 242.304 9.51944 234.818 9.20753C227.248 8.89214 219.643 9.0492 213.908 9.28816C211.047 9.40738 208.664 9.54713 207 9.65603C206.169 9.71045 205.518 9.75655 205.078 9.78958C204.858 9.80608 204.69 9.81983 204.579 9.82863C204.524 9.83301 204.482 9.83653 204.455 9.83871C204.442 9.83977 204.432 9.84073 204.426 9.84123H204.419L204.409 9.84249H204.397C204.39 9.8431 204.379 9.84503 204.363 9.84627C204.332 9.84883 204.284 9.85246 204.222 9.85761C204.098 9.86791 203.914 9.88281 203.678 9.90296C203.204 9.94336 202.52 10.0033 201.682 10.0793C200.007 10.2316 197.726 10.4489 195.296 10.7118C190.544 11.2261 185.784 11.8588 183.568 12.4252L183.16 12.5386C180.131 13.4427 175.892 14.9949 171.778 16.8283C167.852 18.5774 164.349 20.4463 162.121 22.1008L161.692 22.4296L161.621 22.485L142.914 36.6759C141.74 37.5672 140.203 37.8276 138.8 37.3751C137.396 36.9225 136.301 35.813 135.868 34.4032L134.588 30.2369L119.003 52.2211C114.739 58.2351 112.449 65.4261 112.449 72.7982Z" fill="black"/>
<path d="M153.919 60.6497C167.224 36.9122 192.833 22.7658 220.01 24.1394C222.49 24.265 224.398 26.3766 224.272 28.8563C224.147 31.3361 222.035 33.2449 219.556 33.1196C195.79 31.9186 173.397 44.2892 161.763 65.0466L156.989 73.5631C155.813 75.661 153.205 76.4501 151.074 75.3937L150.869 75.2866C148.703 74.0725 147.932 71.3321 149.145 69.1662L153.919 60.6497Z" fill="#423027"/>
<path d="M200.107 71.891C214.438 49.5695 239.945 36.255 265.5 37.8966C268.057 38.0611 269.835 40.3399 269.429 42.8415C269.065 45.0824 267.061 46.7654 264.792 46.7306L264.737 44.1467L264.571 46.7218C242.425 45.2993 220.113 56.8689 207.558 76.4251L206.267 78.4371C205.087 80.2746 202.595 81.2148 200.444 80.1492L200.237 80.0396C197.909 78.731 197.553 75.8699 198.816 73.9017L200.107 71.891Z" fill="#423027"/>
<path d="M240.217 75.2047C258.77 56.6515 287.115 52.0513 310.583 63.7855L314.453 65.7219C316.79 66.8899 317.737 69.7302 316.569 72.0664C315.401 74.4026 312.56 75.3497 310.224 74.1817L306.353 72.2466C286.526 62.3332 262.58 66.219 246.906 81.8932C245.059 83.7401 242.064 83.74 240.217 81.8932C238.37 80.0462 238.37 77.0517 240.217 75.2047Z" fill="#423027"/>
<g filter="url(#filter1_d_4118_1025)">
<path fill-rule="evenodd" clip-rule="evenodd" d="M161.451 154C165.767 154 170.05 154.771 174.095 156.276C182.956 159.575 190.178 166.205 194.219 174.753L196.822 180.261C197.614 181.935 198.295 183.654 198.865 185.406L203.073 183.539C206.086 182.202 209.476 181.5 212.923 181.5L213.665 181.511C214.022 181.521 214.378 181.541 214.732 181.566C214.854 181.575 214.975 181.582 215.096 181.593C215.192 181.601 215.287 181.612 215.383 181.621C215.5 181.633 215.618 181.643 215.735 181.656L215.872 181.672C215.946 181.681 216.019 181.692 216.093 181.701C216.238 181.72 216.383 181.738 216.527 181.759C216.612 181.771 216.695 181.785 216.779 181.798C216.927 181.821 217.075 181.844 217.222 181.869C217.323 181.887 217.425 181.906 217.526 181.925C217.65 181.948 217.774 181.971 217.897 181.996C218.011 182.019 218.124 182.044 218.237 182.068C218.352 182.093 218.467 182.119 218.582 182.146C218.693 182.171 218.804 182.197 218.915 182.225C219.035 182.254 219.155 182.285 219.274 182.316C219.384 182.345 219.493 182.375 219.603 182.405C219.712 182.436 219.821 182.468 219.93 182.5C220.043 182.533 220.156 182.567 220.269 182.602C220.393 182.64 220.518 182.681 220.642 182.722C220.73 182.751 220.818 182.78 220.905 182.81C221.027 182.851 221.147 182.894 221.268 182.938C221.376 182.977 221.485 183.016 221.593 183.057C221.694 183.095 221.795 183.134 221.896 183.174C222.004 183.216 222.112 183.259 222.219 183.303C222.321 183.345 222.423 183.39 222.524 183.434C222.639 183.483 222.754 183.532 222.868 183.583C222.959 183.624 223.048 183.666 223.138 183.708C223.248 183.759 223.359 183.809 223.468 183.862C223.672 183.962 223.874 184.065 224.074 184.17L227.032 185.726C227.622 183.863 228.338 182.037 229.178 180.261L231.781 174.753C235.822 166.205 243.043 159.575 251.904 156.276C255.95 154.771 260.231 154 264.548 154H303.347C308.877 154 314.327 155.328 319.237 157.871C323.807 160.238 327.791 163.596 330.896 167.7L332.711 170.097C336.298 174.837 338.934 180.159 340.545 185.772H350C351.105 185.772 352 186.668 352 187.772V192.541C352 193.646 351.105 194.541 350 194.541H345.819C345.294 194.541 344.79 194.748 344.416 195.116L342.368 197.131C342.456 199.426 342.38 201.737 342.134 204.046L341.853 206.671L341.836 206.833L341.805 206.993L340.455 214.089C338.586 223.916 333.936 233.001 327.058 240.265C322.438 245.143 316.92 249.085 310.808 251.875L310.215 252.146C300.219 256.708 289.094 258.206 278.247 256.453L272.466 255.52C260.91 253.652 250.271 248.084 242.15 239.652C237.159 234.471 233.253 228.345 230.659 221.634L227.928 214.567C225.993 209.561 225 204.239 225 198.871C225 196.646 225.171 194.43 225.508 192.243L224.244 191.603C221.033 189.973 217.339 189.06 213.546 188.952L212.786 188.941C209.421 188.941 206.103 189.576 203.104 190.793L200.434 191.876C200.809 194.182 201 196.521 201 198.871C201 204.239 200.007 209.561 198.072 214.567L195.341 221.634C192.747 228.345 188.841 234.471 183.85 239.652C175.728 248.084 165.09 253.652 153.533 255.52L147.752 256.453C136.905 258.206 125.781 256.708 115.785 252.146L115.191 251.875C109.079 249.085 103.561 245.143 98.9414 240.265C92.063 233.001 87.4131 223.916 85.5439 214.089L84.1943 206.993L84.1641 206.833L84.1465 206.671L83.8662 204.046C83.6196 201.737 83.5438 199.426 83.6318 197.132L81.584 195.116C81.2099 194.748 80.7056 194.541 80.1807 194.541H76C75.9311 194.541 75.863 194.538 75.7959 194.531C75.7287 194.524 75.6627 194.513 75.5977 194.5C75.5927 194.499 75.5879 194.497 75.583 194.496C75.5241 194.484 75.466 194.47 75.4092 194.452C75.3996 194.449 75.3903 194.446 75.3809 194.442C75.3305 194.426 75.281 194.408 75.2324 194.388C75.2125 194.379 75.1934 194.369 75.1738 194.36C75.1386 194.344 75.1034 194.329 75.0693 194.311C75.0427 194.297 75.0171 194.281 74.9912 194.266C74.9619 194.248 74.9326 194.232 74.9043 194.213C74.8851 194.2 74.8664 194.187 74.8477 194.174C74.8132 194.15 74.7798 194.124 74.7471 194.098C74.7307 194.084 74.7142 194.071 74.6982 194.058C74.6681 194.032 74.6389 194.005 74.6104 193.978C74.5928 193.961 74.5755 193.943 74.5586 193.926C74.5321 193.898 74.5064 193.87 74.4814 193.841C74.4673 193.824 74.453 193.808 74.4395 193.791C74.4131 193.758 74.3885 193.724 74.3643 193.689C74.3502 193.67 74.3365 193.649 74.3232 193.629C74.3035 193.599 74.2847 193.568 74.2666 193.536C74.2547 193.515 74.2426 193.495 74.2314 193.474C74.2115 193.436 74.1933 193.397 74.1758 193.358C74.1672 193.339 74.1584 193.32 74.1504 193.301C74.1353 193.264 74.1223 193.226 74.1094 193.189C74.1016 193.166 74.0929 193.143 74.0859 193.12C74.0737 193.08 74.0634 193.039 74.0537 192.997C74.0487 192.976 74.0434 192.954 74.0391 192.933C74.0139 192.806 74 192.675 74 192.541V187.772C74 186.668 74.8954 185.772 76 185.772H85.4551C87.066 180.159 89.7017 174.837 93.2891 170.097L95.1025 167.7C98.2083 163.597 102.192 160.238 106.762 157.871C111.672 155.328 117.122 154 122.652 154H161.451ZM122.652 162C118.403 162 114.215 163.02 110.441 164.975C106.93 166.794 103.868 169.374 101.481 172.527L99.668 174.925C93.551 183.007 90.7448 193.117 91.8213 203.196L92.084 205.659L93.4033 212.595C94.9864 220.918 98.9244 228.612 104.75 234.764C108.663 238.896 113.337 242.234 118.514 244.597L119.106 244.867C127.665 248.773 137.189 250.056 146.476 248.556L152.257 247.621C162.103 246.03 171.168 241.286 178.088 234.103C182.34 229.688 185.669 224.468 187.879 218.75L190.61 211.684C192.19 207.597 193 203.253 193 198.871C193 193.618 191.835 188.429 189.59 183.68L186.986 178.172C183.837 171.511 178.209 166.345 171.305 163.774C168.152 162.601 164.815 162 161.451 162H122.652ZM264.548 162C261.184 162 257.848 162.601 254.695 163.774C247.79 166.345 242.163 171.511 239.014 178.172L236.41 183.68C234.165 188.429 233 193.618 233 198.871C233 203.253 233.81 207.597 235.39 211.684L238.121 218.75C240.331 224.468 243.66 229.688 247.912 234.103C254.832 241.286 263.896 246.03 273.742 247.621L279.523 248.556C288.81 250.057 298.334 248.773 306.893 244.867L307.486 244.597C312.663 242.234 317.336 238.895 321.249 234.764C327.075 228.612 331.014 220.918 332.597 212.595L333.915 205.659L334.179 203.196C335.255 193.117 332.449 183.007 326.332 174.925L324.518 172.527C322.131 169.374 319.07 166.794 315.559 164.975C311.785 163.02 307.596 162 303.347 162H264.548Z" fill="url(#paint2_linear_4118_1025)"/>
</g>
<path d="M101.82 220.706L101.673 220.579C100.913 219.986 99.7917 220.028 99.0832 220.706C98.3747 221.384 98.3305 222.456 98.9505 223.183L99.0832 223.324L115.854 239.365C116.61 240.088 117.835 240.088 118.591 239.365C119.347 238.642 119.347 237.47 118.591 236.747L101.82 220.706Z" fill="white" fill-opacity="0.7"/>
<path d="M112.141 220.706L111.994 220.579C111.234 219.986 110.112 220.028 109.404 220.706C108.695 221.384 108.651 222.456 109.271 223.183L109.404 223.324L117.144 230.727C117.9 231.45 119.125 231.45 119.881 230.727C120.637 230.005 120.637 228.833 119.881 228.11L112.141 220.706Z" fill="white" fill-opacity="0.7"/>
</g>
<mask id="mask0_4118_1025" style="mask-type:alpha" maskUnits="userSpaceOnUse" x="10" y="43" width="410" height="409">
<path d="M420 247.5C420 360.442 328.218 452 215 452C101.782 452 10 360.442 10 247.5C10 134.558 101.782 43 215 43C328.218 43 420 134.558 420 247.5Z" fill="#101419"/>
</mask>
<g mask="url(#mask0_4118_1025)">
<path d="M210.837 314.801C210.837 302.425 202.086 291.795 189.991 289.48L78.1633 268.068C77.0126 267.848 75.8598 268.439 75.3621 269.505L62.3066 297.464C61.8099 298.527 62.0918 299.794 62.9922 300.544L206.636 420.148C208.308 421.54 210.837 420.345 210.837 418.163V314.801Z" fill="white"/>
<path d="M79.3569 259.123C74.505 258.407 69.7251 260.858 67.4555 265.228L67.2376 265.671L54.1817 293.631L53.9826 294.081C52.0914 298.62 53.2605 303.872 56.895 307.169L57.2669 307.492L200.911 427.096C208.433 433.36 219.812 427.981 219.812 418.162V314.801C219.812 298.093 207.998 283.744 191.67 280.617L79.8428 259.205L79.3569 259.123ZM210.837 418.162C210.837 420.276 208.464 421.464 206.796 420.271L206.637 420.147L62.9916 300.544C62.1478 299.842 61.848 298.684 62.2228 297.666L62.3067 297.463L75.3627 269.505C75.8604 268.439 77.0132 267.847 78.1637 268.067L189.991 289.48L190.556 289.594C202.357 292.128 210.836 302.618 210.837 314.801V418.162Z" fill="black"/>
<path d="M210.837 314.801C210.837 302.425 219.587 291.795 231.682 289.48L343.51 268.068C344.66 267.848 345.813 268.439 346.311 269.505L359.366 297.464C359.863 298.527 359.581 299.794 358.681 300.544L215.037 420.148C213.365 421.54 210.837 420.345 210.837 418.163V314.801Z" fill="white"/>
<path d="M342.316 259.123C347.168 258.407 351.948 260.858 354.218 265.228L354.435 265.671L367.491 293.631L367.691 294.081C369.582 298.62 368.413 303.872 364.778 307.169L364.406 307.492L220.762 427.096C213.24 433.36 201.861 427.981 201.861 418.162V314.801C201.861 298.093 213.675 283.744 230.003 280.617L341.83 259.205L342.316 259.123ZM210.837 418.162C210.837 420.276 213.209 421.464 214.877 420.271L215.036 420.147L358.681 300.544C359.525 299.842 359.825 298.684 359.45 297.666L359.366 297.463L346.31 269.505C345.813 268.439 344.66 267.847 343.509 268.067L231.682 289.48L231.117 289.594C219.316 292.128 210.837 302.618 210.837 314.801V418.162Z" fill="black"/>
<path d="M204.426 305.07C204.426 303.647 205.574 302.493 206.99 302.493H214.683C216.099 302.493 217.247 303.647 217.247 305.07V440.4C217.247 441.824 216.099 442.978 214.683 442.978H206.99C205.574 442.978 204.426 441.824 204.426 440.4V305.07Z" fill="#FFD27F"/>
<path d="M204.439 440.663C204.562 441.877 205.521 442.841 206.728 442.964L206.99 442.978H214.683L214.945 442.964C216.152 442.841 217.111 441.877 217.234 440.663L217.247 440.4V305.07C217.247 303.736 216.238 302.638 214.945 302.507L214.683 302.493V293.471C221.056 293.471 226.223 298.664 226.223 305.07V440.4C226.223 446.807 221.056 452 214.683 452H206.99C200.816 452 195.774 447.126 195.465 440.997L195.45 440.4V305.07C195.45 298.664 200.617 293.471 206.99 293.471V302.493L206.728 302.507C205.435 302.638 204.426 303.736 204.426 305.07V440.4L204.439 440.663ZM214.683 293.471V302.493H206.99V293.471H214.683Z" fill="black"/>
<path d="M195.45 308.503C195.45 307.261 194.569 306.195 193.353 305.969L60.0065 281.146C58.43 280.853 56.9752 282.069 56.9752 283.681V408.612C56.9752 409.855 57.8571 410.921 59.0726 411.147L192.419 435.969C193.996 436.263 195.45 435.046 195.45 433.435L195.45 308.503Z" fill="#FFD27F"/>
<path d="M56.9752 408.612V283.681C56.9753 282.069 58.4301 280.853 60.0066 281.146L193.353 305.969C194.569 306.195 195.45 307.262 195.45 308.504V433.435C195.45 434.946 194.172 436.11 192.713 436.008L192.419 435.97L59.0725 411.147C57.9332 410.935 57.0867 409.985 56.9852 408.843L56.9752 408.612ZM48 408.612C48 414.029 51.7244 418.7 56.9301 419.912L57.4385 420.018L190.785 444.841C197.879 446.161 204.426 440.687 204.426 433.435V308.504C204.426 302.912 200.457 298.116 194.987 297.098L61.6406 272.275L60.977 272.171C54.1435 271.298 48 276.655 48 283.681V408.612Z" fill="black"/>
<path d="M226.223 308.503C226.223 307.261 227.105 306.195 228.32 305.969L361.667 281.146C363.243 280.853 364.698 282.069 364.698 283.681V408.612C364.698 409.855 363.816 410.921 362.601 411.147L229.254 435.969C227.678 436.263 226.223 435.046 226.223 433.435L226.223 308.503Z" fill="#FFD27F"/>
<path d="M364.698 408.612V283.681C364.698 282.069 363.243 280.853 361.667 281.146L228.32 305.969C227.105 306.195 226.223 307.262 226.223 308.504V433.435C226.223 434.946 227.501 436.11 228.96 436.008L229.254 435.97L362.601 411.147C363.74 410.935 364.586 409.985 364.688 408.843L364.698 408.612ZM373.673 408.612C373.673 414.029 369.949 418.7 364.743 419.912L364.235 420.018L230.888 444.841C223.794 446.161 217.248 440.687 217.247 433.435V308.504C217.247 302.912 221.216 298.116 226.686 297.098L360.033 272.275L360.696 272.171C367.53 271.298 373.673 276.655 373.673 283.681V408.612Z" fill="black"/>
<path d="M240.785 332.181L245.081 331.396L245.833 335.555L241.538 336.34L240.785 332.181ZM239.169 323.251L243.464 322.465L244.217 326.624L239.922 327.409L239.169 323.251Z" fill="#F8F9FA"/>
<path d="M249.954 323.016L252.712 322.512L253.008 324.148L253.189 324.115C253.477 323.295 253.822 322.708 254.225 322.352C254.628 321.997 255.243 321.744 256.072 321.592C257.218 321.383 258.125 321.365 258.795 321.54C259.463 321.7 259.985 322.09 260.362 322.709C260.751 323.311 261.056 324.226 261.278 325.453L262.636 332.952L259.878 333.456L258.512 325.912C258.361 325.078 258.1 324.539 257.729 324.294C257.373 324.046 256.773 323.999 255.929 324.154C255.19 324.289 254.637 324.5 254.268 324.786C253.915 325.07 253.694 325.486 253.606 326.034C253.531 326.564 253.577 327.291 253.744 328.215L254.859 334.374L252.101 334.878L249.954 323.016Z" fill="#F8F9FA"/>
<path d="M270.938 331.645C269.476 331.912 268.313 331.937 267.448 331.72C266.581 331.487 265.896 330.97 265.393 330.17C264.902 329.352 264.51 328.133 264.217 326.512C263.921 324.876 263.859 323.588 264.032 322.649C264.219 321.707 264.672 320.982 265.39 320.475C266.12 319.95 267.224 319.553 268.701 319.283C270.178 319.013 271.342 318.995 272.194 319.231C273.059 319.448 273.737 319.966 274.227 320.784C274.733 321.6 275.134 322.825 275.43 324.461C275.723 326.082 275.776 327.364 275.588 328.306C275.413 329.23 274.96 329.955 274.23 330.479C273.497 330.989 272.4 331.378 270.938 331.645ZM266.975 326.007C267.156 327.007 267.378 327.765 267.643 328.28C267.92 328.777 268.275 329.103 268.708 329.259C269.156 329.412 269.756 329.419 270.51 329.282C271.264 329.144 271.816 328.925 272.166 328.627C272.532 328.325 272.75 327.894 272.82 327.333C272.902 326.755 272.853 325.966 272.672 324.966C272.488 323.951 272.256 323.187 271.977 322.675C271.712 322.16 271.356 321.826 270.908 321.673C270.472 321.502 269.878 321.486 269.124 321.623C268.371 321.761 267.812 321.989 267.449 322.305C267.099 322.604 266.882 323.043 266.8 323.621C266.733 324.197 266.791 324.992 266.975 326.007Z" fill="#F8F9FA"/>
<path d="M285.971 328.943C284.885 329.141 284.038 329.148 283.428 328.962C282.819 328.776 282.365 328.421 282.068 327.896C281.768 327.356 281.528 326.594 281.35 325.609L280.314 319.883L277.398 320.416L277.517 317.976L279.981 317.525L279.545 315.117L281.966 313.524L282.603 317.046L287.011 316.24L287.435 318.58L283.027 319.386L284.047 325.022C284.134 325.507 284.236 325.856 284.353 326.069C284.484 326.28 284.695 326.414 284.986 326.47C285.291 326.524 285.731 326.498 286.303 326.394C286.951 326.275 287.877 326.012 289.08 325.604L289.512 327.99C287.98 328.474 286.799 328.791 285.971 328.943Z" fill="#F8F9FA"/>
<path d="M302.471 328.672C301.182 328.861 300.123 328.859 299.294 328.667C298.48 328.471 297.772 328.045 297.171 327.388C296.569 326.731 295.987 325.75 295.423 324.444C295.074 323.632 294.798 322.884 294.597 322.201C294.396 321.518 294.196 320.631 293.999 319.54C293.801 318.449 293.677 317.548 293.626 316.838C293.576 316.127 293.572 315.33 293.614 314.446C293.684 313.024 293.885 311.9 294.218 311.072C294.551 310.244 295.071 309.593 295.78 309.119C296.488 308.646 297.471 308.27 298.729 307.993L299.167 310.543C298.404 310.713 297.815 310.946 297.401 311.241C297 311.518 296.707 311.923 296.524 312.458C296.355 312.99 296.268 313.71 296.261 314.619C296.267 315.51 296.295 316.272 296.348 316.904C296.397 317.521 296.496 318.238 296.644 319.056C296.792 319.874 296.952 320.588 297.125 321.199C297.295 321.794 297.533 322.509 297.84 323.345C298.165 324.193 298.499 324.836 298.843 325.274C299.202 325.71 299.618 325.986 300.091 326.103C300.581 326.232 301.214 326.242 301.988 326.131L302.471 328.672Z" fill="#F8F9FA"/>
<path d="M311.442 319.191L310.413 317.759L309.954 319.486L309.046 321.437L306.463 320.195L307.305 318.398L308.573 316.758L306.625 316.832L304.566 316.551L304.909 313.93L307.099 314.163L308.774 314.772L308.049 312.956L307.683 310.934L310.554 310.409L310.92 312.431L310.895 314.361L312.276 313.216L314.259 312.173L315.538 314.592L313.664 315.592L311.806 316.166L313.469 317.224L314.99 318.66L313.074 320.724L311.442 319.191Z" fill="#F8F9FA"/>
<path d="M322.764 316.111L318.197 316.946L317.761 314.537L322.328 313.702L321.464 308.93L324.132 308.443L324.995 313.215L329.562 312.38L329.998 314.788L325.431 315.623L326.319 320.532L323.652 321.02L322.764 316.111Z" fill="#F8F9FA"/>
<path d="M338.553 314.234L337.523 312.802L337.065 314.529L336.157 316.479L333.573 315.238L334.416 313.441L335.683 311.8L333.735 311.875L331.676 311.594L332.019 308.972L334.21 309.206L335.885 309.815L335.159 307.999L334.793 305.977L337.664 305.452L338.03 307.474L338.006 309.404L339.387 308.259L341.37 307.216L342.648 309.635L340.774 310.635L338.916 311.209L340.579 312.267L342.1 313.702L340.185 315.766L338.553 314.234Z" fill="#F8F9FA"/>
<path d="M348.386 317.647C349.15 317.476 349.73 317.245 350.129 316.953C350.546 316.673 350.838 316.268 351.007 315.736C351.19 315.202 351.285 314.48 351.292 313.571C351.287 312.68 351.259 311.926 351.21 311.309C351.158 310.677 351.058 309.951 350.909 309.133C350.761 308.315 350.602 307.609 350.432 307.014C350.26 306.404 350.02 305.681 349.713 304.845C349.388 303.996 349.046 303.355 348.687 302.919C348.343 302.481 347.927 302.205 347.44 302.091C346.964 301.959 346.339 301.948 345.565 302.058L345.082 299.517C346.356 299.331 347.408 299.335 348.237 299.527C349.066 299.72 349.781 300.145 350.383 300.802C350.984 301.459 351.567 302.44 352.13 303.745C352.479 304.558 352.755 305.306 352.956 305.989C353.158 306.672 353.357 307.559 353.554 308.65C353.752 309.741 353.876 310.641 353.927 311.352C353.977 312.063 353.982 312.86 353.939 313.744C353.869 315.166 353.668 316.29 353.335 317.118C353.002 317.946 352.482 318.596 351.774 319.07C351.08 319.541 350.097 319.917 348.824 320.196L348.386 317.647Z" fill="#F8F9FA"/>
<path d="M296.644 319.057C296.533 318.443 296.449 317.886 296.394 317.386L296.347 316.904C296.295 316.272 296.266 315.51 296.261 314.618C296.268 313.71 296.356 312.99 296.524 312.458C296.685 311.99 296.929 311.621 297.256 311.351L297.401 311.241C297.815 310.946 298.404 310.713 299.167 310.542L298.728 307.993C297.471 308.27 296.488 308.646 295.78 309.12L295.523 309.305C294.944 309.758 294.509 310.348 294.218 311.072L294.099 311.396C293.837 312.185 293.675 313.201 293.614 314.445C293.572 315.329 293.575 316.127 293.626 316.838L293.678 317.406C293.743 318.011 293.851 318.722 293.999 319.54L294.146 320.319C294.295 321.061 294.445 321.688 294.596 322.201C294.798 322.884 295.074 323.632 295.424 324.444C295.987 325.75 296.569 326.732 297.17 327.388C297.772 328.045 298.479 328.472 299.293 328.667C300.122 328.86 301.181 328.861 302.471 328.672L301.988 326.131C301.214 326.242 300.581 326.232 300.09 326.102C299.677 326 299.307 325.776 298.981 325.43L298.843 325.275C298.499 324.837 298.165 324.193 297.84 323.345C297.533 322.509 297.294 321.794 297.124 321.199C296.995 320.741 296.872 320.225 296.756 319.65L296.644 319.057ZM353.554 308.65C353.406 307.832 353.257 307.128 353.106 306.539L352.956 305.989C352.754 305.306 352.479 304.557 352.13 303.745C351.637 302.603 351.129 301.709 350.607 301.063L350.383 300.802C349.857 300.227 349.243 299.829 348.542 299.61L348.237 299.528C347.408 299.335 346.357 299.331 345.083 299.517L345.565 302.058C346.339 301.948 346.964 301.959 347.44 302.091C347.927 302.205 348.343 302.482 348.687 302.92C349.046 303.355 349.389 303.996 349.713 304.844C350.02 305.68 350.26 306.404 350.433 307.014C350.603 307.609 350.762 308.316 350.91 309.134L351.011 309.729C351.104 310.308 351.171 310.834 351.21 311.309C351.26 311.926 351.287 312.68 351.293 313.571C351.286 314.48 351.19 315.202 351.006 315.737C350.838 316.268 350.545 316.673 350.129 316.952C349.73 317.244 349.15 317.476 348.387 317.647L348.825 320.196C350.097 319.916 351.081 319.542 351.774 319.071C352.393 318.656 352.87 318.106 353.202 317.42L353.336 317.118C353.627 316.394 353.817 315.442 353.907 314.263L353.939 313.744C353.971 313.081 353.976 312.467 353.956 311.902L353.926 311.352C353.888 310.819 353.809 310.179 353.688 309.432L353.554 308.65ZM268.7 319.283C267.223 319.553 266.119 319.95 265.389 320.475L265.133 320.675C264.563 321.166 264.195 321.824 264.031 322.648L263.977 323.018C263.878 323.916 263.957 325.08 264.216 326.511L264.332 327.1C264.61 328.431 264.963 329.454 265.392 330.17C265.895 330.97 266.581 331.487 267.448 331.719C268.313 331.937 269.476 331.913 270.937 331.646C272.216 331.412 273.217 331.084 273.938 330.664L274.23 330.479C274.96 329.954 275.412 329.23 275.588 328.306C275.752 327.481 275.733 326.397 275.528 325.053L275.429 324.461C275.133 322.825 274.732 321.599 274.227 320.784C273.797 320.068 273.225 319.582 272.509 319.326L272.194 319.23C271.449 319.024 270.464 319.013 269.24 319.194L268.7 319.283L268.241 316.747C269.845 316.454 271.433 316.363 272.816 316.731C273.626 316.935 274.344 317.292 274.961 317.776C275.05 316.631 275.882 315.681 277.003 315.451C276.876 314.474 277.314 313.503 278.14 312.959L280.561 311.367L280.698 311.283C281.393 310.885 282.237 310.835 282.977 311.155C283.767 311.496 284.334 312.212 284.488 313.062L284.667 314.048L286.553 313.703L286.813 313.67C288.108 313.567 289.297 314.465 289.534 315.778L289.958 318.119C290.211 319.519 289.287 320.861 287.894 321.116L286.008 321.461L286.418 323.724C286.873 323.607 287.481 323.425 288.26 323.161C288.966 322.922 289.741 323.003 290.383 323.383C291.024 323.764 291.469 324.406 291.602 325.143L292.034 327.529C292.265 328.808 291.513 330.06 290.279 330.45C288.72 330.942 287.418 331.298 286.43 331.479C285.274 331.69 284.037 331.78 282.908 331.492L282.684 331.428C281.563 331.086 280.609 330.4 279.964 329.381L279.84 329.172C279.836 329.166 279.832 329.16 279.829 329.154C279.333 328.261 279.028 327.184 278.827 326.071L278.249 322.88L277.856 322.951C277.817 322.959 277.777 322.96 277.738 322.965C277.815 323.303 277.888 323.648 277.952 324C278.266 325.735 278.381 327.382 278.106 328.788L278.107 328.789C277.833 330.237 277.111 331.484 275.958 332.398L275.722 332.576C275.711 332.584 275.7 332.592 275.689 332.6C274.52 333.412 273.008 333.887 271.396 334.182C269.885 334.458 268.401 334.555 267.086 334.28L266.825 334.22L266.787 334.21C266.188 334.049 265.638 333.807 265.141 333.492C264.929 334.482 264.147 335.295 263.094 335.487L260.336 335.992C259.031 336.23 257.777 335.431 257.415 334.178C257.515 335.479 256.622 336.671 255.317 336.909L252.56 337.414C251.167 337.668 249.832 336.739 249.578 335.339L247.432 323.477C247.178 322.076 248.102 320.734 249.496 320.479L252.253 319.975L252.514 319.942C252.724 319.925 252.93 319.937 253.131 319.971C253.907 319.476 254.786 319.208 255.613 319.056C256.889 318.823 258.206 318.737 259.389 319.034L259.39 319.032C259.399 319.035 259.409 319.037 259.419 319.04C259.426 319.042 259.433 319.043 259.44 319.045C260.48 319.304 261.347 319.858 262.013 320.629C262.432 319.743 263.06 318.971 263.909 318.37C265.085 317.528 266.616 317.045 268.241 316.747L268.7 319.283ZM245.081 331.396L240.785 332.181L241.538 336.34L245.833 335.554L245.081 331.396ZM321.464 308.93L322.327 313.703L317.761 314.538L318.197 316.946L322.763 316.111L323.652 321.02L326.32 320.532L325.432 315.623L329.997 314.789L329.561 312.38L324.996 313.215L324.132 308.442L321.464 308.93ZM270.149 325.426C270.031 324.776 269.909 324.364 269.819 324.125C269.753 324.133 269.674 324.143 269.583 324.16C269.488 324.177 269.408 324.196 269.34 324.213C269.347 324.488 269.384 324.919 269.497 325.546C269.602 326.124 269.71 326.522 269.797 326.782C269.87 326.773 269.954 326.763 270.05 326.745C270.143 326.729 270.222 326.708 270.29 326.691C270.287 326.434 270.257 326.025 270.149 325.426ZM307.683 310.933L308.049 312.957L308.775 314.772L307.099 314.163L304.909 313.93L304.566 316.551L306.625 316.832L308.573 316.758L307.306 318.398L306.463 320.196L309.047 321.436L309.955 319.486L310.412 317.759L311.443 319.191L313.074 320.723L314.989 318.66L313.469 317.224L311.805 316.167L313.664 315.591L315.538 314.592L314.259 312.173L312.276 313.216L310.896 314.36L310.919 312.432L310.553 310.408L307.683 310.933ZM334.792 305.976L335.159 308L335.884 309.815L334.21 309.205L332.019 308.973L331.675 311.594L333.735 311.875L335.683 311.8L334.415 313.441L333.573 315.239L336.156 316.479L337.064 314.529L337.523 312.802L338.552 314.234L340.185 315.766L342.1 313.703L340.579 312.266L338.916 311.209L340.774 310.634L342.648 309.635L341.37 307.216L339.386 308.259L338.005 309.403L338.03 307.474L337.664 305.451L334.792 305.976ZM270.908 321.672C271.356 321.825 271.712 322.16 271.976 322.674L270.269 323.56L270.908 321.672ZM281.42 325.968C281.589 326.781 281.805 327.424 282.068 327.896C282.365 328.421 282.818 328.777 283.428 328.962C284.038 329.148 284.886 329.141 285.971 328.943C286.8 328.791 287.98 328.474 289.511 327.991L289.079 325.605C287.877 326.012 286.952 326.275 286.304 326.393C285.874 326.472 285.52 326.506 285.24 326.496L284.986 326.471C284.696 326.414 284.484 326.28 284.353 326.07C284.265 325.91 284.186 325.673 284.115 325.361L284.046 325.022L283.026 319.386L287.435 318.58L287.012 316.239L282.603 317.046L281.965 313.524L279.545 315.116L279.981 317.525L277.516 317.976L277.397 320.415L280.313 319.882L281.35 325.609L281.42 325.968ZM272.783 325.677C272.869 326.347 272.881 326.899 272.819 327.333L272.786 327.537C272.693 327.999 272.486 328.363 272.166 328.627C271.816 328.926 271.263 329.144 270.509 329.282C269.85 329.402 269.308 329.411 268.883 329.309L268.707 329.259C268.274 329.104 267.92 328.777 267.643 328.28C267.445 327.893 267.27 327.371 267.119 326.712L266.974 326.007C266.791 324.992 266.733 324.197 266.8 323.621C266.872 323.115 267.046 322.716 267.324 322.424L267.449 322.305C267.812 321.988 268.37 321.762 269.124 321.624L269.399 321.578C270.024 321.492 270.527 321.523 270.908 321.672L270.269 323.56L271.976 322.674C272.256 323.187 272.488 323.95 272.672 324.965L272.783 325.677ZM299.167 318.595C299.304 319.352 299.446 319.979 299.589 320.487L299.712 320.898C299.846 321.328 300.018 321.833 300.233 322.419L300.433 322.907C300.594 323.268 300.728 323.492 300.817 323.619C300.855 323.623 300.906 323.629 300.971 323.63C301.049 323.631 301.142 323.628 301.251 323.621L301.628 323.58L301.881 323.555C303.137 323.501 304.266 324.381 304.507 325.648L304.989 328.189C305.121 328.879 304.965 329.594 304.56 330.167C304.154 330.74 303.533 331.122 302.841 331.223C301.568 331.41 300.328 331.46 299.195 331.273L298.715 331.178C298.709 331.177 298.704 331.175 298.698 331.173C297.524 330.892 296.498 330.314 295.641 329.498L295.283 329.134C294.517 328.297 293.871 327.216 293.307 325.999L293.07 325.47L293.07 325.467C292.784 324.803 292.535 324.161 292.329 323.543L292.138 322.933C291.9 322.126 291.682 321.139 291.476 320.002C291.27 318.864 291.128 317.862 291.068 317.023C291.008 316.188 291.006 315.285 291.053 314.321L291.052 314.318L291.088 313.739C291.19 312.401 291.416 311.161 291.84 310.106L292.05 309.634C292.574 308.557 293.346 307.651 294.359 306.973C295.432 306.255 296.755 305.789 298.18 305.475L298.438 305.432C299.041 305.362 299.652 305.511 300.16 305.855C300.668 306.198 301.034 306.711 301.198 307.299L301.255 307.554L301.694 310.104C301.912 311.375 301.164 312.597 299.969 312.991L299.724 313.059C299.443 313.122 299.237 313.186 299.092 313.244C299.031 313.268 298.985 313.289 298.95 313.307C298.897 313.514 298.831 313.926 298.825 314.625C298.831 315.464 298.858 316.15 298.903 316.691L298.903 316.696C298.944 317.205 299.029 317.835 299.167 318.595ZM356.077 308.189C356.232 309.042 356.35 309.818 356.424 310.507L356.484 311.167C356.544 312.001 356.547 312.905 356.501 313.868L356.5 313.871C356.433 315.235 356.252 316.515 355.883 317.621L355.712 318.084C355.197 319.365 354.358 320.431 353.208 321.205L353.21 321.206C353.208 321.207 353.204 321.208 353.202 321.21C353.199 321.211 353.197 321.214 353.194 321.216L353.193 321.215C352.125 321.936 350.798 322.401 349.372 322.715C348.689 322.865 347.974 322.727 347.393 322.334C346.813 321.942 346.417 321.328 346.298 320.635L345.86 318.086L345.829 317.832C345.737 316.572 346.578 315.412 347.829 315.132C348.11 315.069 348.311 315.004 348.449 314.949C348.514 314.923 348.557 314.899 348.584 314.885C348.639 314.72 348.721 314.314 348.727 313.551C348.721 312.719 348.696 312.046 348.654 311.522C348.61 310.994 348.524 310.354 348.387 309.595C348.249 308.835 348.108 308.215 347.968 307.725L347.966 307.72C347.818 307.197 347.603 306.547 347.315 305.76C347.043 305.053 346.825 304.706 346.717 304.572C346.686 304.569 346.638 304.562 346.569 304.561C346.495 304.559 346.405 304.562 346.299 304.569L345.926 304.611C344.571 304.804 343.304 303.893 343.047 302.543L342.564 300.001C342.432 299.31 342.588 298.595 342.994 298.022C343.4 297.449 344.021 297.067 344.714 296.966C346.157 296.755 347.559 296.724 348.815 297.016C350.169 297.331 351.334 298.035 352.269 299.056L352.591 299.43C353.219 300.205 353.763 301.147 354.246 302.19L354.482 302.72L354.484 302.722L354.757 303.38C355.016 304.029 355.237 304.655 355.414 305.256C355.652 306.063 355.871 307.051 356.077 308.189ZM239.169 323.25L239.922 327.409L244.217 326.623L243.465 322.465L239.169 323.25ZM252.101 334.878L254.858 334.373L253.744 328.215C253.576 327.291 253.531 326.564 253.606 326.034C253.694 325.486 253.915 325.069 254.268 324.785C254.637 324.499 255.19 324.289 255.928 324.154C256.772 324 257.373 324.047 257.729 324.295L257.863 324.399C258.164 324.678 258.38 325.182 258.512 325.912L259.877 333.456L262.635 332.951L261.278 325.453C261.056 324.226 260.751 323.311 260.362 322.709C260.032 322.167 259.591 321.8 259.039 321.61L258.795 321.54C258.125 321.365 257.217 321.383 256.072 321.593C255.243 321.744 254.628 321.997 254.225 322.352C253.822 322.708 253.476 323.295 253.189 324.114L253.008 324.147L252.711 322.511L249.954 323.016L252.101 334.878ZM327.06 310.217L329.102 309.844C329.175 309.831 329.248 309.821 329.321 309.814L329.477 308.636L329.522 308.382C329.812 307.139 330.977 306.281 332.265 306.406C332.031 305.017 332.951 303.693 334.333 303.44L337.205 302.915L337.465 302.881C338.742 302.78 339.912 303.652 340.173 304.935L340.18 304.932L340.417 304.822C341.619 304.338 343.014 304.832 343.634 306.006L344.913 308.425C345.232 309.029 345.3 309.736 345.1 310.389C344.908 311.022 344.478 311.552 343.906 311.877C344.885 312.854 344.922 314.44 343.975 315.46L342.06 317.525C341.596 318.025 340.953 318.319 340.273 318.343C339.594 318.366 338.932 318.118 338.435 317.653C338.138 318.235 337.635 318.686 337.02 318.907C336.457 319.109 335.843 319.107 335.285 318.904L335.051 318.805L332.467 317.563C332.1 317.387 331.795 317.133 331.559 316.831C331.246 317.074 330.872 317.249 330.456 317.325L328.413 317.698L328.843 320.071C329.096 321.471 328.172 322.813 326.779 323.068L324.111 323.556C322.717 323.811 321.382 322.882 321.129 321.481L320.699 319.109L318.656 319.482C318.236 319.559 317.822 319.526 317.441 319.408C317.331 319.773 317.141 320.12 316.865 320.418L314.949 322.482C314.485 322.982 313.842 323.277 313.162 323.3C312.483 323.324 311.823 323.075 311.326 322.609C311.029 323.192 310.525 323.643 309.91 323.864C309.347 324.067 308.733 324.064 308.176 323.861L307.94 323.762L305.356 322.521C304.084 321.909 303.542 320.379 304.143 319.096L304.145 319.091C302.786 318.865 301.843 317.597 302.024 316.215L302.366 313.593L302.413 313.339C302.703 312.096 303.868 311.238 305.156 311.363C304.922 309.974 305.841 308.65 307.224 308.397L310.094 307.872L310.356 307.839C311.632 307.738 312.802 308.61 313.062 309.892L313.07 309.889L313.308 309.779C314.509 309.295 315.903 309.79 316.523 310.963L317.097 312.049C317.164 312.031 317.232 312.014 317.302 312.002L319.345 311.628L318.941 309.392C318.687 307.991 319.612 306.649 321.005 306.394L323.673 305.906L323.933 305.873C325.229 305.77 326.417 306.668 326.655 307.981L327.06 310.217ZM246.74 326.162C246.939 327.263 246.409 328.326 245.497 328.855C246.536 329.026 247.404 329.833 247.604 330.934L248.356 335.093C248.61 336.493 247.686 337.835 246.292 338.09L241.997 338.876C240.603 339.13 239.268 338.202 239.015 336.801L238.262 332.643C238.063 331.541 238.593 330.479 239.506 329.95C238.467 329.778 237.598 328.971 237.399 327.87L236.646 323.712C236.393 322.311 237.317 320.969 238.71 320.714L243.006 319.929L243.266 319.895C244.561 319.793 245.75 320.691 245.988 322.004L246.74 326.162Z" fill="black"/>
</g>
<defs>
<filter id="filter0_d_4118_1025" x="47.6915" y="0" width="327.205" height="376.578" filterUnits="userSpaceOnUse" color-interpolation-filters="sRGB">
<feFlood flood-opacity="0" result="BackgroundImageFix"/>
<feColorMatrix in="SourceAlpha" type="matrix" values="0 0 0 0 0 0 0 0 0 0 0 0 0 0 0 0 0 0 127 0" result="hardAlpha"/>
<feOffset dy="8"/>
<feGaussianBlur stdDeviation="4"/>
<feComposite in2="hardAlpha" operator="out"/>
<feColorMatrix type="matrix" values="0 0 0 0 0 0 0 0 0 0 0 0 0 0 0 0 0 0 0.25 0"/>
<feBlend mode="normal" in2="BackgroundImageFix" result="effect1_dropShadow_4118_1025"/>
<feBlend mode="normal" in="SourceGraphic" in2="effect1_dropShadow_4118_1025" result="shape"/>
</filter>
<filter id="filter1_d_4118_1025" x="70" y="154" width="286" height="111.166" filterUnits="userSpaceOnUse" color-interpolation-filters="sRGB">
<feFlood flood-opacity="0" result="BackgroundImageFix"/>
<feColorMatrix in="SourceAlpha" type="matrix" values="0 0 0 0 0 0 0 0 0 0 0 0 0 0 0 0 0 0 127 0" result="hardAlpha"/>
<feOffset dy="4"/>
<feGaussianBlur stdDeviation="2"/>
<feComposite in2="hardAlpha" operator="out"/>
<feColorMatrix type="matrix" values="0 0 0 0 0 0 0 0 0 0 0 0 0 0 0 0 0 0 0.25 0"/>
<feBlend mode="normal" in2="BackgroundImageFix" result="effect1_dropShadow_4118_1025"/>
<feBlend mode="normal" in="SourceGraphic" in2="effect1_dropShadow_4118_1025" result="shape"/>
</filter>
<linearGradient id="paint0_linear_4118_1025" x1="265.753" y1="194.157" x2="265.753" y2="238.609" gradientUnits="userSpaceOnUse">
<stop stop-color="#283A99"/>
<stop offset="1" stop-color="#4361FF"/>
</linearGradient>
<linearGradient id="paint1_linear_4118_1025" x1="161.902" y1="194.157" x2="161.902" y2="238.609" gradientUnits="userSpaceOnUse">
<stop stop-color="#283A99"/>
<stop offset="1" stop-color="#4361FF"/>
</linearGradient>
<linearGradient id="paint2_linear_4118_1025" x1="213" y1="154" x2="213" y2="257.166" gradientUnits="userSpaceOnUse">
<stop stop-color="#565B52"/>
<stop offset="1" stop-color="#33372F"/>
</linearGradient>
</defs>
</svg>
