<svg width="180" height="180" viewBox="0 0 180 180" fill="none" xmlns="http://www.w3.org/2000/svg">
  <defs>
    <style>
      :root {
        --front: light-dark(#1C756A, #F2C89D);
        --back: light-dark(#F2C89D, #1C756A);
        color-scheme: light dark;
      }
    </style>
  </defs>
  <path d="M146.26 83.3994C152.228 83.3995 157.596 86.0847 162.248 90.1C166.874 94.0927 171.222 99.7519 175.379 106.704C177.419 110.117 176.306 114.539 172.893 116.579C169.481 118.619 165.059 117.506 163.018 114.094C159.283 107.847 155.861 103.605 152.841 100.998C149.847 98.4142 147.691 97.7993 146.26 97.7991C144.88 97.7991 142.903 98.3708 140.227 100.84C137.491 103.364 134.429 107.521 131.178 113.735C127.523 120.72 123.554 126.464 119.137 130.54C114.661 134.67 109.358 137.398 103.338 137.398C97.37 137.398 92.0011 134.713 87.3493 130.698C82.7241 126.705 78.3792 121.045 74.2222 114.094C70.5017 107.872 67.2604 104.284 64.6845 102.524C62.4095 100.969 61.0782 101.061 59.9702 101.473C58.3385 102.079 55.7568 103.993 52.5347 108.824C49.3916 113.536 46.1062 120.318 42.7545 129.393C41.3766 133.123 37.235 135.028 33.505 133.651C29.7764 132.272 27.8706 128.134 29.2477 124.405C32.8024 114.78 36.5473 106.849 40.5572 100.837C44.4883 94.9428 49.1853 90.1202 54.9535 87.9766C61.2449 85.6387 67.4385 86.9647 72.809 90.6344C77.8794 94.0992 82.407 99.7265 86.5794 106.704C90.3151 112.951 93.7398 117.192 96.7605 119.799C99.7529 122.382 101.907 122.998 103.338 122.999C104.718 122.999 106.695 122.426 109.371 119.958C112.107 117.433 115.169 113.276 118.42 107.063C122.075 100.078 126.044 94.3336 130.461 90.2582C134.937 86.1281 140.24 83.3994 146.26 83.3994Z" fill="var(--back)"/>
  <path d="M141.918 51C149.599 51 156.437 54.3412 162.252 59.1877C168.019 63.9946 173.354 70.7322 178.381 78.8502C181.521 83.9212 179.954 90.5773 174.883 93.7175C169.813 96.8571 163.156 95.2935 160.016 90.223C155.657 83.1842 151.751 78.5531 148.425 75.7811C145.147 73.0493 143.036 72.5996 141.918 72.5996C140.871 72.5999 138.996 72.9902 136.124 75.5491C133.155 78.1951 129.679 82.6967 125.894 89.6817C121.466 97.8536 116.581 104.721 111.044 109.654C105.411 114.672 98.6324 118.073 90.879 118.073C83.1977 118.073 76.3602 114.732 70.5451 109.886C64.7779 105.079 59.4462 98.3407 54.4192 90.223C50.0886 83.2299 46.4578 79.4423 43.7917 77.6831C41.5532 76.2063 40.6126 76.4718 39.9702 76.7022C38.6268 77.1843 35.9091 78.9506 32.229 84.2782C28.6528 89.4558 24.8318 97.0288 20.8878 107.34C18.7571 112.911 12.5157 115.7 6.94509 113.57C1.37412 111.439 -1.41529 105.195 0.715517 99.6237C4.98413 88.4636 9.52471 79.1428 14.4543 72.0054C19.2799 65.019 25.2163 59.0477 32.6719 56.3717C40.8294 53.4444 48.8352 55.1334 55.6883 59.6553C62.1149 63.8958 67.7252 70.6862 72.7809 78.8502C77.1403 85.8898 81.0495 90.5202 84.3753 93.2921C87.6519 96.023 89.7607 96.4734 90.879 96.4737C91.9253 96.4737 93.8029 96.0841 96.6762 93.5242C99.6457 90.8783 103.118 86.3759 106.903 79.3916C111.331 71.2193 116.219 64.3526 121.756 59.4197C127.389 54.4015 134.165 51.0003 141.918 51Z" fill="var(--front)"/>
</svg>
