<svg width="180" height="180" viewBox="0 0 180 180" fill="none" xmlns="http://www.w3.org/2000/svg">
<path d="M14.6653 89.9743C18.764 82.372 24.806 77.146 27.7432 74.3868C39.2031 64.2054 51.6656 58.0211 66.3862 50.763C85.7371 41.223 106.586 36.1433 118.04 42.3537C128.207 47.8662 127.9 58.9004 123.05 67.8966C120.398 72.8153 115.599 80.09 113.373 82.8269C112.977 83.1705 113.374 83.8053 113.859 83.5993C134.85 74.6704 152.99 71.9314 163.638 76.8759C169.458 79.5784 171.403 82.6605 166.837 91.1289C158.232 107.088 138.168 123.77 114.538 135.893C100.675 143.007 87.0957 141.361 80.1416 137.591C69.1267 130.49 67.3168 117.245 72.2305 108.131C77.1442 99.0175 83.6577 90.2232 95.7185 80.09C96.1635 79.7429 95.7183 79.0544 95.2164 79.3171C81.5317 88.2002 70.3703 99.5886 62.7258 115.688C62.1268 117.218 60.9863 118.467 59.5627 119.285C43.69 128.387 30.6527 130.29 20.7461 124.918C7.70218 117.845 9.13396 100.234 14.6653 89.9743Z" fill="url(#paint0_linear_3998_5)"/>
<path d="M5.31043 84.9314C1.66163 91.6992 -0.629441 100.731 0.153254 109.58C0.960041 118.7 5.23468 128.6 15.6814 134.265C29.432 141.72 45.3985 138.764 61.2151 130.5C63.5719 136.664 67.8849 142.337 74.3837 146.526L74.7226 146.745L75.0766 146.937C85.2893 152.474 102.587 153.976 119.393 145.352L119.392 145.352C143.888 132.784 166.127 114.85 176.195 96.1748C178.675 91.5764 181.257 85.3309 179.325 78.8187C177.273 71.901 171.39 68.7559 168.117 67.2363C160.179 63.5504 150.647 63.1867 141.162 64.5082C139.316 64.7654 137.432 65.0923 135.515 65.4851C136.743 61.3842 137.298 56.9478 136.721 52.4644C135.706 44.569 131.252 37.4263 123.109 33.0109C114.18 28.1696 103.148 28.3581 93.2321 30.2028C82.9563 32.1146 71.9654 36.1633 61.6874 41.2304L58.9677 42.5726C45.4168 49.2696 32.5861 55.8683 20.6849 66.4417L20.5743 66.5398L20.4669 66.641C17.8565 69.0933 10.387 75.5154 5.31043 84.9314ZM20.7482 124.92C7.70433 117.847 9.13585 100.235 14.6672 89.9759L14.8608 89.6214C18.954 82.211 24.8536 77.1043 27.7449 74.3881C39.2048 64.2068 51.6673 58.0227 66.3879 50.7646C85.7387 41.2246 106.588 36.1447 118.042 42.3551C128.209 47.8676 127.902 58.9018 123.052 67.8981C120.44 72.7423 115.745 79.8714 113.477 82.7006L113.375 82.8282C112.979 83.1718 113.376 83.8065 113.86 83.6006C134.851 74.6717 152.992 71.933 163.64 76.8775C169.46 79.58 171.404 82.6621 166.839 91.1303C158.234 107.09 138.17 123.771 114.54 135.895C100.894 142.897 87.5218 141.412 80.4741 137.768L80.1434 137.592C69.1287 130.491 67.3187 117.247 72.2322 108.133C77.1459 99.0191 83.6595 90.2246 95.7203 80.0914C96.1652 79.7443 95.7202 79.056 95.2184 79.3185C81.5337 88.2016 70.3721 99.5903 62.7276 115.689C62.1286 117.219 60.9881 118.469 59.5646 119.287C43.9401 128.247 31.0629 130.23 21.2148 125.166L20.7482 124.92Z" fill="#101419"/>
<defs>
<linearGradient id="paint0_linear_3998_5" x1="2.90763" y1="84.0433" x2="161.646" y2="84.0433" gradientUnits="userSpaceOnUse">
<stop stop-color="#25AC89"/>
<stop offset="1" stop-color="#1C756A"/>
</linearGradient>
</defs>
</svg>
