<svg width="180" height="180" viewBox="0 0 180 180" fill="none" xmlns="http://www.w3.org/2000/svg">
<path d="M141.918 81.1256C148.505 81.1256 154.556 83.9858 159.949 88.4802C165.309 92.9478 170.403 99.3333 175.319 107.271C177.412 110.651 176.369 115.091 172.988 117.185C169.608 119.277 165.171 118.233 163.078 114.854C158.607 107.635 154.46 102.651 150.728 99.5401C147.027 96.4563 144.129 95.5254 141.918 95.5254C139.754 95.5257 137.062 96.4168 133.73 99.3855C130.332 102.412 126.622 107.309 122.73 114.492C118.409 122.466 113.759 128.938 108.65 133.49C103.477 138.099 97.5144 140.999 90.8787 140.999C84.2914 140.999 78.2431 138.139 72.8509 133.645C67.4905 129.177 62.3932 122.792 57.4774 114.854C53.026 107.666 49.0671 103.376 45.7741 101.203C42.7662 99.2186 40.648 99.1593 38.7535 99.839C36.3913 100.687 33.1363 103.153 29.265 108.758C25.4633 114.262 21.5246 122.127 17.5266 132.579C16.1061 136.293 11.9419 138.155 8.22794 136.735C4.51447 135.314 2.65563 131.15 4.07607 127.436C8.29094 116.416 12.7131 107.385 17.4176 100.574C22.0521 93.8643 27.4515 88.5966 33.888 86.2865C40.7926 83.8088 47.6211 85.1692 53.7052 89.1833C59.5054 93.0104 64.7871 99.3016 69.7221 107.271C74.1927 114.49 78.336 119.474 82.0687 122.585C85.7688 125.668 88.6669 126.599 90.8787 126.599C93.0427 126.599 95.737 125.709 99.07 122.739C102.468 119.712 106.178 114.816 110.07 107.633C114.391 99.6586 119.041 93.1866 124.15 88.6349C129.323 84.0261 135.282 81.126 141.918 81.1256Z" fill="#B9C5D4"/>
<path d="M141.918 51C149.599 51 156.437 54.3412 162.252 59.1877C168.019 63.9946 173.354 70.7322 178.381 78.8502C181.521 83.9212 179.954 90.5773 174.883 93.7175C169.813 96.8571 163.156 95.2935 160.016 90.223C155.657 83.1842 151.751 78.5531 148.425 75.7811C145.147 73.0493 143.036 72.5996 141.918 72.5996C140.871 72.5999 138.996 72.9902 136.124 75.5491C133.155 78.1951 129.679 82.6967 125.894 89.6817C121.466 97.8536 116.581 104.721 111.044 109.654C105.411 114.672 98.6324 118.073 90.879 118.073C83.1977 118.073 76.3602 114.732 70.5451 109.886C64.7779 105.079 59.4462 98.3407 54.4192 90.223C50.0886 83.2299 46.4578 79.4423 43.7917 77.6831C41.5532 76.2063 40.6126 76.4718 39.9702 76.7022C38.6268 77.1843 35.9091 78.9506 32.229 84.2782C28.6528 89.4558 24.8318 97.0288 20.8878 107.34C18.7571 112.911 12.5157 115.7 6.94509 113.57C1.37412 111.439 -1.41529 105.195 0.715517 99.6237C4.98413 88.4636 9.52471 79.1428 14.4543 72.0054C19.2799 65.019 25.2163 59.0477 32.6719 56.3717C40.8294 53.4444 48.8352 55.1334 55.6883 59.6553C62.1149 63.8958 67.7252 70.6862 72.7809 78.8502C77.1403 85.8898 81.0495 90.5202 84.3753 93.2921C87.6519 96.023 89.7607 96.4734 90.879 96.4737C91.9253 96.4737 93.8029 96.0841 96.6762 93.5242C99.6457 90.8783 103.118 86.3759 106.903 79.3916C111.331 71.2193 116.219 64.3526 121.756 59.4197C127.389 54.4015 134.165 51.0003 141.918 51Z" fill="#1C756A"/>
</svg>
