<svg width="180" height="180" viewBox="0 0 180 180" fill="none" xmlns="http://www.w3.org/2000/svg">
<path d="M14.0691 89.7452C18.2004 82.0826 24.2903 76.8152 27.2508 74.034C38.8017 63.7718 51.3631 57.5385 66.2005 50.2228C85.7049 40.607 106.72 35.487 118.264 41.7467C125.437 45.6356 128.203 58.4247 123.314 67.4924C120.641 72.45 116.345 80.1261 113.561 82.5411C113.161 82.8874 113.562 83.5273 114.05 83.3196C135.207 74.3199 153.491 71.5591 164.224 76.5428C170.091 79.2668 172.05 82.3734 167.448 90.9089C158.776 106.995 138.552 123.809 114.734 136.028C100.762 143.199 87.0743 141.54 80.065 137.739C68.9628 130.582 68.1244 117.723 73.0771 108.537C77.9541 99.4906 84.3998 86.3093 103.237 71.6153C103.685 71.2655 103.237 70.5715 102.731 70.8363C84.2103 80.5716 69.1474 98.7028 62.5111 115.662C61.9073 117.205 60.7578 118.464 59.3229 119.288C43.3242 128.463 30.1835 130.38 20.1982 124.966C7.05077 117.838 8.49391 100.086 14.0691 89.7452Z" fill="url(#paint0_linear_3998_5)"/>
<path d="M5.26683 84.9997C1.64847 91.7111 -0.623684 100.677 0.15167 109.442C0.949746 118.463 5.16614 128.191 15.4317 133.757C29.2654 141.258 45.4597 138.117 61.6313 129.441C63.5333 135.526 67.4373 141.25 73.886 145.639L74.6467 146.144L74.9651 146.349L75.299 146.53C85.2164 151.907 102.023 153.467 118.514 145.32L119.299 144.926C143.932 132.288 166.201 114.296 176.251 95.6548C178.736 91.0443 181.21 84.974 179.349 78.702C177.375 72.0488 171.71 68.9929 168.435 67.4726C160.61 63.8392 151.16 63.4605 141.666 64.7832C139.366 65.1037 137.005 65.5328 134.592 66.0635C136.034 60.8863 136.089 55.5051 135.113 50.6897C133.78 44.1216 130.099 36.788 123.031 32.9555C114.247 28.1927 103.325 28.352 93.3886 30.2007C83.1129 32.1125 72.0977 36.166 61.7787 41.2533L61.7787 41.2543C47.0965 48.4934 33.3217 55.2645 20.6094 66.5586L20.5059 66.6504L20.4043 66.7461C17.7511 69.2385 10.3179 75.631 5.26683 84.9997ZM20.1983 124.966C7.05105 117.837 8.49425 100.086 14.0694 89.7448L14.462 89.0338C18.5779 81.7558 24.3829 76.7283 27.2509 74.0341L28.3368 73.0839C39.5892 63.3814 51.8268 57.31 66.2005 50.2229L68.0335 49.3342C87.0092 40.2979 107.08 35.6826 118.264 41.7464C125.436 45.6353 128.203 58.4245 123.314 67.4922C120.641 72.4498 116.345 80.1258 113.56 82.5408C113.161 82.887 113.562 83.5266 114.049 83.3191C135.207 74.3194 153.492 71.5591 164.225 76.5428C170.091 79.2668 172.05 82.3733 167.448 90.9088C158.775 106.995 138.552 123.808 114.734 136.028C101.198 142.974 87.9298 141.635 80.7413 138.089L80.0656 137.739C68.9633 130.582 68.1247 117.723 73.0774 108.536C77.9545 99.4905 84.4003 86.3091 103.237 71.6151C103.685 71.2654 103.237 70.5719 102.731 70.8359C84.2109 80.5711 69.1475 98.7027 62.5111 115.662C61.9074 117.205 60.7576 118.464 59.3227 119.288C43.3241 128.463 30.1835 130.38 20.1983 124.966Z" fill="#101419"/>
<defs>
<linearGradient id="paint0_linear_3998_5" x1="10" y1="89.9987" x2="169.998" y2="89.9987" gradientUnits="userSpaceOnUse">
<stop stop-color="#25AC89"/>
<stop offset="1" stop-color="#1C756A"/>
</linearGradient>
</defs>
</svg>
